<svg xmlns="http://www.w3.org/2000/svg" width="135" height="50"><path fill="none" stroke="#57bd0f" stroke-width="1" d="m0 39 1-1 1-1v2l1 4 1 6 1-4 1-2 1-2 1 4h1l1-4v-1l1-1 1-6 1-2 1-1v7h1l1-1 1 1 1-1v1l1 4 1 2 1-5 1 3v1l1-3 1-3 1-3 1 6v2l1 9 1-2 1-7 1 5v-2l1 4 1-1 1-1 1-3v5l1-1h1l1-5 1-3v-1l1-3 1 2 1 2 1-5v7l1 1 1-1 1 3 1 2v-3l1-1 1-1 1-2 1-1v-5l1 6 1 3 1 3 1-6v4l1 1 1-1h1l1 1 1-2 1 6 1-2h1V35l1 6 1 2 1 2 1-5v-1h1l1-3 1-1v-1l1-3 1-1 1 1 1 1v1l1 5 1-4 1 1 1 6v1l1-5h2l1-2 1 2 1-3 1-3 1-3v-4l1-2 1-5 1 7 1 3v-4l1-4 1 2 1 1 1-2v2l1 2 1 7h1l1-4v-3l1 4 1 3 1-1 1 2v-1l1-3 1-3 1 1 1-1v-2l1 1 1-1 1-2 1 1v-1l1 1 1-7 1 4 1 1v-2l1-2 1 1 1 3 1 1 1-5 1-6 1 3 1-12V0l1 3 1 3 1 5 1 2v3l1 4 1-2 1-3 1 22v-5l1-11 1 4 1 1 1-4v2l1 9"/></svg>