<svg xmlns="http://www.w3.org/2000/svg" width="135" height="50"><path fill="none" stroke="#ed5565" stroke-width="1" d="m0 3 1-3 1 5v1l1-2 1 1 1 1h1V5l1-2 1 1h2v2l1 2 1-4 1 1 1 2V6l1 3h1l1-1h1v1h1l1 1 1-1h1v1l1 2 1-2h1l1 1V7l1 3h1l1-1 1 2v3l1 3 1 6 1-3 1 1v3l1-2 1-1 1-1 1-2 1-2 1 2 1-3 1-2 1 1 1-1 1 1h1v1l1-2h1l1 5 1-1v-2h1l1 2 1 1 1-1v2l1-2 1 1 1-5 1 3 1-1 1 6h2v-3l1 3h1l1-2 1-1v-1l1 3 1-2 1 1v-1l1 32 1-33 1-1h1v1l1 2h2l1 1v2l1-2 1-2 1-1 1-3 1 1 1 1 1-1 1-2V5l1 6 1-2 1 2h1l1-3 1 2 1 3 1-4v1l1 4 1 2 1 1 1-2v28l1 3 1-31 1 1 1 1v-1h1l1-1 1 9 1-8v-1l1 3 1-1 1-1h1v2h1l1 29 1-30 1-1 1 1h1l1 1 1-2v2l1-3 1 1 1-1 1 30 1-1 1 1 1-1 1 1V17l1 28 1 2 1-30 1 5v-2l1 1h3l1 3"/></svg>