<svg xmlns="http://www.w3.org/2000/svg" width="135" height="50"><path fill="none" stroke="#57bd0f" stroke-width="1" d="m0 29 1-1 1-3v3h1l1-1 1 2 1-2 1 1 1-2h2v-1h2l1 1 1-1h2l1 1 1-2v2h2l1-1 1 1v4h1l1 17 1 1 1-2v2l1 1 1 1 1-3 1 2v-4l1 3 1 1 1-3 1 1 1-2 1-3h1l1-5v-2l1 1 1 5 1 4 1-4v-3l1-3 1 1 1 2 1-1v-2l1 1 1 1 1-2h1v2h1l1 2 1-1h1v-1l1 1h1l1 2 1-4 1-1 1 1 1 6 1 1v-2l1-2h1l1-2 1-1 1 1 1-2h1l1 1h3v-1l1 1 1 2 1-6 1 3v-2l1-4 1 5 1-5 1-1v3l1-2 1 4 1-1 1-4v-2h1l1-2 1 3h1v-1h1l1 1 1 1h1v1h2l1-4 1 3v-2l1 4 1-1 1-1h1v1h1l1-7 1 2h1v-5l1-2 1 1 1 2 1-5v1l1-2 1-2 1-5 1 4v1l1-6h3V5l1-4 1-1 1 2 1-1v2l1-2 1 2 1-2 1 2h1l1 2 1 2 1 1V7l1-3 1 3h1l1 1v3l1 3"/></svg>