<svg xmlns="http://www.w3.org/2000/svg" width="135" height="50"><path fill="none" stroke="#57bd0f" stroke-width="1" d="m0 37 1-1 1 4v2l1 4 1 4 1-4 1-5v-1h1l1 3 1-3 1-1v1l1-2 1-7 1 3h1v8h1l1-3h1l1 2v1l1 1 1 2 1-5 1 2v2h2l1-1 1 1v2l1 2 1-1 1-3 1 3v-1l1 2 1 1 1-2 1-2v3l1-1 1-1 1-3 1-3 1-3h2l1-5 1-6 1 1 1 3h1v-1l1 1 1-1h1l1 1v-5l1 3 1 2 1 7 1-2 1-4 1-4 1-4 1-2v4l1-2 1 6 1-1 1-2v-9l1 2 1 3 1 1 1-2 1-1 1 1h1v1l1-3 1 1 1 1 1 2 1 1 1-2 1 3 1 2v1l1-4 1-2 1-2 1-2 1 2 1-2 1-2h1v-3l1 1 1-6 1 2 1 1 1-1 1 2 1 1 1-2 1 2 1 3 1 5 1-2v-3l1 1 1 3 1 3h1v1h1l1-3h1l1-1 1 1 1-1 1-2h1v-1l1 2 1-1 1 1h1v-1l1 4 1-1 1 2 1 2v-1l1-7 1-5 1 2 1-7V6l1-3 1-3 1 1 1 4v6l1 3 1 1 1 2 1 12v1l1-3 1-1 1 3h1v1l1 3"/></svg>