<svg xmlns="http://www.w3.org/2000/svg" width="135" height="50"><path fill="none" stroke="#ed5565" stroke-width="1" d="m0 27 1 3 1-2 1 6 1-4 1-11 1 4 1 4 1 1 1 1 2-4 1-6 1 2 1 5 1 6 1 4 1-1 1-1 1 1 1-1 1 4 1 1 1 3 1-4 1 1 1-11 1-5 1 7 2-4h1l1-1 1-1 1 6 1 3 1-3 1-3 1 2h2l1 2 1 3 1-4 1-1 1 2 1 10 1 2 2-10 1-3 1-1 1 2 1-4 1 1 1-10 1 5 1 6 1 2 1 4 1 2 1 2h1l1-11 1-6 1 2 1 1h1l2-9 1-5 1-6 1-5 1 11 1-1 1 2h5l1 11h1l1 14h1l1-2 1-5 2 2 1 4h1l1-3 1 1h1l1-10h3l1 2h2l1 1 1 1 1 2 1-4 1 1h4l1-1 1 1 1 5 1-3 1-3h1l1 2 1 1 1-2 1 1 1-1h1l1-1 1 4 1 1h3l1 8 1-2h1l1 1h1l1 2 1 10"/></svg>