<svg xmlns="http://www.w3.org/2000/svg" width="135" height="50"><path fill="none" stroke="#ed5565" stroke-width="1" d="m0 3 1 1h1v2l1 4 1 3 1-3 1-5v1l1-1 1 3h2V5h1l1-5 1 1 1 1v5l1-1 1-1h1l1-1v2l1 2 1 2 1-1 1 1 1-1 1-3h1l1 1v1l1 4h1l1-4 1 4V9l1 2 1-1 1-2 1 1v2h1l1 2 1-2 1-2V7h1l1 2 1 2 1-4v2l1 1 1-1 1 1 1 1h1l1-1 1 1h1v-1l1 3 1 2 1-1h1v-3l1-2 1-4h1l1-3v4l1-1 1 5h1l1 2v1l1-2 1 2h1l1-3V9l1-2 1 3h1v3l1-2h2l1 1v1l1 1h1l1 2h1v-1h1l1 2 1-1 1-2v-1l1 1 1 2 1-2 1-2V9h1l1-1 1 1 1 3v-2h1l1 2h1l1-1 1 1 1 5 1 2 1-2 1 1 1 1h2l1-1 1-2h1l1-1h1l1-2 1-2h1l1 3 1-1h2l1 2h1l1 1 1 2v-1l1-2h1l1 4 1 1v-2l1 3 1-1h1l1 1v7l1 1 1 3 1 1 1 17v-1l1-6 1-1 1 1 1 1v1l1 4"/></svg>