<svg xmlns="http://www.w3.org/2000/svg" width="135" height="50"><path fill="none" stroke="#ed5565" stroke-width="1" d="m0 30 1-1h1v1l1 3 1 8 1-4 1-7v-1l1-3 1 2 1-8 1 4v3l1-1 1-5 1 3h1v3l1 2 1-1 1-2 1 6 1 1h1l1-6 1 3v2l1-1 1-2h1l1 3v2l1 1 1-1 1-3 1 5v3l1 6 1 3 1-3h1v4l1-1 1 2 1-4 1-4 1-4 1 5 1 3 1-15v7l1-8 1 4 1 1 1-1v-4l1 2 1 2 1-1 1-2V9l1 16h1l1 10 1-4v3l1-2 1-1 1 5 1-1v-1l1-1 1 5h1l1-2v-4l1-4 1-2 1 6 1-2 1 1 1 1 1-1v-2l1-2 1 1 1 1h1v2h2l1 3 1-2v-5l1 1 1-6 1 5 1-1v-2l1 2 1 1 1 2 1-10V0l1 9 1 1 1-5 1 11v-2l1-1 1 1 1 4 1-1v1l1 7 1 8 1 2 1-1v-6l1 3 1-1 1 4 1-5v1l1-1 1 2 1-3 1-1v-3l1 4 1-2 1-1 1-14v14l1 4h1l1-2 1 1v-1h1l1 2 1-1 1 3v1l1-11 1-2 1 3 1 1v-2l1 1 1-2 1-2h1v10l1-2h1l1 2 1 11v4l1-5 1-2 1 3 1 1v2l1-10"/></svg>