<svg xmlns="http://www.w3.org/2000/svg" width="135" height="50"><path fill="none" stroke="#57bd0f" stroke-width="1" d="m0 49 1-2 1 3v-2l1-29 1 13h1l1-9v11l1 3 1-7 1 5 1 2v-5h2l1 1h1v-1h1l1 1 1 1 1-2v-1h2l1-1 1 2v2l1 2 1 3 1 1 1-2v-2l1 1h1l1-2 1 3v2l1-1 1 1 1 3 1-7 1-3 1 2 1 1 1-5v-1l1 5 1 2h1l1 1 1-2 1-1 1-12 1 2v1l1-7h1l1 2 1-1v-2l1-3h1l1 2 1 3v1l1-2 1 1 1 1 1-2 1-10 1 5 1-3 1 4v1l1-3 1 4 1 1 1-2v-3h1l1-7 1 7v4l1 1h1l1-1 1 3v-1h1l1-1 1 5 1 1v5l1-3 1 3 1-2 1-2v1l1-2h1l1-2 1-6v2h1l1-1h1l1-1v6l1-6 1 2h1l1-2v1l1-2 1-9 1-6h1v5l1 3 1 2h2v2l1 3 1-4 1 1h1l1-2 1 7 1 2 1-1 1 1 1-4 1-3 1 3v-5l1-1h2l1 6v1l1 2 1-4 1 3 1-2v-1h1l1-1h1l1-4v1l1 3h1l1 5 1 6v1l1-5 1-2 1 2 1 3v1l1 2"/></svg>