<svg xmlns="http://www.w3.org/2000/svg" width="135" height="50"><path fill="none" stroke="#57bd0f" stroke-width="1" d="m0 43 1 1 1 1v1l1 4h1l1-4 1-2 1-1 1 2 1-1h1v-1l1-2 1 1h2v3l1-1 1-1 1 4h1v-1l1 2 1 2 1-5 1-2 1-1 1-4 1-1 1 1 1 4 1-3 1-4 1 5v-3l1 4 1 1 1-3 1-3 1 1 1 1 1-1 1 2 1-2h1l1 1 1-5v4l1 1h1l1 2h1v-2h1l1-1 1-3 1-2v-1l1 2h1l1 1 1-1v1l1-1 1-7 1-1 1-4v6l1 6 1-3h1l1 1v-8l1 1 1-3h1l1-6v-1l1-5 1-5 1 2v6l1-6 1-1 1 2 1 1v1l1-1 1 2 1-3h1v4l1-3 1 1 1-1 1-3v2l1 2h2l1-2V5l1 1 1-6 1 3 1 3V3l1-2 1 2h1l1 1v4l1 3 1 6 1 1 1-1v-3l1 1 1-2 1 1 1-1v-1l1-6 1-1 1 1 1-1V4l1 2 1 2 1-3h1v1l1 1h1l1 2 1-1V7h1l1 1h1l1 5v-3l1-2 1-2 1 2 1-2V5l1 1 1-1 1-2 1 1v3l1 4h1l1-1 1 9v-5l1-3h1l1 1 1 3v3l1 3"/></svg>