<svg xmlns="http://www.w3.org/2000/svg" width="135" height="50"><path fill="none" stroke="#57bd0f" stroke-width="1" d="m0 34 1 6 1 3 1 1 1 5h1l1-4v1l1 2 1 1 1-1 1-1v-1h1l1-6h1l1-1v3h1l1 3 1-1 1 1v1l1 1 1 2 1-1 1 2 1-1h1l1-2 1 1 1 1 1 1 1-4 1 2v-1l1 2 1 1 1-2 1 1 1-20 1-17 1 18h1l1-1 1 5 1 1 1-3v5l1-1 1 2 1 1 1 2v-2l1 1h3v1l1 4 1 2h2v-2l1-1 1-3h1l1 1h1l1 3h1l1 1v-3l1-1 1 1 1-1h1v-2l1-1 1 1 1-1v-1l1-2 1 2 1-1 1 2 1 1 1-2 1 3 1 2v-3h3l1-2v-2h1l1 1 1-1 1-3v1l1 1 1-2h1l1 3v-1l1-1 1 2 1-1 1-1v-3l1 1 1 4h1l1-2 1 2 1-1 1 1 1-1v-2h2l1 1 1-1v-1h1l1-3h1l1-7v3l1-3 1-9 1 4 1-1v-3l1-7 1-3 1 2h1v2h1l1-7 1 8 1 2V9l1-1 1-1 1-2 1 1v8l1-2 1-4 1-2 1 18 1-4 1-4 1 7 1 2 1 2"/></svg>