<svg xmlns="http://www.w3.org/2000/svg" width="135" height="50"><path fill="none" stroke="#57bd0f" stroke-width="1" d="M0 46h1l1 1 1 1 1 2 1-1 1-2v-1l1-1 1 2h2v-3l1 1 1-3h1l1 1v2l1-1h2l1 1 1 1 1 1h2l1-1h1l1 1h1v1l1 2 1-2 1-1 1 2v-1l1 1h1l1-1h1v1h1l1-1h1l1-2h1l1 1 1 1 1-2v1l1-2h2l1-1 1 1h2l1-3V7l1-2 1-1 1 18 1-7v1l1-6 1-10 1 9 1-5v1l1 4 1 6 1-2 1 1V8l1 3 1 2 1-4 1-1v1l1-2 1-5 1 8V8l1-1 1 4 1 1h1v1l1-4 1 2 1 2 1 2v2h1l1 3 1-2 1-1v-1l1-1 1 3h1l1-2v1l1 1 1-4 1 3 1 6v1l1-1 1-1 1 2 1 1h1l1 1 1 4 1-1v-1l1-1 1-3 1 3 1 1v-3h1l1-2 1 3h1v-3h1l1 2h1l1 1v1h1l1 1 1-2h1l1-1 1-1 1 2 1 1v1l1-1h1l1 1 1-1v-1l1 1h2l1 1v4l1-2 1 1h1l1 9v-3h4l1 3"/></svg>