<svg xmlns="http://www.w3.org/2000/svg" width="135" height="50"><path fill="none" stroke="#57bd0f" stroke-width="1" d="m0 45 1-1 1 1v2h1l1 3 1-2 1-1v-1l1-1h1l1-1h1v-2l1-4 1-5 1 1 1-4v2l1 3 1-6h1l1 1v3l1-1 1 2 1-6 1 12v-5l1-1 1-1 1-1h1l1 4 1-1 1-1 1 4v-2h3l1-1v1h1l1 1 1-1 1-3v-2h1l1 1 1-1h1v1h1l1-1 1 1 1-1h2l1-1 1 2v-1l1 4 1 1 1 2 1-1v1l1 1 1-2h2v1l1 1 1 3 1-2h1v-1l1-3 1 1 1 1 1-2v3l1-2 1 3 1-1v1l1-2 1 2 1-1 1 2h1l1 1 1-1 1 1 1-2 1-1 1-3h1l1 1 1-1 1 1 1-1v-2l1 1 1-3 1 3 1 1v-1l1-1h1l1 2 1-1v1l1 2 1 2 1 1 1-2h2l1 1h1l1-1h2l1-1 1 1 1-2 1-13 1-6V0l1 3 1 14 1 4 1 1v-3l1 6 1-4 1 6 1 1v1l1-1 1 2h1l1 2v-1l1 1h2l1-1v6l1 3 1-1 1 1 1 1v-1l1-1h2l1 2 1 3"/></svg>