<svg xmlns="http://www.w3.org/2000/svg" width="135" height="50"><path fill="none" stroke="#ed5565" stroke-width="1" d="m0 3 1-2 1 3V0l1 9 1 3 1-4 1 2v1l1-2 1 2 1 1 1-3 1 4 1-3 1-1 1 2v5l1-1h1l1 1h1l1 2 1 2 1-6 1 3v7l1-1 1 1 1-2h1v3l1-1 1 1 1-4 1 6v-1l1 2 1 1 1-3 1-1v2l1-1 1-1 1-4 1-1v-1l1-2 1 4h1l1-4v3l1-6 1 4 1 3 1 1v-1l1-1 1-1 1-1h1v1l1 3 1-2 1 3 1-3v1l1 2 1-5 1 2 1-1v-2h1l1 5h1l1 6V14l1 5h1l1-2 1-3v-1l1-1 1 2 1 1v-1l1-3 1 2h2v5l1 1 1 1 1 3 1 1v-1l1-8 1-1 1 2 1-2v1l1 1h1l1-4 1 5v7l1-2 1-7 1 4 1 2v-1l1-5 1 2 1 1h1v4h1l1 3 1-4 1-2v-5l1 3 1 1 1 2 1 3v1l1-3 1 1 1 1 1-4 1 1 1-1 1 4h1l1 1 1-1h1l1 3v-1l1 1h1l1 1h1l1-1h1l1 2 1-2v-1l1 1h1l1 2h1l1-1 1 1h1l1 10v1h1l1-9 1 7 1 2v6l1 5"/></svg>