<svg xmlns="http://www.w3.org/2000/svg" width="135" height="50"><path fill="none" stroke="#57bd0f" stroke-width="1" d="M0 43h1l1 2 1 3 1 1 1-5 1-5 1 1h1l1-2h1v1h1l1-6h1l1 1v6l1-1 1 3 1 2h1v2l1 2 1 2 1-5 1 1v-1h1l1-7 1 2 1 1v2l1 4h1l1-6 1 2v-5l1 5 1 2 1 1 1-4h2l1-2 1-3v-1h1l1 3h1l1-9v1h2l1-1 1 2v-6l1 2 1-1 1-2 1-1v-3l1 5 1 7 1 3 1-4v-3l1 1 1-8 1 4 1-2v1l1 2 1 3 1 6 1-1v-7l1-8 1 1 1 1 1-1v2l1-5 1-3 1-1v3l1-1 1-1h1l1 7v-4l1 4h1l1-4 1 5v-2l1-12 1 7 1-1 1-5v2l1 1 1 2 1-3 1-2V6l1 2 1-7 1 3 1 6V7l1-5 1-2 1 4 1-1 1 3 1 12 1 1 1-5v2l1 6 1-3 1 3 1-4 1-3 1-3h1l1-1V9l1 2 1-1h1l1 1v1l1 2 1 1 1 2h1v1l1 1 1 1 1 1 1 2v-1l1-10 1-6 1 3h1V7l1-1h1l1-2h1v9l1 2h2l1 15 1-9 1-3 1 8 1-2v5l1 2"/></svg>