<svg xmlns="http://www.w3.org/2000/svg" width="135" height="50"><path fill="none" stroke="#ed5565" stroke-width="1" d="m0 6 1 2 1 6v7l1-7 1 3 1 5L6 9v5L7 3l1 23L9 2l1-2v13l1 5 1-3 1-4h1v4h1l1 1 1 3 1-3v2h1l1-1 1 1 1 2v-6l1 2 1 1 1-3h1v-1l1-1 1-2 1-8 1 12v3l1-17 1 17h2l1-2 1 4 1-5 1 8v-4l1-2 1 8 1-2 1 1h1l1-1 1-1 1 2 1-2 1-4 1-1 1 1v-4h1l1-3 1 23 1 1v10l1-23 1 4 1-6 1 15v-4l1 9 1 5 1-9 1-1v-5l1 2 1-3 1 9 1-8v-9l1 18 1-10 1 6V20l1 15 1-15 1 1 1-3v2l1 7 1-10h1l1 2v-1h1l1 3 1 6 1-8v6l1 1 1-9 1 4 1 5v1h1l1-7 1-6 1-4v6l1 2 1-4h2v4l1 4 1 1 1 2 1-1 1-11 1 10 1 24 1-23v4l1-1 1 1h1l1-1v1h1l1-4 1 3 1-3V9l1 25 1-1 1-2 1 7v12l1-8 1-8 1-1 1 1v-4l1 4 1-4 1 2 1-3V16l1 13 1 1 1-2 1 20V32l1 2h1l1 7 1-3v-2l1-2h1l1 2 1 6V28l1-1"/></svg>