<svg xmlns="http://www.w3.org/2000/svg" width="135" height="50"><path fill="none" stroke="#57bd0f" stroke-width="1" d="m0 44 1-1 1 5v-1h1l1 3 1-3 1-3v-1l1-2 1 3 1-1 1-1v-3l1 2 1-3 1-6 1 1v7h1l1-2 1 2 1 2v-1l1 1 1 2 1-2h1l1 2 1-3 1 1 1-1v3l1 3 1 1 1-4 1 4v-1l1-1h1l1-1 1 1v1h2l1-2 1-1v-2l1-1 1 2h1l1-2v1l1-1h1l1 2 1 2v-2l1-1h1l1-2 1-2 1 3 1 2h1l1-2v-1l1-1 1-1h2v1l1-1 1 3h2v-3l1-2 1 1h1l1-3v-1l1-2h1l1-1v-4l1-2 1-5 1-3 1 8h1l1 1 1 5 1-1v-3l1-4 1-4 1 2 1-4v-6l1 2 1 3 1-1 1 1v-4l1-2 1-4 1 5 1-1v1l1-2 1-5 1 6 1 4v-3l1 2 1 5 1 1 1-1v-1l1-1h1l1 1 1 1v5l1-2 1-2 1-1 1-1h1l1-3 1-3h1v1l1 2h2l1 3 1 1h1l1 2 1 1v-2l1-3 1-1h1l1-4V8l1 1 1-1 1-2 1-1V0l1 9h1l1-1 1 6 1-5 1-1 1 1 1-1v7l1-5"/></svg>