<svg xmlns="http://www.w3.org/2000/svg" width="135" height="50"><path fill="none" stroke="#ed5565" stroke-width="1" d="m0 29 1 2 1 2v-4l1 7 1 7 1-4 1-8v-4l1-4 1 4 1-2 1 1v-5l1 2 1-6h1l1-4v8l1-1 1-2 1 2 1 1v4l1 5 1 6 1-7 1 4v3l1-3 1-6 1 1 1 1v4l1 10 1-2 1-10 1 8v-7h1l1-2 1-1 1-1v4h1l1-4h1l1-3h1l1 1 1 4 1-10v7l1-3 1-3 1-1 1 3v-1h1l1-5 1-1 1-5v2l1 6 1-13 1 25h1v-4l1-9 1 4 1-1 1 1 1-2 1 11 1 1 1 6V21l1 5 1 5h1l1-9 1-4 1 7 1-6v3l1-5 1 1 1 3 1 5v1l1 5 1 1 1 3 1 2v-3l1-7h1l1-1 1-4v1l1 1 1-4 1-2 1-3V5l1 2 1-7 1 10 1 1v-1l1-3 1 1 1 2h1v2l1 5 1 8 1 3 1-4v-2l1 4 1-2 1 4 1-1v-2l1-3 1-3 1 1 1-5v-1l1 1 1-4 1-1 1 1v2l1 7 1-2 1 1h1v1l1 2 1-3 1 4 1 2v1l1-3 1 1 1 1 1 1v-4l1 3 1-7 1 3 1 3v4l1 3 1-1 1 2 1 15v-4l1-9 1 2 1 4h1l1 10"/></svg>