<svg xmlns="http://www.w3.org/2000/svg" width="135" height="50"><path fill="none" stroke="#ed5565" stroke-width="1" d="M0 6h1l1 5v-1l1 2 1 8 1-4 1-6v3l1 3 1 6 1-1 1-4v-4l1 2 1-10 1 1h1v8h2l1-2 1 8v3l1 1 1 4 1-7 1 4v3l1 1 1 3 1-2 1 2v4l1 4 1-5 1-7 1 4 1 4 1-5 1-3 1-4v-8l1-3 1 2 1-6 1-1v1l1 6 1 7 1-6 1-9v3l1-4 1 2 1 3 1 5v-3l1-1 1 2 1 1 1-1v-1l1 6 1 4 1 2 1-6v2l1-2 1-1 1-1 1-3v2l1-3 1 10 1 2 1 2v-7l1 3 1 2 1 3 1-8v-1h2l1-2v2l1-5 1 3 1-2 1 1v4l1 3 1-4 1 4 1 4v5l1-3 1-1 1-1 1-4v-3l1 4 1-4 1-6 1 1V8l1 2 1-10 1 2 1 7V4l1-4 1 4 1-1h1v8l1 5 1 5 1 1h1v-2l1 4h1l1 1 1 2 1-5 1-1 1-1 1 2v-2l1 1 1-2 1-1 1 2v-2l1 4 1-3 1 3 1 2v-3l1 1 1-1 1 2h1v-1l1-5h1l1 5 1 3v-5l1 1 1-1h1l1 2v6l1-2 1 7 1-3 1 13v1l1-8h1l1-3 1 2v2l1 13"/></svg>