<svg xmlns="http://www.w3.org/2000/svg" width="135" height="50"><path fill="none" stroke="#ed5565" stroke-width="1" d="m0 28 1-2 1 4v-2l1 2 1 6 1-3 1-2v-2l1 2 1 5h1l1-3v-3l1 1 1-9 1-1 1 2v5l1-1 1-2 1-5 1 1v1l1 4 1 5 1-2 1 2v4l1-4 1-6 1 1 1 3v1l1 3 1 1 1-6 1 4v-5l1 6 1-1 1-6 1-2v2l1-2h1l1-5 1-3v1h1l1 3 1-1 1-5v2l1-1 1-1 1 2 1 1v-2l1 5 1-5 1 2 1-2V8l1 5 1 7 1 2 1-3v1l1-5 1-2 1 1 1-3v1l1-2 1 8 1-1 1 2v-1h1l1-4 1-1 1-13 1 2 1 5 1 1 1-3 1 6 1 2 1 1v2l1 5 1 2 1 2h1v2l1-3h1l1-2 1-3v-1l1 2 1-1 1-2 1-6V8l1 2 1-4 1 3 1 5v-2l1-3 1 5 1-1 1 1 1 4 1 8 1 1 1-5v3l1-1 1 2 1-3 1-2 1-2 1-1 1 3 1-1 1 3h2l1 2 1 1 1-2 1-2 1 1v-1h1l1-2 1 5h1l1-4 1-4 1 1 1-3 1 2 1-1 1-1 1 2 1 2h1l1 3 1 28v-9l1-6 1 1 1 6h1v4l1 2"/></svg>