<svg xmlns="http://www.w3.org/2000/svg" width="135" height="50"><path fill="none" stroke="#ed5565" stroke-width="1" d="m0 19 1-1 1 3v1l1 3 1 5 1-4 1-7v-2l1-1 1 5 1-1 1-3 1 2 1-7 1 1h1v6l1-2h1l1-1 1 2v2l1 2 1 4 1-4 1 1h1l1-2 1 1 1 3v2l1 3 1-2 1-7 1 5v1l1 2h1l1-3 1-2v4l1-1h1l1-4 1-2v-3h1l1 3 1-1 1-5v4l1-3h3v-4l1 2 1-1 1 2 1-2V0l1 4 1 3 1 9 1-3v-1l1-1 1-5 1 1 1 2 1-1 1 10 1 3 1 3v-6l1 3 1 4 1 1 1-6v1l1-1 1-3 1 1v1l1-5 1 3h1l1 2 1 3h1l1 3h1v-6h1l1 1h1l1-4v-1l1 2 1 1 1-3 1-2V7l1 4 1-6 1 4 1 2V8l1-2 1 3h2v1l1 6 1 7 1 2 1-4v-1l1 3 1 4 1 1 1-1 1-2 1 1 1-1 1-2v-1l1 2 1-1 1-1h1v-1l1 3 1-2 1-1 1-1v1h1l1-1 1 1 1 4v-1l1-4 1 1 1 2 1 1v-2h1l1-1 1-1h1v3l1 4h1l1 2 1 18v-3l1-2h1l1 1 1 1v3l1 3"/></svg>