<svg xmlns="http://www.w3.org/2000/svg" width="135" height="50"><path fill="none" stroke="#ed5565" stroke-width="1" d="m0 10 1 1 1 2v3l1 1 1 6 1-8 1-1v-3l1-1 1 4 1 1h1l1 1 1-11 1 3 1 2v5l1-2 1-3 1-3 1 1 1 8 1 3h1l1 3v3l1-2 1-7 1-5 1 7v4l1 7 1-2 1-10 1 2 1 7 1-3 1-1 1-2v2l1-3 1 2 1-7 1-1v-2l1-1 1 2h1l1-2v8l1-1 1-1 1 5 1 2v-4l1-3 1 1 1 1 1 1v-3l1 3 1 2 1 1 1-1v1l1-1 1 1 1 1 1-2v2l1-4 1 9 1-2h1v-9l1 8 1 1 1-1 1-8v-1l1-3 1 1 1-3 1-1 1 4 1 1 1 2 1 3 1-4 1 1 1 4v1l1-4 1-2 1 3 1-3v-3l1 1 1-2 1 2 1-2V7l1 1 1-8 1 5 1 1V3l1-2 1 4 1 1 1 1v1l1 3 1 10 1 2h1v-1l1 2 1 3 1-4 1-5v4l1-1 1 1h1l1-3v-1l1 3 1-2h2v-2l1 1 1-5 1 2 1-1v-1h2l1 3 1 1v-2h1l1 2 1 3h1v-1l1 1 1 1 1-1 1 2v5l1 1 1-1 1 2 1 14v-3l1-1 1-2 1-2 1 2v7l1 6"/></svg>