<svg xmlns="http://www.w3.org/2000/svg" width="135" height="50"><path fill="none" stroke="#57bd0f" stroke-width="1" d="m0 42 1 1h1v-1l1 2 1 6 1-3 1-5v-2l1-2 1 4h1l1-2v-4l1-2 1-5 1 1 1 2v6h2l1-1 1 2v1l1 4 1 2 1-3 1 3 1 1 1-2 1-1 1 1 1 1h1l1-5 1 6h1l1-1 1-3 1-3v2l1-2 1 1 1-3 1-4 1-2 1 1 1 2 1-9v4l1-4 1-2h1l1-1v-2l1-1h1l1-3 1-2v-5l1 5 1 2 1 4 1-4v-1h1l1-3 1 1 1-2v2l1-2 1 5h1l1 3v-4l1-4 1 2h1l1-1v1l1-2 1 2 1 1 1-4 1 2 1 1 1 4v1l1 1h1l1 1 1 2 1-1 1-2 1-2 1-3v-1l1 2h1l1-2 1-1V8l1-1 1-2 1 6 1 4v-2l1-3 1 2 1 2 1-2 1 1 1 7h1l1-4v-6l1-1 1-2 1 2 1-3v4l1 1 1-4h1l1-1V5l1 3 1-6h1l1-1V0l1 6 1-1 1 1 1 2v1l1 1 1 1 1 2 1 2v1l1-3 1-1 1 3 1 1v-2l1 1h2l1 1v5l1 2h2l1 13v-4l1-4h1l1 3h1v2l1 3"/></svg>