<svg xmlns="http://www.w3.org/2000/svg" width="135" height="50"><path fill="none" stroke="#ed5565" stroke-width="1" d="m0 14 1-3 1 3 1 4 1 5 1-3 1-5v-2h1l1 2h1l1-4 1-1 1-2 1 2 1-1v5l1-3h1l1-1 1-1v2l1-1 1 2 1-1 1 1v2h1l1-1 1-3 1 3 1 5h1l1-7 1 3v1h1l1-1 1-3 1-1v3l1-1 1 1h1l1-1v-2l1-2 1 1h1l1-9v2l1 1 1-2 1 4 1 1V5l1 3h1l1 3 1 3v-3l1 4 1 1 1 2 1-2h1l1 1 1 1 1-1v1h1l1 8 1 2 1-1v-9l1 1 1 3 1 2 1-3v1l1-2 1 1 1-1v2l1-3 1 3 1-1 1 2v-1h2l1 1 1 1 1-2h1l1-1 1-2v-1h1l1 1 1-2 1-3v-1l1 3 1-5 1 4 1 3v-2h1l1 1 1-2 1 2v-2h1l1 8 1 1h1v-2l1 1 1 1 1 2h1v1l1-1 1-3 1 1h1v-2l1 2 1-1 1-2h1v-1l1 3 1-2h1l1-1h1l1-2 1 2 1-1v1l1-2 1 1 1 3h1v1l1 1h1l1-1 1 2v4l1 2h2l1 19v-2l1-7 1-1h1l1 2v3l1 5"/></svg>