<svg xmlns="http://www.w3.org/2000/svg" width="135" height="50"><path fill="none" stroke="#ed5565" stroke-width="1" d="m0 9 1-3 1 2V7l1 3 1 4 1-1 1-4v2l1 1 1 1 1 1 1-1v-3l1 1 1-5h1l1 1v3l1 2 1 1 1 1 1-1v1l1-5 1 2 1-1 1 2v8l1-20 1 10 1 4 1-2v1h1l1-4 1 1 1 3v-2l1 3h3v3h2l1 1h1v1l1-5 1 3 1-1 1-5v3l1-2 1 2 1-2 1 6v-2h1l1 3h1l1-1v-2l1 3 1-1 1 2 1-1h1l1-1 1-5 1 3v-2l1-6 1 7 1 2 1 2 1-4 1 4h1l1-2 1-3 1 1 1 2 1-1 1-1h2v2h2l1 3 1-1h2l1-4 1 1v-1l1 4 1-2 1 1 1-3v-2l1 3 1-3 1 2 1 3 1-2 1 2 1-3h1v-2l1 2 1 3h2v-4l1 1 1 4h1l1-1v1h1l1-2h1l1 2v-1l1 1 1-3 1 1h1v2l1 1 1 1 1-1 1-1 1-1 1-6 1-2 1 7 1-2h1l1-1 1 3 1 1 1 1h1l1 1 1 2h2l1 9v2l1-4 1 4 1 3 1-6v1l1 19"/></svg>