<svg xmlns="http://www.w3.org/2000/svg" width="135" height="50"><path fill="none" stroke="#ed5565" stroke-width="1" d="m0 26 1-1 1 6v-7l1 1 1-3 1 9 1-4v-3l1-4 1 5 1-5 1-1v3l1 4 1-3 1-3 1 2v-4l1 13 1-9 1 6 1 1v-4l1 6 1 19 1-22 1-5v9l1-10 1 15 1-6 1-1v2l1-4 1 11 1-4 1-10v13l1 5 1-4 1-2 1-12v12l1-4 1 6 1-10 1 11V30l1 16 1-14 1 7 1-5v-7l1 6h1l1 4 1-6 1 1h1l1 4 1-2 1-2 1-2 1-5 1 9v6l1-5 1 2h1l1 1v-6l1 4 1-4 1 3 1 7v-5l1-3 1 2 1-5 1-1v1l1-1 1-4 1 20V35l1-9 1 3 1 6 1-4v8h1l1-4h2v-1l1-1 1 2 1-1 1-1V22h1l1 5 1 2 1-5v-4l1-15 1 1 1 4 1-3V5l1-2 1-3 1 7 1-2v2l1 11 1-5 1 14 1-17v4l1-2 1 1h1l1 3v-2l1-1 1 5 1-7 1 6v-5h1l1 5 1-3 1 11v-1l1-5 1 17 1 1 1-5v-3h2l1 4h1v4l1-2 1-2 1-1 1 4v-7h1l1 20 1-12 1-2 1-4 1 2h1l1-1v-2l1 9 1-7 1 1 1 1v8l1 3"/></svg>