<svg xmlns="http://www.w3.org/2000/svg" width="135" height="50"><path fill="none" stroke="#ed5565" stroke-width="1" d="m0 0 1 2 1 4v5l1 5 1 6 1-4 1-6 1-2 1 3h1l1 1v4l1 1 1-4 1 2 1-3h1l1-2h2v2l1 4 1 2h1l1 3v1l1 4 1-4h1l1 1v1l1 5 1-3h1l1 6 1-1h1l1-5 1-1h1l1 1 1-1 1-2v-2h1l1 2 1-2 1 3v3l1-3 1-2 1 1h1v-6l1 2 1-3 1 3h1v2l1 1 1 1 1 2 1 1v-2l1 1 1-2 1 1 1-1v2h1l1 2h1l1 1v-2l1-2 1 2h1l1-3v1l1-1 1-1 1 1v1l1-3 1 1 1 1 1 1 1-1 1 1 1 2 1 1 1-2h2l1-1h1l1 2 1-2 1-2 1 1 1-3 1 4 1 1v-1l1-1 1 2h1l1-1v1h1l1 2 1 1 1-2h2l1 1h1l1-1h1l1-1 1-1v1l1 1 1-3 1-2 1 1v1l1 1h1l1 1h1v-1l1 1h1l1 1h1v-1l1-1h1l1 2 1-1v-1h3l1 1v2h2l1 1 1 15v1l1-4 1 1h1l1 1v2l1 4"/></svg>