<svg xmlns="http://www.w3.org/2000/svg" width="135" height="50"><path fill="none" stroke="#ed5565" stroke-width="1" d="m0 13 1-3 1 5v-1l1-1 1 8 1-2 1-3h1l1 2 1 2 1-4v-2l1 1 1-6h2v6h1l1-2 1-3h1l1 6 1 2 1-5 1 3v1l1 3 1-3 1-2 1 1v1l1 5 1-5 1-6 1 4v4l1 5 1 8 1-1 1 3v4l1-1 1-3 1-2h1v1l1-1 1 1 1-3 1-4v3l1-3 1-3 1 3 1 1v-4h2l1 1 1-1v-4l1 4 1 1 1 2 1-4v3l1-3 1-6 1-2 1-1v1l1-1 1 7 1-2 1-1v-2l1 1h1l1-2 1-4v2l1-2 1 1 1 3v-4l1-4 1 2 1-1h1V6l1 5h1l1 3 1 1v2l1-3 1-1 1-1 1-2 1 2h1l1-1 1-4V0l1 8 1-1 1 6 1 3v-6l1-1 1 4 1-2 1 1v2l1 4 1 10 1-2 1-4 1 1 1 2 1-1 1-2v1l1-3 1 2 1 2h1v1l1 1 1-2 1 2 1 1v-2l1 4h1l1-2 1 2 1-1 1 2 1 1 1 2v-1l1-1 1-2 1 1h1v-2l1 2h1l1-1 1 3v6l1 1 1-2 1 1 1 9v-1l1-3h1l1 2 1 1v4h1"/></svg>