<svg xmlns="http://www.w3.org/2000/svg" width="135" height="50"><path fill="none" stroke="#ed5565" stroke-width="1" d="M0 13h1l1 1v1l1 2 1 2 1-1 1-3 1-1 1 4h1l1-2v-1h1l1-6 1 1 1 1v5l1-1 1-4 1 1 1 1v1l1 3 1 2 1-3 1 1v1l1 1 1-3 1 2 1 1v1l1 7 1-1 1-4 1 4v1l1 1h1l1-2 1-2v1l1-2h1l1-3 1-2h1l1 1 1-2 1-4v4l1-2h1l1 2h1v-5l1 2h1l1-1h1v-2l1 2 1 2 1 2 1-1v1l1-2 1-2 1 2h1l1-3 1 5 1-1h1l1-3 1 2h1l1-3v-1l1 1h2v-1l1-3 1 3h4l1 3 1 3 1-3 1 1h1l1-3v-1l1 1 1-2 1-1 1-5V2l1 1 1-3 1 5 1 1V3l1-1 1 2h1l1-1v1l1 5 1 4h1l1-2h1l1 3 1 2 1-1v1l1-2 1 2 1-1 1-1 1 3 1-2h1l1 1v-1l1 2 1-1h5l1 2 1-1h1l1 1h1v-1l1 1h2l1 2v4l1 7h1l1 2 1 17v-6l1-5 1 1 1 2h1v2l1-5"/></svg>