<svg xmlns="http://www.w3.org/2000/svg" width="135" height="50"><path fill="none" stroke="#ed5565" stroke-width="1" d="M0 29h1l1 4v-1l1 6 1 2 1-2 1-6v2h3l1 2v-3l1 1 1-6 1-6h1v8h1l1-2 1-3 1 2v4l1 2 1 3 1-15 1 5v4l1-1 1-3 1-3h1v6l1 3h1l1-6 1 6v-3l1 8h1l1-3 1-2 1 3 1-2 1-5 1-3v-2l1 2 1 3 1 1 1-9v3l1 1 1-3 1 3 1 4h1l1-2 1 1 1-3v-1l1 3 1 1 1 6 1-3 1-4 1-1 1 3 1-2v-1h1l1 6 1 3 1 7v-6l1-9 1-1 1 2 1 3v-1h1l1 1 1 2v-1l1-4h1l1-2h1l1 2 1-4 1 4 1 6v1l1-5h1l1-3 1-1v-1h1l1 1 1-4 1-12V3l1 5 1-8 1 6 1 3V2l1-1 1 3 1 2 1 1v2l1 6 1 13 1-1h1v-4l1 6h1l1 2 1-2v2l1-4 1-2h1l1 1v-2l1 1 1-3 1-2 1 1v1l1 1 1-1 1-3 1 1v-1l1 1 1-2 1 2 1 2v-2l1-2h1l1 2 1 4v1h1l1 3 1-2 1 2v5l1-3 1 1 1 2 1 10v-3l1-4 1-1 1 11h1v4l1-3"/></svg>