<svg xmlns="http://www.w3.org/2000/svg" width="135" height="50"><path fill="none" stroke="#ed5565" stroke-width="1" d="m0 40 1 2 1 2h1l1 6 1-5 1-4v-1l1-1 1 1 1 1 1-1v-2h1l1-6 1 2 1-2v6l1-5 1-2 1 1 1 2v2l1 3 1 4 1-4 1 4v2l1-1 1-2h2v1l1 4 1-2 1-3 1 3v-2l1 4 1-1 1-4 1-3v2l1-4h1l1-6 1 1v-2h1l1 2h1l1-5v3l1-2h1l1 2h1v-1l1 2 1-2 1 2 1-3v-1l1 4 1 2 1 3 1-4v1l1-2 1-1h1l1 2v3l1-1 1 8 1-1 1 1v-6l1 2 1 1 1 1 1-4v-1l1-1 1 1 1-1v-1l1-4 1 1 1 1 1 1h1l1-2 1 2 1 6v-3l1-1h2l1-5v-2l1-1 1 1 1-3 1-2v-8l1 2 1-6 1 4 1 3v-4l1-4 1 6 1-6 1-9v5l1 6 1 6 1 3 1-2v-1l1 1h1l1 2 1-3v1l1-3 1-3 1 1h1v-2l1 2 1-3h1l1 1v-1l1 3 1-2 1 1h1v-1l1 1h1l1 3 1 3v-3l1-3h1l1 2 1 3v-3l1 4 1-2 1-1 1 1v6l1 1h2l1 21v-3l1-7h1l1 2 1 2v4l1 5"/></svg>