<svg xmlns="http://www.w3.org/2000/svg" width="135" height="50"><path fill="none" stroke="#57bd0f" stroke-width="1" d="M0 41h1l1 2v3l1 2h2l1-1v1l1-1 1-4 1-2 1 1v-1h4v-1l1-1 1 5 1 1 1 1 1 2h1l1-1 1 1 1-1h1l1 1 1-1h1l1 1 1-1 1 2 1 1 1-1 1-5h1v1h1l1 1 1-2 1-1v-1l1-1h1l1-1 1-1v-1l1-2 1-3 1-4 1-1v3h1l1 2h6v-2h1l1-1 1-1 1-2v-6l1-4h1l1 9 1-1v-3l1-3h2l1-2v-2l1-4 1-5h1V5l1-2h1l1-1h1V0l1 3 1 9h1l1 4v-3l1-3h1l1 8 1 1v1l1-4h1l1-1 1 1v-2h3l1 1v2l1 3 1-3 1 1 1 2v1l1 2 1 1h2l1-1 1-2h1l1 2 1-1h1l1 2 1 2v4l1 3 1-1 1-1 1 2 1 1 1-1 1 1h1l1-1h1l1 2h1v4l1 1 1-7 1-1 1 1 1-2 1 1h5l1 2v1l1 1 1 1h2l1 4"/></svg>