<svg xmlns="http://www.w3.org/2000/svg" width="135" height="50"><path fill="none" stroke="#ed5565" stroke-width="1" d="m0 37 1 1 1-2v1l1 1 1 1h3l1-1 1 1h1v1h1l1-1h2l1-1 1-1 1-1 1 1v1h1l1-1 1 1 1-1h1l1-2h1l1 2v1l1 1 1-1h2v-1l1 2 1-1 1 1h1v-2l1 1 1-2 1 1 1-5v3l1 1 1 1h1l1 1v1h2l1-1h1l1 1h1l1-1h1l1 1h2l1-1v1h3l1-1h1l1 1 1-1h1l1 1h3v-1h2l1 1 1-1 1 1 1 1h1v-1h1l1-2 1-2 1-1 1-2 1 2 1-3h1v2l1-1h4l1-1 1 2 1-1 1-2 1 1 1 1 1-2v1l1-1h1l1 6 1-2v2h1l1 1 1-3 1-5v1h1l1 2 1 3 1 2v-1l1 1 1-2 1-5 1 1v2h1l1 2h1l1-23v-2l1 5 1 6 1-9 1-12v11l1 2h1l1-5 1 5v3l1 4 1 11 1 11 1-1v3h3l1 1v-2l1 3h1l1-3h1v1l1 6"/></svg>