<svg xmlns="http://www.w3.org/2000/svg" width="135" height="50"><path fill="none" stroke="#ed5565" stroke-width="1" d="m0 28 1-1 1 3v1l1 4 1 11 1-10 1-3v1l1-2 1 6 1-3 1-3v-3l1-3 1-9 1-7 1 4v8l1-6 1 3h1l1 4 1 4 1 5 1-6 1 3v1l1-2 1-5 1 2 1 3v2l1 12 1-5 1-7 1 2v-4l1 7 1-1 1-4h1v3l1-3 1-4 1-7 1-4v2l1-1 1 1 1-4 1-5v9l1-2 1-2 1-2h1V8l1 1 1 2h1l1-1V4l1 5 1 3 1 1 1-2v-1l1-1 1-2 1 2 1-2V6l1-4 1 8 1 1h1V7l1 3 1 2 1 1 1-7v2h1l1-2 1 3v1l1-2 1-1h1l1 6v2h1l1-1 1 2 1 3v-1l1-5 1-2 1 4 1-4v1h1l1-1 1-5 1-3V0l1 3 1-3 1 5 1 5V4l1-1 1 5 1-2 1-1v2l1 4 1 8 1 1 1-2v-5l1 5 1 1h1l1-4v4l1-1h1l1-2 1-2v-1l1 3 1-3 1-1h1v-1l1 2 1-2 1-1 1 3v-1l1-1 1-1 1 3 1-1V6l1-4 1 5h1l1 4V7l1 1 1-1 1 1 1 1v4l1-1 1-1 1 3 1 30v-5h2l1 4 1-2v3l1 6"/></svg>