<svg xmlns="http://www.w3.org/2000/svg" width="135" height="50"><path fill="none" stroke="#ed5565" stroke-width="1" d="m0 19 1-2 1 2v-3l1 3 1 5h1l1-4v-6l1-1 1 7 1-3h1v-7l1 4 1-9 1 4h1v10l1-4 1-3 1-3 1 4v4h1l1 3 1-5 1 3v1l1-1 1-4 1 1 1 4v-1l1 3 1-3 1-3 1-2v-1l1 7 1 2 1-2 1 1v6l1-6h1l1-1 1-5v-1l1 2 1 3 1 2 1-6v3l1-1 1-5 1 3 1 2v-5h1l1 2 1-1h1V9l1 5 1 5 1 2 1-7 1 2 1 1 1-2 1 1 1-2 1 5h2v-4h2l1 1 1-6v1l1-2h1l1 2v-1l1-5 1 4 1-1h1l1 5 1-2 1 2 1 5 1-3 1 1h1l1-6V7l1 4 1-5h1l1-3V0l1 3 1-1 1 4 1 3V6l1-1 1 1 1 2 1-2v4l1 3 1 2 1 1h1l1 2 1 3 1 5h1v2l1-2h1l1 2h4l1 1v3h1l1-2 1-1h1v2l1 1h1l1 2 1 5v-1l1-4 1 3 1 1 1-3v-5l1 1h1l1-2 1 3v5l1 1h1l1-1 1 13v-7l1-12 1 5 1 2 1-2v2h1"/></svg>