<svg xmlns="http://www.w3.org/2000/svg" width="135" height="50"><path fill="none" stroke="#57bd0f" stroke-width="1" d="m0 46 1 1h2l1 1 1-2 1-2v-1l1 1 1 2 1-2 1 1v1l1 1 1 1 1-1 1 1v1l1-1 1 1 1-1 1 2v-3l1 1 1 1h1l1-1v1l1-1h2l1 1v-1l1-2 1-1h2v1l1 2h1l1-1 1 1v-1l1 2 1-2 1-2 1-6v-5l1-6 1-2 1 2h1l1-1 1-2 1-2 1-2 1-3h1l1-5 1-1V0l1 3 1-3 1 5 1 7v1l1 10h1l1-2h1v4h1l1 12h1l1-3v-1l1-1 1-2 1 1 1-2v2h1l1-4h1v2l1-1h1l1-1 1 2 1-1 1 1h2v-2h1l1 1 1 1 1-2v1h3l1-1v1l1 2h1l1-1 1 1v2l1 2 1 1h1l1 1v1l1 2 1 2 1 1 1 2v-4l1 2h1l1-3 1-1v2l1 2 1 1h1l1-1v-1l1 1 1-2 1 1 1 3v-2h1l1 2 1-2 1-1v1h2l1 1 1 2v-3h1l1 1 1 1 1-2v-1h1l1-3 1-2 1 2 1 3 1 1 1-1 1-1 1 1 1 1 1-1h1v2l1-1"/></svg>