<svg xmlns="http://www.w3.org/2000/svg" width="135" height="50"><path fill="none" stroke="#ed5565" stroke-width="1" d="m0 35 1-5 1 5v2l1 2 1 10 1-4 1-7v1l1-2 1 4 1 1 1-5v-5l1-1 1-6 1 1 1-1v8l1-2 1-2 1-1 1 1 1 6 1 4 1-7 1 4v1l1-1 1-5 1-2 1 1v3l1 3 1 3 1-9 1 5 1 3 1 1 1-6 1-3v2l1-4h1l1-5 1-1v2l1-1 1 3h1l1-6v2l1-5 1 4 1 2 1 4v-3h1l1-3 1 2 1-3V7l1 10 1 6 1 6 1 2v-2l1-4 1-4 1 2 1 2h1l1 8h1l1 3v-2l1-7 1 3 1 1 1-4v2l1-2 1-8 1 4v2l1-4 1-4 1 2 1 5v3l1 1 1 1 1 4 1 2 1-5 1-1 1-1 1-9h2l1-2 1-1v-3l1 3 1-13 1-2 1 6V2l1-2 1 6 1 3 1 6v1l1 3 1 10 1 2 1-4v-1h1l1 3 1 2h1l1-2h2l1-4v-1l1 2 1-2 1-1h1v-4l1 6 1-4h2l1-2 1 1 1 3 1 1v-1l1-2 1-2 1-1 1 5 1 2h1l1-4 1 2v4l1 3 1 1 1 2 1 15v-6l1-4 1-2 1-1 1 2v4l1 9"/></svg>