<svg xmlns="http://www.w3.org/2000/svg" width="135" height="50"><path fill="none" stroke="#ed5565" stroke-width="1" d="m0 34 1-3 1 3v2l1 2 1 12 1-1 1-5v-3l1-1 1 5h1l1-2v-2l1-1 1-5 1 2 1-3v7l1-2h1l1-2 1 3v1l1 1h1l1-22 1 3 1-2 1-3 1 1 1 4v3l1 3 1-1 1-4 1 8v-3l1 2h2l1-1v3l1-5 1-4 1-8 1-12v7l1 2 1 8 1-1 1-8v2l1-3h1l1 2 1-3v2l1-6 1-3 1 6 1-2v2l1 7 1-2h1l1-1 1 2 1 1 1-1 1-3v5l1-3 1 11 1-4 1 4v-4h1l1 1 1-2 1-3v2l1 1 1-1 1-5v2l1-5 1 4h1l1 5h1l1-1 1 3 1 2 1-1 1-5 1-7h1V9h1l1-2 1-4 1 2V3l1 4 1-7 1 5h1V2l1 1 1 6 1-2 1 2V8l1 3 1 9 1 1 1-4v-3l1 3 1 2 1 2 1-1 1-2 1-4 1 1 1 2v-1l1 3 1-2h1l1 2v-1l1 6 1-3 1-1 1-4v1l1 3 1-2 1 3 1-1 1-1h1l1-1 1-2v-1l1-3 1 3 1-1 1 2v3l1 2 1-1 1 2 1 17v-2l1-3 1-1 1 3h1v1l1 6"/></svg>