<svg xmlns="http://www.w3.org/2000/svg" width="135" height="50"><path fill="none" stroke="#ed5565" stroke-width="1" d="m0 27 1-1 1 1v2l1 2 1 10 1-3 1-7v-2l1-1 1 7 1-3 1-3v-5l1-4 1-8 1-2h1v5l1-4h1l1-1 1 8 1 4 1 4 1-3 1 1v-1l1-2h1l1-1 1 4 1 7 1-1 1-5 1 4v-6l1 4 1 3 1-6 1-1v4h1l1-2 1-7h1v-3l1-4 1 1 1 2 1-11v3l1-2 1-4h2v2h1l1-1 1-1 1 2V1l1 11 1 3 1 3 1-3v1l1-1 1 1 1 6 1-2v-1l1-1 1 7 1-4 1-1V10l1 4 1 4h1l1-5v2l1 1 1 2 1-2v5l1-7 1 5h1l1-3 1 5h1l1 2 1 2v1l1-5 1-4 1-2 1-4v2l1 3 1-1 1-2 1-1V9l1 1 1-7 1 8 1 3V9l1-1 1 2 1 2 1-3v1l1 6 1 4 1-1 1-3h1l1 3 1 1 1-2v-1l1-4 1-1h1l1-1 1 5h1l1-1 1 1v-1l1 5 1-1h1l1 1v-1l1 1 1-1h1l1 4v-5l1-4 1 2 1 3 1 2v-2h1l1-1 1-2 1 3v4l1 3 1 3 1 1 1 17v2l1-4 1-3 1 2 1 5v1h1"/></svg>