<svg xmlns="http://www.w3.org/2000/svg" width="135" height="50"><path fill="none" stroke="#57bd0f" stroke-width="1" d="m0 42 1 1h1v6h1l1 1 1-2 1-3 1-1 1 3 1-2h1v-1l1-2 1-6 1 1 1-2v3l1-1 1-1 1 2 1 3 1-1h1l1-1h1v3l1-1 1-3 1-1 1 1v3l1 2 1-2 1-1 1-1v-1l1 4h1l1-2 1-2v2l1-1 1-1 1-2 1-1v-4h2l1 1 1-2v2l1-2 1-3 1-1 1 1v-1l1 1h2l1-1v1l1 3h1l1 2 1-1v-1l1-1 1-1 1-2h1l1 1 1 2 1-2h1v-2l1-1 1 1h2v-1l1 1 1 1 1-1v1l1-3 1 2 1-1 1 2v1l1-1 1 1h1l1 1 1-5 1-2 1-1 1-1v-1l1-1 1 1h1l1-1v-1h1l1-3 1 1 1 2v-5l1 1 1-1h1l1-4v4l1 2 1 3 1-1 1-2v-2h1l1 1h2l1-1 1-2h1l1-2V6l1 2h1l1-2 1-3V0l1 2 1 2h1l1-2 1 2 1-2 1 2 1 4v2l1-2 1-1 1 1 1-3v2h1l1-1h2v2l1-1 1 2 1 1 1 6v-3l1-2 1-2 1-1 1 3v1l1-1"/></svg>