<svg xmlns="http://www.w3.org/2000/svg" width="135" height="50"><path fill="none" stroke="#ed5565" stroke-width="1" d="m0 15 1-4 1 3v3l1 5 1 8 1-6 1-3v-3l1-2 1 4h1l1-4v-5l1-3 1-8 1 3 1 2v7l1-2 1-4 1 1 1 2v3h1l1 3 1-2 1 6v6l1-1 1-4 1 1 1 1v3l1 5h1l1-10 1 7V11l1 5 1 1 1-5 1 8v8l1-2 1 1 1-6 1-1v-1l1-2 1 2 1-1 1-7v5l1-3 1 2 1 3 1 2v-3l1 3 1-3 1 3 1-2v-4l1 3 1 2 1 3 1-2 1-1 1-4 1-1 1 3v1l1-2 1 6 1-2 1 3v-5h1l1-1 1 2 1-5v2l1 1 1 1 1-1v2l1-3 1 2 1 1 1 3v2l1 2 1-2 1 4 1 1v-2l1-2 1 2h1l1-1v-4l1 2h1l1-3 1-2v-4l1 1 1-8 1 9 1 3v-5l1-3 1 3 1-1 1-2v2l1 3 1 8h1l1-1v-3l1 2 1 2 1 2 1-2v2l1-2 1-1h1l1-1v-1l1 1 1-3 1-3 1 1v-4l1 6 1-2h1l1 1v-1l1 1 1 1h2l1-4 1-1 1 5 1 1v-2l1 1 1-1 1-1 1 1v4l1 5h2l1 18v-4l1-5h1l1 3 1 2v1l1 7"/></svg>