<svg xmlns="http://www.w3.org/2000/svg" width="135" height="50"><path fill="none" stroke="#ed5565" stroke-width="1" d="m0 7 1 1 1 1v1l1 2 1 11 1 1h1v4l1-1 1 1 1-2 1-1v-6h1l1-5 1-3 1-2v4l1-6 1-2 1 1 1 3V7l1 3 1 1h1l1-2v3l1-3 1-3 1 2 1 1v2l1 3 1 2 1-6 1 3v-3h1l1 1 1-3 1 1v3l1-1 1 3h1l1 1v-1l1-2 1 2 1 3 1-4v4l1-1 1 3 1 4 1-1v-1h1l1-1 1-2 1 1v-1h1l1 2 1-1 1-3v-2l1-2 1-2h1l1 1v1l1-2 1 2 1-2 1 2v-2l1 3 1-2 1 1 1-4 1 2 1 1h2l1 1 1-4 1 3 1 2 1-1 1 2 1 5 1-4h1l1-2 1-5 1-1 1-1 1-3 1 8V8l1-1 1-5h1l1 1V0l1 3 1 9 1 4 1-1v3l1 4 1 3 1-3 1-1v1l1-2 1 4h1l1-1v2l1 1h1l1 1 1-1v-1l1-2 1-4 1 2 1-1v-2l1 5 1-3 1-1h1v-1h1l1 2h1l1 3v-1l1-2 1 1 1 1h1v2l1 1 1 1 1 1h1v9h1l1 3 1 2 1 5v-3l1-3 1-1 1 1 1 4v3l1 3"/></svg>