<svg xmlns="http://www.w3.org/2000/svg" width="135" height="50"><path fill="none" stroke="#57bd0f" stroke-width="1" d="m0 19 1 21 1-17h1l1 10 1-12 1-3 1 4 1 6h1l1 6 1 2 1-17 1-1 1 10v6l1-6 1-1 1 2 1 2v-3l1 1 1 12 1-2 1 11V18l1 12 1-10 1 6 1 6v2l1-10 1 6 1-17 1 10V13l1 11 1-15h1l1 6v1h1l1 7 1 4 1 1V7l1 15 1 13 1-6 1-29v32l1-1 1 1 1 2 1 7V29l1-2 1-1 1-8 1 4v-7l1 3 1 10 1 6 1-7v1l1-9 1-4h1l1 12v6l1 5h1l1-12 1 9V18l1 5 1-3 1 8 1-9v3l1 5 1-1h1v1l1-10 1 3 1-1 1 1v9l1-2 1-3 1 9 1 2V25l1-2 1-6 1 2 1 7V13l1 10h1l1-1 1 3V8l1 12 1 1 1-1 1 14V19l1 4 1 12 1 1h1V21l1 9 1-13 1-7 1 19v-3l1 16 1-14 1 13 1-24v20l1-8 1 2 1 6 1-4v2l1 1 1-11 1 2 1-14v1l1 16 1 8 1-9 1 5v-7l1-1 1 11 1-1 1 6v-2l1-19 1 13h1l1-8v6h2l1-5 1 1v4l1 4h1l1-7 1-2v-5l1-3 1-2 1 13 1-1v3l1-18"/></svg>