<svg xmlns="http://www.w3.org/2000/svg" width="135" height="50"><path fill="none" stroke="#ed5565" stroke-width="1" d="m0 33 1-2 1 1v1l1 1 1 9 1-6 1-7v-1l1-2 1 4 1-2 1-3v-1l1-2 1-10 1-1 1 2v7l1 1 1-4 1-2 1 3v4l1 4 1 3 1-24 1 12V9h1l1-5 1 1 1 4v4l1 4 1-1 1-6 1 8v-2l1 4h1l1 4 1 2v2l1-2 1-2 1-3 1-4v-4l1-1 1-2 1 5 1-10v6l1-3h1l1 3h1V8l1 2 1-2 1 2 1 1V0l1 10 1 5 1 4 1-1v-2l1-3 1-1 1 1 1 3 1-2 1 7 1-1 1 7V10l1 9h1l1-2 1-5 1-2 1 4 1-3v4l1-3 1-2 1 4 1-1v3l1 2 1 1 1 2h1l1-1 1-1h1l1-2v-2h1l1 3 1-3 1-7V3l1 3 1-6 1 6 1 3V7l1-6 1 4 1 1 1 3v1l1 2 1 10 1-2 1-4 1 3 1 5 1 1 1-2 1-3h1l1-1 1-1v-2l1 2 1-1 1-1h1l1 2h1l1 1h1v-3l1 4 1 4h1l1 1v-1l1-6h1l1 1 1 1v1l1 2 1-3h2v7l1-2h1l1 2 1 15v-2l1-5 1 1 1 2 1-2v5l1 9"/></svg>