<svg xmlns="http://www.w3.org/2000/svg" width="135" height="50"><path fill="none" stroke="#ed5565" stroke-width="1" d="m0 26 1-3 1 2v-2l1 5 1 5 1-2 1-7v1l1-8 1 3 1 6 1-3v1l1 3 1-6 1-1 1 1v4l1-4 1-2 1 2 1 1v2l1 3 1 5 1-6 1 3v7l1-2 1-5 1 1h1v6l1 2 1 4 1-10 1 6v3l1 4 1 5 1-8 1-2 1 1 1 1 1-9 1-4v-2l1-3 1 6 1 2 1-12v3l1 1 1 1 1 1 1 7v-3l1 1 1-2h1l1-1v-7l1 4 1 4 1 4 1-4v3l1-1 1-1h1l1-1v2l1-2 1 14 1-5 1 2v-3l1-6 1 3 1-1 1-2 1-1 1 1 1-1v-3l1-5 1-1 1 1h1v2l1 3h1l1 5 1 3v2l1-7 1 2 1-2 1-2v-6l1 2h1l1-1 1-10V0l1 13 1-9 1 8 1 1v-3l1-2 1 5 1 2 1-3 1 11 1 12 1 1 1-4v-6l1 7h1l1 2 1-3v3l1-9 1-2 1 2 1-2 1 2h1l1-1 1 2v1l1 1 1-1 1-2 1-1 1 1 1-1 1-1 1 6v-3l1-5 1 2 1 2 1 1v-1h2l1-2 1 1v3l1 2 1-1h1l1 9v-2l1-2 1 2 1 2 1-1v3l1 5"/></svg>