<svg xmlns="http://www.w3.org/2000/svg" width="135" height="50"><path fill="none" stroke="#57bd0f" stroke-width="1" d="m0 44 1-1 1-1v1l1 2 1 5 1-2 1-6v1h1l1 3 1-2h1v-2h1l1-4 1-2 1-4v8l1-3h1l1-1 1 1v4l1 2 1 2 1-2 1 1v1l1-3 1-4 1-2 1 2v2l1 6 1-2 1-4 1 4v-2l1 1 1 1 1-4 1-2v1l1-2 1-2 1-8 1-1v1l1 2 1 3 1-1 1-6v-2l1-7 1-1 1 2 1 1v-3l1 1 1-2 1-2 1 2V7l1 3 1 4 1 6 1-4v-4l1 1 1-10 1-3 1 2v5l1-3 1 8 1 3 1 5v-9l1-3 1 2 1 2 1-5v3l1-5 1 1 1 1 1-2 1 6h1l1 3v-1l1 2 1-1 1 4 1-1v-2l1 1 1-5h1l1-2V8l1 3 1 1 1-2 1-4V0l1 1h1l1 2 1 6V6l1-1 1-1 1 3 1-3v1l1 3 1 5 1 2 1-3V9l1 4h2l1-1 1-1 1-2 1 1 1-2v2h1l1-4 1-2h1v1l1 2 1-2 1 2 1 2V7l1-1 1-2 1 6 1 2 1-7 1 1 1 1 1-3V3l1 2 1-1 1 2 1 3v6h1l1 1h1l1 20v-6l1-6h1l1-1h1v1l1 3"/></svg>