<svg xmlns="http://www.w3.org/2000/svg" width="135" height="50"><path fill="none" stroke="#ed5565" stroke-width="1" d="m0 27 1-1 1 1v1l1 1 1 5 1-3 1 1v-1h1l1 3 1-1 1-2v-2l1 1 1-6 1 3 1-1v3l1-6 1 1 1-4 1 3v-1l1 2 1 3 1-3 1 3v-2l1-3h1l1 4h1v-1l1 5 1-2 1-5 1 3v-1l1 2 1-2 1-4h1v3l1-2h1l1 1 1-2v-4h1l1 1 1-2 1-3v4h2l1 1h2l1-2 1 1 1-1v-3l1 2 1 2 1 2 1-2v-2l1-2 1-3 1-1h1v1l1-2 1 5 1-2 1 1V1l1 10 1 2 1 2 1-5v3h1l1 2 1-2 1-3h1l1 3 1 1v2l1 1 1-1 1 1 1 2v-2l1-5 1-4 1 3 1-3V6l1 2h1l1-2 1-1V3l1 2 1-5 1 4 1 1V2l1-2 1 1 1 3h1v3l1 3 1 5 1-1 1-2v-1l1 2h1l1 2 1 5v3l1-1 1 1 1 1 1 1v1l1 4 1-1 1-3 1 4v-1l1 3 1-1 1-1h1v1l1 1 1-1 1 2 1 2v-1l1-4 1 2 1-1h1v-1l1-1 1-1h1l1 2v2l1 1 1 2 1-1 1 10v-1l1-3 1 1 1 1 1 1v4l1 3"/></svg>