<svg xmlns="http://www.w3.org/2000/svg" width="135" height="50"><path fill="none" stroke="#ed5565" stroke-width="1" d="m0 16 1-1 1 5 1 2 1-1 1-1 1-2v-2h1l1-1 1 1 1-2v-3h1l1 1 1-12 1 1v18l1-2 1-2 1 2 1-2V4l1 2 1 1 1 2 1 1v3l1 1 1-1 1-2 1-1V9h1l1 6 1-2h1v-2l1 3 1 2 1-3 1-2v2l1-2 1 3h1l1-3V9l1 2 1-3 1 5 1 4v-3l1 4 1-4 1-1 1-4v1l1 1 1-2 1 4 1 1v-2l1-3 1-1 1 6 1 1v2h1l1-2 1 5 1-1v-2l1-4 1 6 1 1 1 3 1-2h1l1-1 1 2v3h1l1-5 1-3v-2l1-1 1 9 1-3 1 2v2l1 2 1-1h1l1 1 1-4 1 4h1l1-1v2l1-1 1 1 1-1 1-2v-2l1 3 1-4 1 2 1 2 1-2 1-1h1l1 1v2h1l1 3h1l1-2v-3l1 5 1-5 1-1 1-1v-1l1-1 1 1 1-1 1-2v1l1-2 1 2 1-1 1 2v-1l1-1 1 2 1-1 1 1v-1l1-1 1 1 1 2h1v-1l1-1 1 4 1-1h1v-1l1-1 1 1 1-4h1v4l1 1 1-1 1-2 1 5v1h1l1-1 1-1 1 2v1l1 25"/></svg>