<svg xmlns="http://www.w3.org/2000/svg" width="135" height="50"><path fill="none" stroke="#57bd0f" stroke-width="1" d="M0 36h1l1 2v2h1l1 2h1l1-2v-1l1-1 1 2h1l1-2v4l1 1 1-1h1l1 1v1l1-1h1l1 1h1v-1l1-1 1 2 1 1 1 2v-3l1 2 1-1h1l1 1v2l1-1h1l1-2 1 5v-6l1 1 1-1h1l1-1 1-2 1-2 1 1 1-1v3h1l1 2 1 1 1-2v1l1-1h1l1 2h1v-1l1-1 1-1 1 2 1 1h1l1 1 1 3h1l1 1 1-1h2v-1h1l1 2 1-1 1-2v-2l1-3 1 1 1-1h1l1-1 1 2 1-2h1l1-1h1l1-1v-1l1-2 1-17 1 2 1-3v-1l1 4 1 1 1-1 1-3v-1h3l1-3v2l1 1 1-4h1l1 4v-1h1l1-2 1 1 1-3 1 2 1 1 1-1h1v-1l1 3h2l1-1 1-2h1l1 1h1l1 4 1 1h1l1 1 1 1h1l1 1h1v1l1-1 1 1 1 1 1 1 1-4 1-2 1 3 1 1v-1l1-1 1-1 1-1h1v4l1 1 1-3 1-2 1-1v-3l1-2 1-2 1-5 1-4v5l1-7"/></svg>