<svg xmlns="http://www.w3.org/2000/svg" width="135" height="50"><path fill="none" stroke="#ed5565" stroke-width="1" d="m0 34 1-1h1v1l1 1 1 4 1-2 1-4v1l1-1 1 1 1-1h1v1l1 1 1-7 1 2 1-4v5l1 7h2l1 2v1l1 1 1 1h2v2l1-2 1-1 1 1h1v2l1 4 1-2 1-4 1 4 1 2 1 1 1-2h1v-5l1-1 1 6h2v2l1-3 1 2h1l1-7v1h1l1-1h1l1 1v-7l1 5 1-2 1-1 1 4V12l1 10h1l1 10 1-2V20h1l1-3 1 4h1v-3h1l1 7h1l1-11v-4l1 12 1 1 1 2 1-16v8l1-9 1 15 1 1v1l1-2 1-7 1 10 1 2v-1l1 1 1-6h1l1 1v4l1-2 1-3 1 3 1-1v-5l1 11 1-10 1 6 1-3v-4l1 2 1-9 1-12 1 10V4l1 8 1 2 1 4 1-2V5l1 14 1 6 1 1 1-1V11l1 12 1-1 1 7h1l1-3 1-2h1l1-2v-9l1 13 1-1h2v-3l1 1h1l1 2 1 1v-7h1l1 6 1-1 1-4v6l1-8 1-1 1 8 1-1v1l1-6 1 6h1l1-7v10h1l1 1 1-7 1 19v8l1-6 1 2h1l1 1v3l1-3"/></svg>