<svg xmlns="http://www.w3.org/2000/svg" width="135" height="50"><path fill="none" stroke="#57bd0f" stroke-width="1" d="m0 46 1 1 1 1v-1l1 1 1 2 1-3 1-4v1l1-1 1 2 1-2 1-3v-1l1-4 1-8 1 2 1 6v4l1-4 1-3h1l1-1v-2l1 2 1 5 1-4 1 2v2l1-1 1 1 1-1 1 1v2l1 3h1l1-8 1 1v3l1-1h1l1-1 1 1 1-3 1-1 1-1 1-4v-3l1-3 1 2 1-1 1-4v6l1-4 1-2h1l1-6v3l1 2 1 2 1-1 1 2v-1l1 3 1-3 1 3 1-3v-2l1 2 1-2 1 1 1 1 1-1 1 5 1-3 1 2v-5h1l1-1 1 2 1-2v2l1-3 1-2 1 2v2l1-3 1 3 1 1 1 1v1l1-2 1-1 1-1 1 5v2l1-6 1-3 1 2 1-1 1 1 1 1 1-1 1 2v-3l1-1 1-4 1 2 1 1v-1l1-6 1-1h1l1 2v3l1-3 1 8 1-3 1-2V7l1 2 1 1 1 1h1v1l1-1 1 1h1l1-1V6l1 2 1-5 1-3 1 1v2l1-1 1 1 1-2 1 3v3h1l1-3 1 2 1-2v6l1-2 1-2 1 3 1-1V4l1 1 1 4 1 2 1 2v3l1 1h1l1 3 1 15v1l1-7 1-1 1 5 1 1v-1l1-1"/></svg>