<svg xmlns="http://www.w3.org/2000/svg" width="135" height="50"><path fill="none" stroke="#57bd0f" stroke-width="1" d="m0 32 1 2 1-1v2l1-1 1 1 1 1 1-4 1 3 1 1 1-1 1-1v-7l1 6 1 2 1 6 1 1v6l1 2 1-1 1-8 1 1v-2l1 3 1-1 1-1h1v-2l1-1 1-3 1 3 1-3h1l1 1 1-2 1-4 1 1 1 1 1-2h1v3l1-4h1l1 1 1 2v-1l1-4 1 1h1l1-4v2l1 1 1-1 1 1 1 3h1l1-2 1-8h1v1l1 4 1 1 1 1 1-8v1h1l1-2 1 1 1-1v1l1-2 1 3 1-1 1 1v-4l1 2 1 2 1 1 1-3v4l1 1h1l1 1v-2l1-3 1 1 1 1 1-1v2l1 5 1-2h1l1 1 1-1 1-6 1 4 1-1v3h1l1 1 1-1 1 2v4l1 3 1-1 1 5 1-3v-6l1-2 1 2 1-2 1 1v-1l1-3 1-3 1 1 1-2v-1l1-2h1l1 4 1-2v-2l1-1h2l1-1V0l1 4 1 1 1 2 1 1 1-3 1 2 1 3 1 12v-3l1 7 1 2 1 2 1-1v1h1l1 4h2v-3h2l1-2 1 3v-3l1 2 1 2h2v-7l1-8 1-4 1 3 1 1v1l1-8"/></svg>