<svg xmlns="http://www.w3.org/2000/svg" width="135" height="50"><path fill="none" stroke="#ed5565" stroke-width="1" d="m0 33 1-1 1 4v1l1 2 1 11 1-7 1-5 1-3 1 3 1-3 1-2 1 1 1-11 1 1 1-1v8l1-2 1-5 1 1 1-2v4l1 1 1 5 1-6 1 1v-1l1 1h1l1-1h1v3l1 5h1l1-6 1 1v-2l1 3 1 2 1-1 1-2v1l1-6 1-3 1 1 1-2v2l1-1 1 2 1-2 1-7v3l1-3 1-3 1 6 1 2v-2l1-3 1-2 1 1h1l1 4 1 4 1 3 1-3v1l1-2 1-7 1 1 1 3v1l1-3 1 6 1 1 1-3v-3l1-2 1 2h1l1-3v-1l1-1 1-3 1 3v1l1-5 1 3 1 2 1 2v1h1l1 2 1 4 1 3 1-7 1-4 1 2 1-1h2l1-3h1V6l1 1 1-7 1 7 1 3V8l1-2 1 2 1 2 1-4v3l1 3 1 10h1l1-3 1-1 1 4 1-1 1-4v1l1-2 1-1 1-1h1v-2l1 2 1-3 1-4 1 4v2l1 3 1-3 1-1h1V9l1 3 1-1 1 3 1 3v-4l1-4 1-3 1 2 1-1V5l1 2h1l1 2 1 3v8h1l1 1 1 1 1 19v-6l1-4 1 2 1 1 1 2 1 1"/></svg>