<svg xmlns="http://www.w3.org/2000/svg" width="135" height="50"><path fill="none" stroke="#57bd0f" stroke-width="1" d="m0 42 1 6 1-2 1 2 1-3 1-5 1-2v-1l1 3h1l1-1 1-5v6l1-2 1-12 1 17 1-16v-4l1-1 1 2 1 5 1-5v1l1 1 1-1 1 2 1 1v-2h1l1-1 1-1 1 1V14l1-10 1 10 1 9 1 6V12l1 11 1-1 1 7 1-20V7l1 14 1 1 1 12 1-17v-6l1 1 1 7 1 7 1 3v14l1-11 1 2 1-15 1 6v1l1-3 1 1 1-1h1v-1l1 1 1 6 1-7 1-2v5l1-5 1-4 1 12h1v-3l1 4 1 17 1-7 1 9v-6l1-2 1 1 1 2 1-14 1 4 1-1 1 2v-4l1-5 1 14 1 4 1 2v5l1-15 1 3 1 3 1 6v-7l1-10 1 7 1 1 1 7V35l1 1 1 1 1-2 1 12v1l1-1 1-10 1-22 1 6v3l1 7 1 3 1-2h1v-4l1 18 1-18 1-1h1v-3l1 22 1 1 1-18 1 1v2l1-20 1 10 1 1 1-1v2l1-1 1 6 1-5 1 1v-3l1 13 1-10 1 1 1 1v3l1-6 1 1 1-7 1 5v-1l1-3 1 16 1-2 1-6v-3l1-19 1 2 1-1 1 4V9l1-2 1 15 1 3 1 7v-8l1-14 1 17 1-4 1-2v3l1-24"/></svg>