<svg xmlns="http://www.w3.org/2000/svg" width="135" height="50"><path fill="none" stroke="#ed5565" stroke-width="1" d="m0 18 1-5 1 2v3l1 4 1 1 1-2 1-7v-4l1 6 1-1 1 3h1v-6l1 2 1-9 1-1 1-3v9l1 6 1-2h1l1-2v-2l1 8 1-2 1 2 1-3v6l1 2h2l1-1v1l1 2 1 7 1-8 1 4v-1l1 9 1 4 1-11 1 6v2l1-1 1-1 1-11 1-6v-4l1-1 1 1 1 5 1-6V7l1 6 1 1 1 3 1-1v1h2l1 1 1-1v-2l1 4 1 3 1 8 1-5v2l1-1 1-2 1 4 1-3v-1l1 1 1 6 1 1 1 2V20l1 14 1 1h1l1-4v4l1-3 1-2 1-2v-2l1-5 1 1 1-5 1-4v4h1l1 10 1 1 1 7v-2l1-6 1-1 1-2 1-7v-4l1 2 1-4 1-1 1-1V3l1 5 1-8 1 2 1 6V6l1-6 1 5 1 1h1v1l1 1 1 11 1-5 1-1v-2l1 5 1 2 1 5h1l1-1 1-1 1-1 1-2v3l1-1h1l1-4 1 2v1h1l1 1 1-2 1 1v-1l1-3h1l1 1 1 6v-3l1-6 1 10 1 1 1-1v5l1-1 1-2 1-2 1 11v-2h2l1 1 1 11v-2h1l1 1 1-5 1 2v4l1 6"/></svg>