<svg xmlns="http://www.w3.org/2000/svg" width="135" height="50"><path fill="none" stroke="#57bd0f" stroke-width="1" d="m0 31 1-1 1-5v2h1l1 2 1-1h1v-2l1-2 1 5 1-1h1l1 1 1 1 1-2h1v1l1 3 1-5 1 4h1v-1l1-2 1 1 1-1 1 5v-4h1l1 21h1l1-5v2l1-1 1-3 1-3 1 2V27l1 14 1-2 1-2h1v2l1-1 1 1 1-3 1-11v-1h1l1 1h1l1-10v3l1 6 1-5 1 5 1-3v-2l1 1 1 2 1-3 1 1v1l1-2 1-5 1 6 1 1v-7l1 3 1-1 1-1 1-9v1h1l1 4 1-1 1 3h1l1 1 1 4 1-1 1-2 1-1 1-8v3l1-3 1 5 1 1 1-4v2h2l1 4 1 1v-4l1-1 1-4 1 1 1 1V5l1 2 1-1 1 2 1-1V2l1 5 1-3 1 3 1 2V7l1-1 1 2 1-2 1-1v1l1 2 1-2 1 1 1-1V0l1 10h1l1 1 1-2v2l1-3h3l1-3h3l1 2 1-1 1 3h1V8l1-1 1 1 1-2 1 1 1 2 1 1 1 1 1-1v1l1-1h1l1-1 1 1v1l1-3 1-1 1 2 1 1 1-1h1l1 1h1v1l1-2"/></svg>