<svg xmlns="http://www.w3.org/2000/svg" width="135" height="50"><path fill="none" stroke="#ed5565" stroke-width="1" d="M0 22h2v1l1 1 1 5 1-4 1-2 1-1 1 2 1-1 1-2v-3l1 2 1-8 1 2 1-1v6l1 1 1-1 1-2 1 3v4l1 1 1 3 1-5h1v3l1-2 1-1 1 1 1 2 1 1 1-1 1-6 1-3v-4l1 3 1-1 1 1 1-2v6h1l1-2 1-2 1-1v-1h1l1 2 1-3 1-1v4h1l1 2 1 1 1-2v-3l1 1h1l1 2 1-3v-2h1l1 1 1 3h1v-2l1-2 1-3h2V7h1l1 3 1-1 1 4V9h1l1 1 1 1 1-5 1-4 1 2 1 2v1l1-4 1 3h1l1 4V9l1 2 1-3 1-1 1 2v1h1l1-1h2V7l1 2 1-1 1-1 1-3V1l1 1 1-2 1 6h1V5l1-2 1 2 1 1 1-1 1 2 1 3 1 2h1v-2l1 2 1 2 1 2 1-1v2l1-3h1l1 1 1-1 1 1 1-2h1l1 1 1 3h1l1 2h1v-1l1 1 1-1 1 1 1 1 1-2 1-1h1l1 2v-2l1 2h1l1 1h1v3h2l1 2 1 16v-1l1-2h1l1 3h1v5l1 4"/></svg>