<svg xmlns="http://www.w3.org/2000/svg" width="135" height="50"><path fill="none" stroke="#ed5565" stroke-width="1" d="M0 20h1l1 3v-1l1-3 1 5 1-5 1 1 1-3 1-1 1 2 1 7v-7l1 6 1-3 1-2 1-9v13l1-1 1 1 1 1 1-1v-4l1 1 1 6 1-2 1-4v3l1-4 1 8 1-2 1-8v1l1-17 1 1h1l1-2v2h1l1-1 1 5 1 8v-3l1-3 1 2 1 2 1 1V9l1 2h1l1-1 1 3v-3h1l1-3 1 5 1 1V9l1 3 1 3 1-7 1 1h1l1 2 1-1 1 3v-1l1-5 1 2 1 5 1-4v2l1 2h1l1 1h1v1l1 2h1l1-4 1 2v2l1-8 1 6 1-3V9l1-1h1l1-2 1 6v1h1l1 1 1 9 1-1v2h2l1-1 1-7v1l1 1 1-1 1-5 1 2v2l1 1 1-5 1 1 1 2v-4l1 2 1 2 1-3 1 4v-4l1 6 1-1 1-2h1v-2l1 3h1l1 1 1 3v-5l1 1h1l1-2 1 1v-2l1 3 1-2 1 2 1 2v-3l1 1 1 2h1l1-3V7l1 3 1 7 1 1 1 6v-3l1-2 1 2 1-10 1 12v15l1 4 1-6 1-1 1-5h3l1 14 1 4 1 1 1 1 1-5v1l1 1"/></svg>