<svg xmlns="http://www.w3.org/2000/svg" width="135" height="50"><path fill="none" stroke="#57bd0f" stroke-width="1" d="m0 42 1 8 1-36v5l1 2h1l1 11 1-1V10l1 10h1l1-3h1l1-1h1l1 6 1 2 1-2 1-1h1l1-1v-6l1 3 1-2 1-1 1 20V18l1 3 1-3 1 15 1-6v6l1-10 1-5 1 3 1 10V20h1l1 2 1-2 1-6v-1l1 7 1-5 1 10 1-4v-5l1-1 1 7 1-17 1 8v12l1-7 1-1 1 6 1-13V8l1 8 1 10 1-10 1 3v4l1-3 1 3 1 2h1v-2l1 4 1-4 1 4 1-2v4l1-5 1 16 1-8 1 8V14l1-4 1 9 1-2 1 3v1l1 2 1-1 1 4v-2h1l1-1 1 5 1 1v-3l1-1 1-4 1 18 1-1v-5l1-33 1 28 1-2 1 7V12l1 12 1-3 1 7 1-3V8l1-1h1l1 13 1-9V9l1 3 1 4 1 4 1 2v-2l1-2 1-4 1-6 1 26 1-2 1 2 1 6 1-23v15l1-16 1-3 1-4h1v17h1l1 1h1l1-12v12l1-5 1 15 1 2 1-2v-8l1-8 1 3 1 6 1 2v6l1-19 1 9 1 15 1-13v4l1-2 1 3 1-2 1 5 1 1 1-12 1-8 1 8v-7l1-10 1 8 1 5 1-7v-1l1-4"/></svg>