<svg xmlns="http://www.w3.org/2000/svg" width="135" height="50"><path fill="none" stroke="#57bd0f" stroke-width="1" d="m0 50 1-1 1 1v-1l1-4 1-16 1 2 1-1v-8l1 6 1 4 1-12 1 8v-7l1-1 1 9 1-2h1l1 2 1-4 1-6 1-12V4l1 4 1 10 1-10 1-8v5l1 9h3V3l1 4 1-2 1 2 1 12v-1l1 2 1-1 1-3h1v5l1-3 1 2 1 5 1 2v-1l1-1 1 2 1-2h1v6l1-2h1l1-8 1-1v-1l1 3 1-2 1 5h1v-1l1-4 1-1 1-7 1-1v4l1 1 1-2 1 2 1 2v1l1-5 1 5h1l1 3v-4l1 5 1-1h1l1-2v-4h3v3l1-3 1 2 1 1 1 1v10l1-2h1l1 4 1 2v-2l1-2 1 1 1 1 1 1v1l1-1 1 1 1-1 1 2v-2l1 1 1-4h1l1-2 1-3 1 2 1 6 1-1v2l1 1 1 2 1 3 1-4v1h1l1 5 1 2 1-3v3h1l1-4 1-1h1v1l1 1h1l1 1 1-1v1l1-2 1-2h1l1-1v1h1l1-1h1l1 1 1-1h1l1 4 1-1 1 1h3l1 1h1l1 1 1 3v-1l1-3h1l1 1 1 1v1h1"/></svg>