<svg xmlns="http://www.w3.org/2000/svg" width="135" height="50"><path fill="none" stroke="#57bd0f" stroke-width="1" d="m0 46 1 1 1 1v-3h1l1 5 1-2 1-4v1l1-3 1 4 1-2 1-1v-2l1-1 1-7 1 5 1-2v7l1-1h1l1-2h1v2l1 1 1 2 1-4h1v-2l1-1 1-2 1-1 1-3v2l1 5 1-4 1-3 1 3v-4l1 3 1-2 1-9 1-2v2l1-5 1 3h1l1-3 1-4 1-2 1 11 1-9v4h1l1-5 1-5 1 2V8l1-1 1-1 1 1 1-5v6l1 5 1 4 1 3 1-7v3h1l1-2 1 2 1-2v1l1-2 1 1 1 1 1-1v-4l1 3 1-2 1-1 1-2h1l1 2 1-7v1l1 1h1l1 2h1l1 2 1 3 1 1 1 3v2l1-2h2l1-2v-1h1l1 1 1-2 1-3V7h2l1 2 1 4v-3l1-2h1l1 2 1-1v1l1 1 1 9 1-2 1-3v-2l1 1h1l1-1 1 2v-1l1-2 1-3 1-1h1l1-2 1-6 1 1 1 2 1 3 1-1h1l1 3V6l1 3 1 1 1 3 1 1v1l1-2 1 1h1l1 1v-1l1-1 1-1 1-2 1 1v10l1-1 1 1h1l1 10v-5l1 1 1-2 1 2 1-1v2l1-2"/></svg>