<svg xmlns="http://www.w3.org/2000/svg" width="135" height="50"><path fill="none" stroke="#ed5565" stroke-width="1" d="M0 6h1l1-4V0l1 6 1 3 1 2 1-1v2h2l1 3 1 1v-3l1 1 1-3 1 3 1 2v2h2l1 1 1 1v1l1 2 1-1 1-1h1v-5h1l1-1h1l1 1v1l1 3 1-1h1l1 1v-3l1 4 1 4 1 2h1v4l1 2 1 3 1-1 1-3v1l1-1 1-1 1-1 1-1v4l1-2 1-1 1 2 1 1v-1l1-1 1-1 1 1 1-2v-1l1 2 1 7h1l1 1 1-1 1-2 1-2 1 2v3l1-3 1 2h1l1 1 1-4 1 1 1-4 1-1v1l1 1h2v1l1-1 1 3 1 1 1 5v-4l1 3 1-3 1 1 1-2 1-4 1 9 1-1 1-1v-3l1 1h1l1 1 1-3v-3l1 3 1-2 1 2 1 2v-1h2l1 1h1l1 2 1 1 1-1 1-2v1l1 2 1 1 1 1 1-1v-1l1-1 1-1 1-1 1-2h1l1-1 1 1 1 1v2l1 3 1 1h1l1-1 1-2 1 1 1 1 1-1v2l1-4 1-1h1l1 1v-2h1l1-1 1 2 1-1v4l1 2h1l1 1 1 7 1-1 1-6 1-1 1 1v1l1 1"/></svg>