<svg xmlns="http://www.w3.org/2000/svg" width="135" height="50"><path fill="none" stroke="#ed5565" stroke-width="1" d="M0 0h2v1l1 4 1 9 1 3 1-5v2h3l1-2v1l1 5 1-4 1-1h1v7h1l1-3h1l1 3v2l1 2 1 2 1-3 1 1v1l1-2 1-2 1 2 1 2v-5l1 1 1-1 1-5 1 4v-2l1 5h1l1-2h1l1 1 1-3 1-3 1-2 1-1 1 4 1-1 1-5v5l1-1 1-1h1l1-1v1l1 1 1-1 1 4 1 2v-3l1 2 1 1 1 1 1 2v1h1l1-4 1-6h1v-1h1l1 7 1 2 1 6v-4l1-3 1 4 1 1h2l1 1 1 5v5l1-2 1 4 1-2 1 4v3l1 5 1-3 1-2 1 4v-2l1 1 1 2h1l1-6v-3h1l1-2 1-2 1-2v-2l1 1 1-3 1 6 1 1v-6l1-4 1 1 1 4 1-2v2l1 6 1 6 1 2 1-5 1 5h1l1 2 1-1 1-3h1l1 3 1-3v-2h1l1 1 1-2 1 1v-1l1 4 1-2h2v-2l1 3 1-3 1 1 1 4v-1l1-4 1-1 1 2 1-1v-1h2l1-4 1 3v2l1 1h1l1-2 1 11v-3l1-4 1 3 1 1 1-1v2l1 1"/></svg>