<svg xmlns="http://www.w3.org/2000/svg" width="135" height="50"><path fill="none" stroke="#57bd0f" stroke-width="1" d="m0 32 1 2 1 1v1l1 2 1 6 1-4 1 1v1l1-1 1 1h1l1-4v2l1-1 1-7 1 2 1-2v5l1-1 1-1 1-2h1v2l1 7 1 4 1-5 1 4v2l1 1 1-9 1 5 1 2 1 4 1-1 1-5 1 3v-2l1 4 1-1 1-3 1-2v3l1-1h1l1-5 1 2v-4l1-2 1 1 1-3 1-6v3l1-1h3v-1l1 2 1-2 1 1h1v-3l1 4 1 1 1 7 1-6v2l1-3 1-1h1l1 1v1l1-1 1 8 1 2 1 2v-7l1-2h1l1-1 1-2 1 1 1-1 1-4 1-4 1 3h1l1 1v2l1 1 1-4 1 2 1 3 1-1 1-3 1-2 1-1v-2h2l1-1 1-4v-1l1 3 1-7 1 3 1 2v-5l1-1 1 1 1 4 1 1v4l1 3 1 3 1 1 1 1v-4l1-1 1 2 1 3 1 4 1-2 1-2 1 1h1v-1l1-1 1-1 1-1 1-1 1 1 1-3 1 1 1-1v2l1-5 1 1 1-1 1 3v1l1-6h1l1-3 1 1V6l1-6 1 6 1-3 1 5v7l1 3 1-1 1 1 1 22V30l1-4 1-4 1 3 1 4v4l1-3"/></svg>