<svg xmlns="http://www.w3.org/2000/svg" width="135" height="50"><path fill="none" stroke="#ed5565" stroke-width="1" d="M0 36h1l1-3v1l1 1 1 1 1-3 1-6v-1l1 2 1 1h1l1-3v-1h1l1-2h1l1-3v4l1 4 1 2 1-2 1-1v2l1 9 1-1 1-5 1-5v2l1-4h1l1-5 1-2v2l1 1 1 1 1-7 1-3v1l1-1 1 1 1-6 1-2 1-3 1 2 1-4 1 12v38l1-1 1-1 1 2 1-6 1 2 1-4 1-1 1 5v1l1-2 1-4h1l1 2v-2l1 5 1-3 1 5h1v-1l1-1 1-9 1 4 1-5v3l1 7 1-3 1-3 1 7v-9l1-6 1 2 1 1 1-7 1-2 1-5 1-3v1l1-1 1-1 1-1 1-2v8l1-2 1 2 1-10 1 4v-3l1-5 1 8 1 4 1-7v1l1-2 1 5 1 6 1-8v-5h1l1 4 1-2 1-4V5h2l1-3 1 4 1 9 1 13 1 11 1-4v2l1 1 1-3 1-2 1 2 1-14 1-1 1 4 1 1v-4l1 2 1-3 1-3 1 1h1l1 1 1 9h1v2l1 1 1-4 1 5 1 1v2l1-6 1-5 1-1 1 2v-4h1l1-2 1-1h1v3l1 3h1l1-3 1 18V29l1-2 1-2 1-1 1 1 1 16"/></svg>