<svg xmlns="http://www.w3.org/2000/svg" width="135" height="50"><path fill="none" stroke="#ed5565" stroke-width="1" d="m0 0 1 1h1v1l1 11 1-1h2v-2l1 2 1-1 1 2 1 1v1l1 1 1 2h2v-6l1 4 1-2 1 1 1 2v3h1l1 1 1 1 1-3 1 1 1-1 1 2 1-2h1l1 2 1-2 1 3v1h1l1 3 1-3 1-1v2l1-1h1l1-3h1v2l1-5 1-1 1 5 1-4v1l1-2h1l1 1 1-1 1 1h1l1 1 1-1v2h3l1 2v-1l1-2 1 1 1 1h1v-1l1 4 1 1h1l1 3v-2l1-1 1-1 1 3 1-2v1l1-1 1 3 1-1v-1h2l1-3 1 1v1l1 4 1-3 1 4 1-1 1-2h1l1-1 1-1v1l1 2 1-1 1 2 1-2v-3h1l1 1 1-4 1 2v-3l1 2h1l1 2 1-2v1l1 1 1 1 1-3 1 2v-1h1l1 1 1 1 1-2v1h1l1-1h1l1-1v1h2l1 1 1 1 1 1 1-1 1 1 1-1h5l1-2 1 2 1-2v1l1 1 1-3 1 2h1v1l1-1h2l1 1v3l1-2 1-1 1 2h1l1 24"/></svg>