<svg xmlns="http://www.w3.org/2000/svg" width="135" height="50"><path fill="none" stroke="#ed5565" stroke-width="1" d="m0 3 1-1h2l1-1h1l1 1V1h1l1 1 1-1 1-1v3l1-1h1l1-1 1 1v5l1-2 1 2 1-1 1-1 1 1 1-1 1 3 1 1v3l1-1 1 2 1-1 1-1v1l1-1 1 1h2v-1l1 1 1-1h1l1 1 1-1 1 2 1-2h1v1l1-5 1 7h1l1 4v-3l1-1 1 1 1-1 1-5h1l1-1 1 2h1V9h1l1 2 1 1 1 1v-1h2l1 1 1-3v1l1 1 1-2 1 1 1 4v1h1l1 2h1l1-2v3h2l1-1 1 1h1l1 1 1 1v-1h1l1 1 1-1 1-1 1 1h4l1 1h1l1-1v-1l1 1 1 3h2v1l1-1h1l1 5h1v2l1-1 1 1 1 4 1 2v1l1-1 1 1 1 1 1-1v1l1 1 1 1 1 1 1 1v-1l1 1 1-1 1 1 1 1h1l1 3 1-1h1l1-1 1 1h2v4l1-4 1-3 1 3 1-2v1h2l1-1 1 1h2l1 3 1 3v-3l1 2 1-2 1-1 1 1v1l1-11"/></svg>