<svg xmlns="http://www.w3.org/2000/svg" width="135" height="50"><path fill="none" stroke="#ed5565" stroke-width="1" d="m0 0 1 11 1 3v-1h1l1 6 1-2 1 1v-2l1-2h1l1 5 1 2v3h1l1-1 1 1 1 4v-2l1 1h1l1-1h1v-1l1-5 1 3 1 6 1 1v1l1 1 1 1 1 3 1-2v2h1l1 2h1l1 1 1 2 1 4h2v1h1l1-1 1-2 1-2h1l1 4h1l1-1v2h2l1-5 1 5v-2h2l1-1h1v1l1-1 1 5 1-1 1 2 1-5 1 2 1 2 1 1v-5l1 2 1-3 1 6 1-4v5h1l1-1h2v-5l1 6 1-1 1-1v2l1-6h2l1 1v-1h1l1 6 1-2 1-2 1 4 1-4 1-1 1 4v-3l1 2 1-1 1 1 1-1 1-3 1-2 1 1 1 1v-2l1 2 1 5 1-5 1 1v-2l1 2 1 2 1 1 1-2v-1h2l1-2 1 3 1-3 1-1 1 2 1-1v-5h2l1 1 1 1v-1l1 2h1l1 1 1-1v3l1-5 1 3 1-3h1v-3h1l1-1h2v2l1 3h1l1 1 1 1v3h2l1-1 1 1 1 3 1-5h1l1 3v-4l1-1"/></svg>