<svg xmlns="http://www.w3.org/2000/svg" width="135" height="50"><path fill="none" stroke="#ed5565" stroke-width="1" d="m0 13 1 5L2 6v5l1-7 1 2 1 1 1-7v3l1 13 1-1 1-1 1-8v6l1-1 1 4 1-8 1 3V7l1 5h1l1 1h1v19l1 8 1-2 1-4 1-4v5l1 1h1l1-14 1 5v7l1-5 1-2 1 7 1-3v-1l1-2 1 6 1-5 1 8v-4l1 3 1 7 1-9 1 5v-8l1 5h1l1 2 1-3v6l1-7 1 2 1 1 1 2v-1l1-1 1 1 1 2 1-2v-4l1 6 1 2 1-23 1 9v3l1 2 1-7 1 10 1-10v8l1 3 1 2 1 1 1 4V34l1 2 1 7 1-8 1 2v4l1-21 1 8 1 12v-6l1-6 1 4 1-5 1-10v1l1 14 1 6h1l1 2v-1l1-14 1 7 1-10 1 5v-6l1 6 1-3 1 8 1 3v5l1-6 1-2 1 13 1-18v9l1 1 1-11 1 17 1-4v1l1 3 1-10 1-8 1-11v8l1-6 1-7 1 3 1-2v7l1-2 1 6 1 1 1 6v1l1-1 1 4 1-15 1 8v-6l1 3 1 1 1-6 1 7v-3l1-2 1 26 1-2 1-2v-2l1 3 1-5 1 10 1-1v-3l1 3 1-1 1-8 1 10v-4l1 1 1 5 1-1 1-7v9h1l1-8 1 2h1v5l1-2"/></svg>