<svg xmlns="http://www.w3.org/2000/svg" width="135" height="50"><path fill="none" stroke="#ed5565" stroke-width="1" d="m0 18 1 5h1v1l1 6 1-3 1-3 1-3v-3l1-1 1-5h1l1-3v2l1-11 1 5 1-1 1 6V8l1-3 1-1 1 2 1 2v3l1 4 1-2 1 4 1 5v-1l1-2h2l1 3v4l1-1 1-7 1 4h1v3l1-1 1-1 1-1 1 2v-1h1l1-4 1-4h1l1 1 1-1 1-3 1 4v-1h1l1 2 1 2 1-3 1-1 1 1 1-2 1-4v2l1 4 1 4 1-3h1l1 1 1 3 1-2 1 2v-2l1 5 1-1h1l1-5v1h1l1-1 1-3h1l1 1h1l1-3V8l1 2h1l1 2 1 1v2l1-1 1 2 1 1h1v-3l1-1 1-2h1l1-1v2l1-1 1-2 1-1 1-3v3l1-7 1 4 1 2 1-1V4l1 2 1 2 1-1 1 1v2l1 5 1 2 1-1 1-1v1h1l1 2 1-1h1v-1l1-1h1l1-1h1v3l1-1h1l1 1 1 1v1l1-2 1 1h1l1-1v-1h1l1 1 1 1 1-2v-2l1 2h3v1l1-1 1 1 1 1 1 1v3h1l1-1 1 20 1-4 1-1 1 3 1 3 1 4v-1l1 5"/></svg>