<svg xmlns="http://www.w3.org/2000/svg" width="135" height="50"><path fill="none" stroke="#ed5565" stroke-width="1" d="M0 31h1l1-3v-2l1 6 1 8 1-4 1-11v1l1-7 1 6 1 4 1-1v1l1 2 1-6 1-1 1 2v2l1-14 1-1 1-2 1 8v3l1 2 1 5 1-3 1 4v5l1 5 1-6h1l1 2v3l1 9 1-2 1-6 1 8V30l1 8 1 5 1-9 1-3v2l1-1 1 2 1-11 1-5v-3l1-1 1 7 1 2 1-11v1l1 1 1 3 1 1h1v-2l1-2 1-2 1-1 1 19v-5l1 3 1 2 1 5 1-4v2l1-2h1l1 2 1-1v2l1-3 1 17 1-5 1 3v-4l1-8 1 4 1-2 1-3v-1l1-1 1 2 1-1v-2l1-6 1 1h2v3l1 4 1-1 1 5 1-9v2l1-7 1 14 1-1 1-3v-7l1 3 1-1 1-1 1-11V0l1 14 1-9 1 9 1 2v-5l1-3 1 7 1 1 1-3v2l1 12 1 14 1 2 1-5v-7l1 8 1-2 1 8 1-8v3l1-24 1 11 1 2 1-1v-1l1 2 1-1h1l1 2v1l1 3 1-3 1-1 1-1 1 2 1-2h1l1 7v-4l1-5 1 1 1 3 1-13 1-1 1 14 1-3 1 2v4l1 2 1-1 1-1 1 10v-2l1-5 1 6 1 2 1-2v4l1 3"/></svg>