<svg xmlns="http://www.w3.org/2000/svg" width="135" height="50"><path fill="none" stroke="#ed5565" stroke-width="1" d="m0 21 1-1 1 4v1l1 1 1 7 1-9 1 1v-4l1 1h1l1-1 1-1v1l1 2 1-7 1 3h1v6l1 2h2l1 2v1l1 1 1 5 1-9 1 3v3l1-4 1-1 1 1 1 1 1 8 1-2 1-8 1 7v-4l1 4h1l1-4 1-1v4h1l1-4h1l1-1v-6h2l1 4 1-7v2l1-4 1 4 1 4 1 1v-4l1 1 1 1 1-1 1-6v3l1 3 1 4 1 4 1-2v-2h1l1-3h2l1-4 1 12 1 1 1 5v-4l1-2h1l1-1 1-12 1 6 1 1 1-1v2l1-4 1 2 1 2 1 1v2l1 1h1l1 3 1 2v-2l1-3 1-2 1-5 1-3v-1l1 3 1 4 1-6h1v-4l1 3 1-14 1 9 1 3v-1l1-11 1 7 1 1 1 1v-2l1 5 1 10 1-3 1 1v-2l1-3 1 3 1 3h1l1-4h1l1-1 1 1v-5l1 4 1-1 1-4 1 4v-4l1 6 1-3h1l1 1v-3l1-1 1 4 1-4 1 8v-1l1-5 1-6 1-2 1-1V9l1-9 1 8 1-1 1 8 1 7 1-7h1l1 35v-3l1-8 1 4h1l1 4v3h1"/></svg>