<svg xmlns="http://www.w3.org/2000/svg" width="135" height="50"><path fill="none" stroke="#ed5565" stroke-width="1" d="m0 13 1-3h1v1l1 4 1 3 1-2 1-4v1l1 1h1l1-1 1-2V9l1 2 1-4 1 1 1-1v6l1-2h1l1 2 1 2 1 3 1-1 1-2 1 3 1-1 1-1h1l1-2v2l1 2 1 1 1-3 1 1v-2l1 4 1 2 1-2h1v4l1-3 1-1 1-4 1-2v-1l1 2 1-1h1l1-4v5l1-3 1-1 1 1 1 1V9h3l1-2V4l1 3h1l1 3 1 1V9l1 1 1-1 1 3 1-2 1-2 1 5 1 2 1 3v-4l1-1 1-2 1-2 1-2V6l1-1 1-2 1-1V1l1-1 1 4h1l1 2 1 5 1 1 1 2h1v-1h1l1-2 1 1h1v2l1-2 1 6h1l1-5V9l1-1 1-2 1 2 1 2V6h1l1 9 1 4 1-1v1l1 2 1 5 1 1 1-3v-1l1 2 1 2 1 1 1-1 1-4 1 1 1-1h1v2l1 1h1l1-1 1 1v-1h1l1-2 1 1 1-4 1 3 1 2 1 2 1 2v-1l1-1h1l1 1 1 1v-2h1l1-1 1-1 1 1v2l1 2 1 3 1 2 1 12v-3l1-2 1 3 1 1 1-1v2l1 3"/></svg>