<svg xmlns="http://www.w3.org/2000/svg" width="135" height="50"><path fill="none" stroke="#ed5565" stroke-width="1" d="M0 45h1l1 1v1h1l1 2 1 1 1-2v-1h5l1-3 1 1 1-1v2h3l1 1h1l1 2 1-1 1-1v1l1 1 1-4 1 1 1-1v1l1 2h1l1-2 1 1h1l1 1 1-1h1v2l1-1h1l1-1 1-2h1l1 1h1l1-3v2l1-1h1l1 1 1 1v-1h4v-1l1 3 1 1 1 1 1-1h3l1-1 1-1 1 3 1-1 1 1v-1l1-1 1 1h1l1-1v-1l1 1h2l1-1 1 1 1 1h3l1 1 1 1 1-2 1 1 1-1 1-1 1-1h2l1-3v-1h1l1-3 1 2 1 1v-1l1-1 1-1h2l1 3 1 3h1l1-1v-1l1 1 1 1 1 1 1-1v1l1-8 1-38 1 12 1-7v7l1 8 1 1 1-5 1-3v10l1 13 1-1 1 1 1-1 1-4 1 6 1-1 1 3 1-4 1 3 1 1 1 1v-6l1 3 1-3h2v1h1l1 2 1-3 1 13 1-1 1-2 1 1 1 2 1 2"/></svg>