<svg xmlns="http://www.w3.org/2000/svg" width="135" height="50"><path fill="none" stroke="#ed5565" stroke-width="1" d="m0 3 1-1 1-2v4l1 8 1 1 1 3 1-1v-3l1-3 1-2 1 2h1v4h2l1-1 1-2V9l1 1 1-1h1l1-7 1 2 1-1 1 1 1 2v4l1 1 1-1h2v3l1 1h1l1-1 1 1 1 2 1 8 1-2 1-2v1h2l1-1 1-2 1-1 1-1 1 3 1 1v2h1l1-1 1-1h1v-1l1 2 1 1 1-1 1-2v-1l1-3 1 1 1 2h1v-1h1l1 1 1 1 1-1 1-2 1 4 1 1h1v-1l1 1h1l1 4 1-1v3h2l1 1v-2l1-3h3v1h1l1 2 1 1 1 2v3l1 6h1l1-4h1v-1h1l1 2 1 2 1-3v-1l1 1 1-1 1 1 1-1v2l1 1 1 3 1 1 1 1v-2l1 2 1 1h2v4l1-3 1 1 1 1 1 1h1l1 1 1-3 1 3v-1h1l1-3 1 2h1v-1l1-1 1-1h1l1-2v-4l1 1 1 2 1-1h1v-1l1-1h1l1 1 1 3v2l1 1h1l1-2h1v1l1 1h1l1 1 1 1 1 2h1l1-1 1 1v2l1 1"/></svg>