<svg xmlns="http://www.w3.org/2000/svg" width="135" height="50"><path fill="none" stroke="#ed5565" stroke-width="1" d="M0 23h1l1-1v1l1 4h1l1 3 1-3v1l1 1 1-1h2v1l1 1 1-1h3l1 1 1-1 1 4v3l1-4 1-1 1 1 1 1 1-2 1-1h2l1 1 1-1 1-1h1v2l1 2h1l1-1h1v-1l1 1 1 4 1 13 1-9v1l1-2 1 6 1-3 1 2v1l1-3 1 4 1-2 1-2v1h1l1 2h1l1-1v3h1l1-2h1l1-2v3l1 1h1l1 3 1-1 1-2 1-3h2v-3l1 3 1-1h1l1 3v-1l1-2 1 1h1v3l1 1 1-15 1-7h1v2l1-1 1-9 1-10 1 1v7l1 1 1-7h1l1-4V5l1 2 1-1 1 1 1-5V0l1 5 1 4h2v1l1-1 1 4 1 3 1 2 1 2 1 2 1 2 1 3v-2l1 1 1-4 1 4 1-1 1-1h1l1 1 1-2v1h2l1-1h1l1-1 1 4h1l1 2h1l1 2h1l1 1v2l1 4 1-1 1 1 1-1v-2h1l1-1h1l1 1 1-1 1 1h1l1 3 1-4h1l1 2 1-1v-1l1 2"/></svg>