<svg xmlns="http://www.w3.org/2000/svg" width="135" height="50"><path fill="none" stroke="#ed5565" stroke-width="1" d="m0 20 1 3 1-5v2h1l1 1h1l1-3v5l1 1 1-3h1l1 1v-3l1 1 1-1h2v-1l1-3 1-11 1 12 1-14V1l1-1 1 14h1l1 2v-1l1 3 1-4 1-1 1 1v-2l1-6 1 9 1-1 1 3v-2l1 4 1-2 1-1 1 1v4l1 4 1 4 1-8 1 9v1l1-8 1 10 1 5 1-2 1-10 1 11 1 1 1-1 1-7 1 9h1l1 1V29l1 9 1-2h1l1-1v-5l1 3 1 2 1-6h1v4l1-4 1 5 1 9 1-9v1l1 3 1 1 1-10 1 8v1l1 2h1l1-2V26l1-1 1 2 1 11 1 1v4l1-8 1-2 1 2 1 1v1l1-3 1 6 1-2 1-13v23l1-2h2l1-5v6l1-3 1 6 1-5 1-2V23l1 19 1-2 1 4 1 1v-4l1 8 1-3 1-20 1 14V18l1 3 1 20 1 3 1-12v1l1 8 1 4 1 2 1-1V35l1 11 1-11 1 11 1 2v-1l1-12 1 13h1l1-12v11l1 1h1l1-6 1-9v-1l1 7 1-6 1 8 1-7v6l1 7 1-12 1 13h1V33l1 14h1l1-11 1-2v1l1 5 1 8 1-2 1-12 1 5"/></svg>