<svg xmlns="http://www.w3.org/2000/svg" width="135" height="50"><path fill="none" stroke="#ed5565" stroke-width="1" d="m0 11 1-1 1 3v2l1 2 1 6 1-2 1-5 1-3 1 6 1 3h1v-6l1-9 1-7 1 7 1-2v8h1l1 2 1-4 1-2V6l1 6 1 3 1-2 1 1v5h2l1 1 1-2 1 5h1l1-10 1 1v-4l1 3 1-1 1-4h1v4l1-4 1 2 1 1 1-4 1-2 1 1 1 2 1-3V2l1-2 1 1 1 4 1 2V4l1 1 1-3 1 2h1V1l1 2h1l1 6 1-3v2l1 1 1 1h2l1 1 1 7 1 2h1v-7l1 3 1 6 1 2 1-6v2h1l1-3 1-8 1-5 1 2h1l1 2V6l1 3h1l1 2 1 2v1l1 2h2l1-2v3l1 2 1 1 1-3 1-2v-3l1 3 1-5 1 3 1 5v-1l1-1 1 2 1 6 1 3v3l1 1 1 4 1 4 1-3v-3l1 2 1 3 1 1 1 1v-3h3l1 1 1 2 1 1 1 2h1v1l1 5 1-2 1 1 1-1v-2l1-2 1-2h2v-1l1 1 1 1 1-3 1 1v-3l1 1 1-2h1l1-1v5l1 3 1 1h1l1 6v-1l1-3 1-3 1-4 1 5v1l1 2"/></svg>