<svg xmlns="http://www.w3.org/2000/svg" width="135" height="50"><path fill="none" stroke="#ed5565" stroke-width="1" d="m0 2 1 3 1-5v10l1 1 1 3 1-3 1-1 1-1 1 4h1l1-1v1h1l1-2 1 3h1v4l1 4 1-2 1-3 1 2 1 3 1 8 1-2h1v3l1 3 1-1 1-1h1v1l1 3 1 1 1-3 1 3v-3l1 2 1-1 1-3 1-2v-1l1 1 1 1h1l1 1v1h1l1 3 1-2 1-3v4h1l1 1h1l1 1v-3l1-2 1 2h1l1-2v-2l1 5 1 1 1 2 1-2v1l1 1 1-2 1-3 1-1v1l1-2 1 1 1 1h1v-2l1-3 1-5 1 1 1-4v-2l1 2 1-2 1-1v-2l1 2 1 4 1 1 1 3v-1h4v-5l1-19 1 2 1 9 1-4V4l1-1 1-2 1 3 1 4v3l1-3 1 2 1 2 1 1v1l1 1 1 3h1l1 2v3l1 4 1 3 1 2 1-1v-2l1-1h3v1h3l1-1 1 1 1-1 1-2 1-3v-1l1 6h2l1-1 1 1h1l1 1 1 2 1-1 1-1 1 1 1 1v-1h1l1 1 1 5 1 1v1l1 4 1-1h1l1 9v-4l1-4 1-2 1 2 1 1v2l1-2"/></svg>