<svg xmlns="http://www.w3.org/2000/svg" width="135" height="50"><path fill="none" stroke="#ed5565" stroke-width="1" d="m0 16 1-3 1-4 1 3 1 8 1-2 1-6v2l1 3 1-1 1 1 1-7h2l1-2 1-1V0l1 10h1l1-1h1v1l1 1 1-3 1-2h1V3l1 2 1 1 1 4h1v1h1l1 5 1-4 1 5v-3l1 5 1 6 1 4 1-8v5l1 6 1 3 1 1 1-1v-1l1 5h1l1-2 1-4 1-1 1 2 1 1 1 5v3l1-7 1-1 1 2 1 7v-2l1 3 1 1 1 4 1-6v1l1-3 1-2 1 2h1v1l1-1 1-4 1-1 1 2v1l1-16h1l1 1 1 2v-1h1l1 2 1-1v2l1-3 1-1h1l1-12v9l1 2 1 6h1l1-1 1-1h3v-1l1 3h1l1 1 1-1v1l1 2 1-1 1 5h1v1l1-3 1-1 1 1 1 1 1-1 1-2 1 3 1 1v-5l1 1 1-1 1 2 1-9v2l1 3h1l1 3 1 1v2l1 2 1 1 1-3 1-1 1 1h1l1-1 1-1v-1l1-2 1-1 1 1 1 3 1-3 1 5h1l1-3v3h2l1 1 1 3v-2l1 4 1-2 1 2 1 5v-2l1-3 1 1 1 1 1-2v2l1-6"/></svg>