<svg xmlns="http://www.w3.org/2000/svg" width="135" height="50"><path fill="none" stroke="#ed5565" stroke-width="1" d="m0 23 1-1 1 2v2l1 4 1 9 1-6 1-1 1 2 1-1 1-2h1v3l1-4 1-1h1l1 3v-1h1l1-1 1 2 1 1v1l1 5h1l1 2 1-1v-3l1-3 1 1 1 2 1-1v3l1 2 1-3 1 4h1v2l1 1 1-2 1-1 1 3v-2l1-2 1-5 1-2h1v-2l1 2 1-2 1-4 1 5v-2h1l1 2h1l1-2 1-1 1 1 1-4 1-3v4l1 3h1l1-3 1-1v-2l1-3 1-1 1-5h1v-1l1 4h2l1-7v7l1 1h1l1-4h1v-2l1-1 1-1 1-4V3h1l1 1 1-2 1 1v5h1l1 5 1 2h1V9l1-2h1l1-1 1-3 1 4 1-2 1-3h1v1l1-3 1 4 1 2 1-3V1l1 2 1 4h1l1 2v4l1 7 1-1h1l1-2v-1l1 3h3v-1h1l1-1h2v3l1-3h1l1 2 1 1v1h1l1-3 1 2 1 1v1l1-1 1 4 1 1h1v-3h1l1 1 1 1 1-1v1h3l1 4 1 1h1l1 9 1 3v-3l1 1 1-1h1l1 4 1 7"/></svg>