<svg xmlns="http://www.w3.org/2000/svg" width="135" height="50"><path fill="none" stroke="#ed5565" stroke-width="1" d="m0 23 1-1 1 2 1 1h1l1-1 1-2 1-2 1 2 1-1 1-1v-3h1l1-3h2v2l1-1 1-1h1l1 1 1 4 1 4 1-4 1 2v4l1-1 1-2 1-1 1 2 1 2 1 1 1-5 1 4v-1l1 4h1l1-1 1-1 1-1h1l1-3 1-2v1l1-3 1-2 1-9 1-7v1h1l1 2 1-1 1 4V3l1 1h1l1 1 1-1 1 2 1 2 1 5 1 1v1h1l1-1 1 1h1l1 1 1 7h1l1 1v-1l1-1h1l1-3 1-1v1l1-1 1 1 1-1v-2l1-1h1l1 1 1 1v2l1 1h1l1 2 1 1 1-1 1-1h1l1-4h2l1-1 1-2v-3l1 1 1-6 1 1 1 3V9h1l1 2h1l1 1v3l1 1 1 3 1 1 1-2h1l1 2 1 1h1l1-2h1l1 1 1-2 1 2 1-1h2l1 1 1-1 1 2 1-1 1-1h1l1 1 1 1v-1h3l1 2h2l1-1 1 1v3h2l1 2 1 19v2l1-5 1-1 1 4 1 2v-1l1 3"/></svg>