<svg xmlns="http://www.w3.org/2000/svg" width="135" height="50"><path fill="none" stroke="#ed5565" stroke-width="1" d="m0 20 1-2 1 3v1l1 2 1 5 1-2 1-4v-1h1l1 2 1-3 1-2v-6l1-6 1-7 1 3 1 7v2l1-4 1 1h1l1 3v2l1 1 1 3 1-3 1-3 1-2 1-1h2v3l1 3 1 2 1-5 1 5v-5l1 2 1 5 1-3h1v2l1-3 1-3 1-2 1-2 1 1 1 2 1-1 1-4v4l1-3 1-2 1 3 1 2h1l1 1 1 1 1-2V3l1 7 1 3 1 2 1-3 1-2h1l1 2 1 1 1-2 1 4 1-2 1-2V8l1 2 1 2 1 1 1-1 1-1h1l1 1 1-5 1 3h1l1 2v2l1 2 1-2 1 2 1 3v1l1-4 1-2 1-1 1-1V9l1 3 1 1h1l1-2V8l1 1 1-8 1 7 1 3V8l1-3 1 2 1 3h1v2l1 2 1 3 1-1 1-3 1 2 1 1h2l1-1 1-1h1l1-1 1 3 1-2 1-3h1l1 2 1-1 1 1 1-1v-1h1l1 2 1 1 1 2v3l1-3 1-2 1 3h1v-2l1 1h2l1 2v7l1-1h2l1 19v-3h2l1 2 1 1v2l1 5"/></svg>