<svg xmlns="http://www.w3.org/2000/svg" width="135" height="50"><path fill="none" stroke="#ed5565" stroke-width="1" d="M0 4h1l1 1v1l1 1 1 1 1 5 1 3v-3l1-1 1 1 1 2 1-4 1-1 1-2h1l1-6v1l1 1 1-1h1l1 4v1l1 1h1l1 1 1 1v1h1l1-1h1l1 1v1l1 1 1 9h1l1-1 1 1 1 2 1-1h1v1l1-1h2l1-1v2l1 1 1 3 1 1 1-1h1l1-4h2v-1h4v-1l1 1 1 3 1 1 1-1v1l1-1 1-1 1 1h1l1-6 1 5 1-3 1-1v-3l1 3h2l1-1v-3l1 1h1l1-1 1-1h1l1-8 1-1 1 1 1 2 1 3 1-1 1-6 1 2h2V7l1 1h1l1-1 1-4V0l1 4 1 12 1 3h1v1l1-2 1 2h1l1-1v4l1 2 1-2h1l1 4v-1l1-4 1 1 1-1 1-1v3h1l1-1h1l1-1 1 1 1-1h5l1-1v1l1 2 1 4 1-4 1 1h1l1 5 1 2h1v-1l1 1h1l1-1 1 1 1 1 1 2h1l1 1 1 3h2l1 5 1 6"/></svg>