<svg xmlns="http://www.w3.org/2000/svg" width="135" height="50"><path fill="none" stroke="#ed5565" stroke-width="1" d="m0 39 1-5 1 4v2l1 3 1 6 1-8 1-6v2l1-1 1 8 1 2 1-6v-4l1 1 1-8 1 7 1-2v8l1-1 1-5 1-1 1 3v2l1 4 1 4 1-4 1 2 1-2 1-1 1-1 1-2v3l1 4 1 1 1-8 1 4v1l1 3h1l1-3 1-3v3l1-2h1l1-6 1-4v1h1l1 3 1-1 1-5v2l1-2 1-2 1 6 1 1v-3l1 3 1-3 1 2h1v-4l1 5 1 4 1 7 1-1v-1h1l1-7 1 1 1-4v4l1-2 1 8 1-1 1 6v-3l1-2 1 5 1-2 1-7v1l1-2h1l1-2 1-9 1 6h1l1-1v1l1 1 1-1 1 3 1 2v-1l1-9 1-3 1 3 1-8v-4l1 5 1 3 1-2 1-1v-5l1 4 1-6 1 7 1-5V9l1-5 1 7 1 4 1 1v1l1 3 1 4 1-1 1-7 1 1 1 2 1 3 1-3v5l1-3 1-3 1 2 1-4v-1l1 3 1-5 1 1h1v-1h1l1-1 1-3 1 2v-1h1l1-2 1 2h1V8l1-5 1-3 1 5h1V1l1 4 1-4h2v7l1 1 1 3 1 2 1 17v-1l1-7 1-1 1 2 1 4v6l1 9"/></svg>