<svg xmlns="http://www.w3.org/2000/svg" width="135" height="50"><path fill="none" stroke="#57bd0f" stroke-width="1" d="m0 47 1-1h1v1l1 1 1 1 1-2 1-1h1l1 1h1l1-1h1l1-4h1l1 1v2l1-2 1 1h1l1 1h1l1 2 1-1 1 1v-1l1-1h2l1 1 1 2h1l1-2 1 2v-1l1 1h1l1 1h1v1h1l1-1h1l1-2v-1l1-1 1 1h1l1-4v-1l1-2 1 2h1l1 2v-1l1 1 1-1h1l1-1 1-1 1 1 1 2 1-2v-3l1-5 1-3 1 2 1 1v1l1-1 1 3 1-2 1-2v-3l1 1 1 2 1-1 1-1v-1l1-1 1 1 1-2v3l1-6h2l1 4v-3l1 1h1l1 1 1 1v-1l1-6 1-2 1-1 1-3v2h2l1-1h1v1l1 1 1-18 1 2 1 1v5l1 3 1-2 1 1 1 1V9l1 2 1-2h1l1-1v1h1l1 5 1-1 1 1v-3l1 1h2l1 2v1l1 4 1-1 1-1 1-2 1 2h1l1-1 1 1v-1l1 2 1-1 1 4 1 2 1-2 1 2h2v-2h1l1-1h2v2h2l1 2 1 8v-3l1-4h1l1 1h1v1h1"/></svg>