<svg xmlns="http://www.w3.org/2000/svg" width="135" height="50"><path fill="none" stroke="#ed5565" stroke-width="1" d="m0 15 1-2 1 2V0l1 7 1 5 1 2 1-5v5h1l1 1 1 3 1 1v1l1-2 1-1 1 10 1 1 1 2 1 1 1-1 1 1h2l1-4h1v4l1-2 1-1h2l1-2h1l1-1 1-6v4l1 4h1l1-8 1 1v2l1 1 1 1 1-4 1-5v-5l1 2 1 1 1 2 1-10v7l1 3h1l1 1 1 7v-1l1-3 1 1 1 3 1-1v1l1 2 1 3 1 3 1-3v-2l1-2 1 2 1 1 1 1v2h1l1 4 1 2 1-1v-2l1-1 1 1 1-2h3l1 1 1-1 1 1 1 1 1 3v3l1-2h1l1 2h1v2l1-1 1-1 1-2 1-3v-1l1 1 1 2 1-2 1-2 1 1 1-2 1-5 1 2v-1l1 2 1 2 1 1h1v1l1 4 1 3 1 1 1 1v-3l1 2 1 2 1 2 1-2 1-1h2l1 1v-1h1l1-1 1-1 1 1v1h3l1 1 1 7 1-7 1-1 1 3v1l1-1h2l1-3v1h2l1 1 1-1 1 2h2l1 3v1l1-9 1 1h1l1-4v-1l1 5"/></svg>