<svg xmlns="http://www.w3.org/2000/svg" width="135" height="50"><path fill="none" stroke="#ed5565" stroke-width="1" d="m0 43 1-2 1 1v-1l1 5 1-1 1-1 1-3v1l1-1 1 1h1l1-7v-2h1l1-4 1 2 1 1v1l1-2 1-1 1 4 1 1v-1l1-6 1-1 1-7h1v-5l1-2 1 6h1l1-5v-4l1 7 1-1 1-3 1 4v-2l1 5 1 1 1-2 1 2v1h1l1 2 1-5 1 1v-1l1 1 1 2h2v2h1l1-1h1l1 2 1 1 1-1 1-2 1-2v-1l1 2 1 3 1-1h4l1 1V15l1-6 1 10 1-3 1 3v3l1-4 1 4h1l1-1v-1h1l1 1h1v-1l1-3 1 2 1-2 1-1 1-3 1 1 1 1 1 3v2l1-3h2l1-3v2l1 2h1l1-2 1-7 1-4 1-1 1 3 1-2V4l1-3 1-1 1 7 1-1 1 3 1 5 1 1 1-2 1 2 1 1 1 2 1 1v-1l1-3h1l1 5h1v1l1 1 1 1h2l1 3 1-2 1 1h2l1 1 1-2 1 2v-1l1-2 1 1 1 7 1 2v-1h1l1-1h1l1 2v-1l1 3h2l1 5v-1l1 1 1-1 1 1 1 7v2l1 1"/></svg>