<svg xmlns="http://www.w3.org/2000/svg" width="135" height="50"><path fill="none" stroke="#57bd0f" stroke-width="1" d="m0 41 1-2 1 2v1l1 4 1 4 1-5 1-2v1h1l1 2h1l1-2v-2l1 2 1-4 1-4 1-9v3l1-2 1-3 1-4 1 8v-2l1 1 1 1 1-2 1-1 1-2 1-3 1-1 1 4 1 4 1-2 1-7 1 7v-5l1 2 1 3 1-2 1-3 1-1 1-4 1-2 1-1v-3l1-3 1 2 1-2 1-7v7l1-1 1-2 1-1 1 1 1 2 1-1 1 2 1 2v2l1 7 1 1 1 3 1-5 1-1 1-5h1l1-2v1h1l1 5 1 1h1V6l1 15 1 2 1 1 1-3v4h1l1 2h1v2l1-3 1 2 1 1h1v2l1 3 1-1h1l1 3v1l1-2 1-3 1-3 1-5v-5l1 1h1l1-4 1-2V7l1-3 1-4 1 8 1 2V9l1-4 1 3 1 3 1-2 1 5 1 6h1l1-3v-2l1 1 1 2h1l1-3h1l1-1h1l1 1 1 1 1-3 1-1 1 1 1 2 1-2h1l1-2V8h1l1 4 1 3 1-2 1-5 1-1 1 2 1-1V7l1 1 1-3h1l1 2v4h1l1 1 1 2 1 18v-5h1l1 2 1-1h1v3l1 3"/></svg>