<svg xmlns="http://www.w3.org/2000/svg" width="135" height="50"><path fill="none" stroke="#ed5565" stroke-width="1" d="m0 8 1-2 1 2 1 4 1 1 1-3 1-2v1l1-3 1 5 1 1 1-2V7h1l1-7 1 1 1 2v3l1 1 1-2h1l1 2v1l1 2 1 1 1-1 1 4v2l1-1 1-4h1l1 2v2l1 3h1l1-5 1 3 1 1h1l1 2h1v3l1 1 1 3 1-4h1v1l1-1 1 3h1l1-5v2l1-1 1-2 1 2 1 2v-1h1l1-1h1l1-2v-4l1 6 1 1 1 3h1v-1h1l1-1 1 1 1-1 1-2 1 3 1-1 1 1v-7l1 11h1l1 1 1-3 1-2h1l1-2v-1l1-3 1 4h1l1-1v-1l1 1 1 1 1 1 1 1 1 1h2l1-2v-1l1 2h1l1-2 1-7v-5l1 4 1-5 1 5 1 2v-2h1l1 4 1 1 1-1v1h1l1 9 1 1 1-3v-2l1 1 1 3 1 2 1-2v1l1-1 1 1 1 1h1v-2h1l1-3h2l1 2h1l1-1 1 1v-1l1 1 1-1 1-1 1 1v-2l1-3h1l1 1h1v-1l1 1 1-1 1-1 1 2v2l1 2 1-1 1 1 1 14v-3h1l1 2 1 3 1 2v2l1 4"/></svg>