<svg xmlns="http://www.w3.org/2000/svg" width="135" height="50"><path fill="none" stroke="#ed5565" stroke-width="1" d="m0 9 1-2h1v3l1 1 1 3 1-2 1-1V9l1 1 1-2 1-1 1-4v3h1l1-4 1-1 1-1v3l1-1 1 1 1-3 1 4 1 1 1 3 1-2 1 1v4h1l1-6 1 3 1 1v1l1 9 1 7 1-6 1 2v-5l1 6 1 4 1-3h1v-3l1 1 1 2 1-2 1-3v-1l1-1 1 1 1 3 1-12v2h4l1 1 1 3 1-3h2l1 2 1 3h1v1l1-6 1 2 1-4 1 3 1 3 1 5 1 2 1 1v-1l1-3 1-1h1l1-2v4l1-3 1 1 1-1 1-3 1 3h1l1-1v1l1 2h1l1 2 1 3v-1l1-2 1 3 1-3 1-4 1-7h1l1 2 1-3V7l1 5 1-8 1 4h1v2l1-1 1 2 1 1h1l1 4 1 14 1 1 1-2v-1l1 3h1l1 2 1-2v1l1-5 1 2 1-1 1 1 1 1 1-1 1 1h1l1-1h1l1-1 1-3v5l1-2h2l1 1v-1l1-3 1 3h1l1 2v3l1-1h1l1-1 1-2v7l1 2 1-1 1-1 1 8 1-4 1 4h1l1 1v2l1 3"/></svg>