<svg xmlns="http://www.w3.org/2000/svg" width="135" height="50"><path fill="none" stroke="#ed5565" stroke-width="1" d="m0 27 1-2 1 1v-2l1 5 1 6 1-3 1-10v1l1-8 1 6 1 4 1-2v2l1 2 1-6 1-1 1 1v2l1 1 1-4 1 1 1 2v3l1 3 1 3 1-5 1 6v4l1-2 1-5h1l1 2v5l1 1 1 4 1-11 1 7v1l1 8 1 3 1-7 1-2 1-1 1 2 1-10 1-4v-3l1-1 1 6 1 4 1-13v2l1 2 1 1 1 2 1 6v-5l1 2 1-2h1l1 1v-6l1 1 1 6 1 3 1-5v3l1-2h1l1-1h1v2l1-2 1 14 1-4 1 2v-2l1-6 1 4 1-2 1-3v2l1-3 1 1 1-3v-1l1-4 1-1 1 2 1-1v1l1 4h1l1 5 1 3v2l1-5 1-1 1-1 1-5v-5l1 4 1-2h1l1-10V0l1 13 1-9 1 8 1 2v-4l1-3 1 6 1 1 1-2v2l1 4 1 18 1 1 1-1v-8l1 8 1-3 1 4 1-4v3l1-10 1-2 1 1h1v-1l1 2h2l1 1v2h1l1-1 1-1h1v-1l1 1 1-1h1l1 7v-5l1-4 1 1 1 3h2l1-1 1-2 1 1v4l1 1h1l1-1 1 9v-2l1-1 1 1 1 2h1v2l1 2"/></svg>