<svg xmlns="http://www.w3.org/2000/svg" width="135" height="50"><path fill="none" stroke="#57bd0f" stroke-width="1" d="m0 47 1-3 1 1 1 1 1 4h1l1-2 1 1 1-2 1-3 1-3v-3l1-5 1-4h1l1-13V5l1-2 1-1 1-2 1 3v4l1 4 1 3 1-2 1 3 1-1 1-1 1 2h1v2l1 1 1-1 1-1h1v2l1 1 1 2 1-4 1 3 1 1 1 2 1-2h1v-3l1 2 1 3h1l1-2v1l1 1h1l1 1 1 1v-1l1 1h2l1-1v-1l1 1 1 1h2v1l1-1 1 1h2v-1l1 1 1 5h1l1 1v-6l1 2h1l1-2 1 1v1h1l1-1 1 1v-2l1 1 1-1 1 1h1l1 1 1-1h2v2l1-1 1 1 1-1 1-2v-4l1-1h1l1 1 1-2v-2l1 1h1l1-1 1 2v-3l1 2h1l1 2h2l1 3 1 1h4l1-1v1h1l1-1 1 1 1-1v1h5l1 1h6v1l1-1 1-1 1-1 1-1h1l1 1 1-2 1 1v3l1-2 1 1h1l1 1v1h2l1 1 1-1 1 1"/></svg>