<svg xmlns="http://www.w3.org/2000/svg" width="135" height="50"><path fill="none" stroke="#ed5565" stroke-width="1" d="m0 6 1-2 1-3v2l1-2 1-1 1 2 1 5v3l1 1h1l1-2h1v1l1-1 1 1 1-1 1 1h1l1 1 1-1 1-1v15l1-2 1 4 1 1h1V17l1 10 1 1 1 2 1 2 1-5h1l1-1h1v-5l1 1 1 7 1 1h1v1l1 2 1 8 1-3 1-2v2l1 2 1 1 1-7h1v1l1-2 1 2 1-1 1 1 1-1h2l1-1v2l1-1 1 2 1-2h4l1 1 1 1 1 1 1 1 1 2v-1l1 1 1-2h1l1-2 1 2h2l1-2 1-3 1-1h1V19h2l1 1 1 3v-1l1 17 1-5 1-3 1 2v-3h1l1-4 1-2h1v1l1-1 1 3 1-2h1v3l1-1 1 1h4l1 1 1-2v1l1 14 1-2h1l1-6v12l1-1 1-7 1 11 1 1v-1l1-1 1 1 1-1 1 1v-2h1l1 1 1-9 1 7v-2l1 3 1 1 1-2h1v1l1-1 1-1 1 2h1v-1l1 1 1 1 1-1h5l1-1 1 2 1-1 1-1v2l1-1"/></svg>