<svg xmlns="http://www.w3.org/2000/svg" width="135" height="50"><path fill="none" stroke="#ed5565" stroke-width="1" d="m0 19 1-3 1 1v7l1-7 1 8 1-2 1-4v1l1-1 1 5 1 2 1-2v-7l1-1 1-8 1 9 1 3v2h1l1 4 1-4 1 3v1l1 5 1 3 1-5 1 3v1h1l1-1 1-2h1v2l1 5 1-2 1-4 1 3v-4l1 4 1-2 1-3 1-3v2l1-1 1-3h1l1-4v-4l1-3 1 3 1 4 1-2v6l1-2h1l1 4 1-1v-3l1 1 1-2h1l1-6v1l1 5 1 3 1 1 1-3v2l1-1 1-1 1 1 1 1v-1l1 2 1 2 1-1 1 2v-5l1-6 1 2 1-1h1v-2l1-3 1 1 1-1v-3l1-2 1 3 1-1 1 1V8h1l1-2 1 6 1 5v1l1-1 1-5 1 1 1-4 1 2 1-1h2V5l1-2 1-3 1 9 1 3v-1l1-2 1 3 1-2h1v1l1 1 1 6 1 3 1-3v-1l1 4h1l1-1 1 2v2l1 2 1-1 1 1 1-1v1l1 2 1-4 1-1h1v3l1 3 1-2 1-2h1l1-4h1l1 3 1 3 1-2 1-1 1 1 1-1v1l1-1h2l1 1v4l1 2h1l1 4 1 9v-3h1l1 1 1 2 1-1v5l1 2"/></svg>