<svg xmlns="http://www.w3.org/2000/svg" width="135" height="50"><path fill="none" stroke="#57bd0f" stroke-width="1" d="m0 31 1 1h1l1 2 1 1 1-2 1-2h1l1 1 1 1h1v-2l1 1 1-2h1l1 1v1l1 2 1 1 1 4 1 5v5l1 1 1-3 1-3h1v-1l1-3h1l1 1 1-1v1l1 3h1l1-1 1 3v1l1 2 1-1h1l1 2v-1l1-3 1-1h1l1-5v-3l1-1 1 1 1-2 1-4v1l1-2 1 1h2l1-1 1 1h1l1 2v-3l1 2 1 1 1 1h1l1-1h1l1-1 1 1h1l1 2 1-1h1v-2l1-2 1 1 1-1 1-3v-2l1-4 1-5 1 3v5l1-5h1l1-8 1 5v-3l1-1 1 3 1 2 1 2 1-3 1-3 1-1 1-1V8h2l1 2 1-2V3l1 2 1-5 1 5 1 2V6l1-2 1 3h1l1 2v2l1 2 1 2 1-1 1-1v-2l1-2 1-1 1-2 1 1V6l1 3 1-1 1-3 1 1h1l1-3h2l1 3 1-2h1l1 3 1 1 1-2 1 4 1 2v-1l1 1 1-1h1l1-1v1l1-2h1l1-2 1-1v2l1-1 1 1 1 3 1 7v-8l1-1h1l1 1 1 1v3h1"/></svg>