<svg xmlns="http://www.w3.org/2000/svg" width="135" height="50"><path fill="none" stroke="#57bd0f" stroke-width="1" d="m0 41 1-4 1-3v-1l1 3 1 7 1 4 1-11v-2l1 1 1 1 1 2 1-3v-2h1l1-3 1-2 1 2v3l1 3 1-2 1-3 1-3v1l1 6 1 2h1l1 1v2l1-3h1l1-1 1 1v1l1 4h1l1-3 1 9v-2l1 2 1 2 1-2 1-1V36l1 9 1-2h1l1-5v1l1 4 1-6 1 3 1-8v3l1-3 1 2 1 2 1-2v-2l1 4 1-2 1-2 1 1v-5h1l1 1 1 6 1-3v1l1 5 1-3 1-9 1 8v4l1-3 1 4 1 1 1 1v-3l1-2 1 2 1-3 1 1v-1h1l1-8 1-15v3l1-1 1-1 1 1 1 2v4l1 2 1 3h1l1 4v6l1-15 1-1 1 9 1-13v8l1-4h1l1-3h1V9l1-2 1-3h1l1-4v7l1-2 1 4 1-2 1-2v9l1 4 1 15 1-1 1-5v1l1-2 1-4 1 8 1-4 1-2 1-1 1 1 1-7 1 3 1 1h1l1 1v-2h1l1-4h3l1-2 1-1h1v-2l1-4 1 2 1 5h1v2l1 1 1 1 1-2 1 4v5l1-1 1 5 1 1 1 11v-2l1-11 1 6 1 1 1 2 1-6"/></svg>