<svg xmlns="http://www.w3.org/2000/svg" width="135" height="50"><path fill="none" stroke="#ed5565" stroke-width="1" d="m0 34 1 3h1v2l1 5 1-3 1-4 1 1v-2l1 3 1-2 1-2 1-2v2l1-7 1 2 1-1 1 5 1-1h1l1 1 1 1v3l1 2 1-4h1l1 1v-2l1-2h1l1 2 1 1v4h1l1-6 1 4 1-1v1l1 1 1-1 1-8 1 2v-1h1l1-4 1-1h2l1-1 1-5 1 2h1l1 2h1l1-2v1h1l1 1h1l1-4v2l1 3 1 3 1-4 1 1v-4l1-4 1-7 1 4 1 2 1 6 1-1 1 1 1-3v-4l1 3 1 1 1-3h1v1l1-1h1l1 1v-2l1 3 1 1 1 2 1-1v2h1l1 2 1 3 1-1v-2l1-2 1-2 1-3 1-2v3l1-1 1-3 1-3 1-3v1l1-6 1 3 1-2 1-1 1 2 1 1 1-6 1 2v5l1 8 1 1 1-2 1-2h1l1 1 1-1h1v-2l1-2h2l1-2v4l1-4h2l1 1v4l1-1 1 2 1-2 1-1 1 1 1 4 1 1 1 2v-4h4v1h1l1-1h1l1 6v2h1l1 4 1 18 1-5h1l1 2h1l1 4 1 6"/></svg>