<svg xmlns="http://www.w3.org/2000/svg" width="135" height="50"><path fill="none" stroke="#ed5565" stroke-width="1" d="m0 0 1 3 1 2v2l1 2 1 13 1-6 1-8V5l1 1 1 5 1-2 1-1V7h1l1-7 1 5 1-1v4l1 1 1 1 1-1 1 2v2l1 1 1 2 1-3 1 1v3l1-1 1-1h2v1l1 5 1-3 1-5 1 3v-1l1 2 1 1 1-2 1-1v4l1-2 1 1 1-3 1-1 1-1 1 1 1-1 1-2v1l1-2h1l1 2h1v-1h2l1 1 1-1v1l1 2 1 2 1 2 1-3 1-1 1-3 1-2 1 2v1h1l1 4 1 2 1 10v-5l1-1h1l1 2 1-3v-2l1-1 1-6 1-1V9l1-3h1l1-2 1 2v3h1l1-2 1 2 1 4v-2h1l1-4 1 3 1-3v1l1 2 1 1 1-1 1-2V6l1 1 1-3 1 4 1 4v-2h1l1 5 1 1 1-4v4l1 3 1 4h1l1-1v-2l1 2 1 1 1-1 1-2v2h1l1-1h1l1-2 1-1 1-2 1 1 1 2 1 2 1-1 1-2 1 2 1 1h2l1 1v-2l1-1 1 2 1 1h1v-3l1 1h2l1 3v3l1 1h2l1 17v-2l1-1 1 1 1 3 1-1v1l1 5"/></svg>