<svg xmlns="http://www.w3.org/2000/svg" width="135" height="50"><path fill="none" stroke="#57bd0f" stroke-width="1" d="m0 40 1-2 1-2v5l1 3 1 3 1-1 1-5v1l1-4 1 4 1-3 1-2v1l1 1 1-7 1-2h1v6l1-2 1-5 1 2 1 1v4l1 3 1 2 1-6 1 1v-1l1 4 1 1 1 3 1-3v4l1 6 1-1 1-5 1 5v-5l1 2 1-3 1-2 1 6 1-4 1-3 1-5 1-4v-1l1-1 1 2 1 2 1-4v3l1-6 1-1 1 2 1 1v-1l1 2h2l1-1 1 3 1 1 1 2 1 1v1l1-2 1-10 1-3h1v2l1-1 1 5 1 2h1V19l1 6h1l1 2 1-5v2l1-1 1-2 1-1v1l1-4 1 6 1 1h1l1-2 1-1 1 2 1 1v-1l1-2 1-3 1-3 1-4V9l1-1 1 3 1-2 1 1V8l1 1 1-7 1 1 1 4 1-6 1 3 1-1 1-2V0h1l1 11 1 1 1-4V3l1 2 1 1 1 3 1 2V8l1 1h1l1-1h1V5l1 3 1-4 1-2h1l1 1h1l1-2 1 2V2l1 1h1l1 1 1 2 1-2 1 2 1 2 1 1V8l1 2h3v9l1 2 1 3 1 1 1 6v-3l1-2 1 5 1 4 1 1v1l1-5"/></svg>