<svg xmlns="http://www.w3.org/2000/svg" width="135" height="50"><path fill="none" stroke="#ed5565" stroke-width="1" d="m0 2 1-2 1 1v8l1 3 1 5 1 5 1-1v-2l1 1 1 1 1 2 1 8v-5l1 1 1-7 1-1 1-1v3l1 1 1-1 1-2 1-1v1l1 1 1-1 1 2 1-13V7l1-5 1 7 1-4 1 12v3l1-1 1-1h1l1-4v1l1-1 1 8 1-1 1-2v-1l1 1 1-1 1-3 1-3v-2l1 1 1 1 1 2 1 11v-4l1-1 1 1h1l1 4v1l1 8 1-5 1 2h1v-1h3l1-1v3l1-4 1-7 1-4h1v1l1 2 1 3 1 3 1-1v5l1-2 1 2 1 2 1-4v-1h1l1 3 1 5v-1l1-3 1 1 1-1 1-1h1l1-3 1 1h1v2l1-3 1 2 1 1 1 4v-1l1-2 1-3 1-1 1-2h1l1-2 1-1 1 1v-4h4l1 6 1 3 1-1h2l1 1h2v1l1-2h2l1 2v-2l1 1 1 1h2v1h3l1-3 1 1 1-1h1l1 2v-2l1 1 1 3 1 2 1 1h1l1 1 1 1 1 5v1l1 5 1-2h1l1 1v-3l1-3 1-1 1 1 1 2v1l1 7"/></svg>