<svg xmlns="http://www.w3.org/2000/svg" width="135" height="50"><path fill="none" stroke="#ed5565" stroke-width="1" d="m0 37 1 1 1-1 1-4 1 10 1-3 1-6 1-1 1 4h1l1-3v-2l1-2 1-6h1l1-3v10l1-1 1-2 1 1 1 4v3l1 2 1 3 1-5 1 1 1-1 1-1 1 1 1-1v3l1 5 1 1 1-4 1 5v-1l1 2 1 2 1-5 1-1 1-2 1 1 1-4 1-2v-2l1-1 1 4 1-2 1-6v4l1-2 1-1 1 2 1-1v-1l1 3h1l1-1 1-7 1 6h1l1 2 1-1 1 1 1-2 1-1 1 1v-2l1-3 1 1 1 2 1 5h1l1 2 1-1 1-2v-2l1-2 1-3 1-1v5l1-1 1 4 1 1h1v3h1l1-1h1l1 2 1-2 1-1h1l1-7v-3l1 3h1l1-2 1-3v-3l1 1 1-3h1l1 6v-7l1-2 1 1 1 2 1-1 1 1 1 13 1-2 1-2v-1l1 2 1 1 1 3h1l1-3 1-1h2v-1l1-26 1 5 1 1 1 3V4l1 7 1-1h2v3l1 4 1-1 1 2 1-1v-1l1-4 1-3 1 1 1-6v5l1 4 1-2 1 2 1-2v9l1 1 1 11h1l1 16v-2l1-8 1 2 1 1h1v2l1 7"/></svg>