<svg xmlns="http://www.w3.org/2000/svg" width="135" height="50"><path fill="none" stroke="#ed5565" stroke-width="1" d="m0 9 1-1 1 3v1l1 1 1 7 1-4 1-3V9l1-1 1 2 1-2 1 1V7l1 2 1-9 1 3h1v4l1 1 1-3h1l1 2 1 3 1 1 1-2 1 2v2l1 1 1-3 1-2h1v2l1 5 1-2 1-6 1 3v4l1 3 1 1 1-2 1-1v2l1-2 1 2 1-3 1-2 1-2 1 2 1-1 1-4v1l1-1 1 1h1l1 2V9l1-1 1-2 1 2 1-3V2l1 3 1 4 1 6 1-3v1l1-1h1l1 1 1 1v1l1-2 1 6 1-1h1v-4l1 1 1 1 1-1 1-4v2l1-1 1 3 1-1v-2l1-2 1 2 1 1 1 1v1l1 1 1-1 1 3 1 2v2l1-3h1l1-4 1 1v-1l1 1 1-1 1-1 1-2V6l1 3 1-2 1 3 1 4v-2l1-1 1 2h1l1 1v3l1 2 1 4 1 2 1-4 1 2 1 1h1l1 1v1l1-2h2l1 1v2l1 3h1l1-1 1 1 1 2 1-1 1-2 1 2v-2l1-1 1-1 1 3 1 1v-1l1-2 1 1 1 1 1 1v-2h2l1-1 1 1v8l1 1 1 2h1l1 10v-5l1-2 1-3 1 2 1-1 1 2"/></svg>