<svg xmlns="http://www.w3.org/2000/svg" width="135" height="50"><path fill="none" stroke="#ed5565" stroke-width="1" d="M0 38h1l1 1 1 3 1 5 1-3 1-6v-2h1l1 1 1 1 1-2v-2l1-2 1-7 1 1 1-1v6h1l1 1 1-1h1v1l1 4 1 6 1-7 1 4v3l1 4 1-3 1-1 1 1v3l1 4 1-1 1-5 1 1v-3l1-1 1-1 1-2h1v-1h1l1-1 1-3 1-5v-3l1 1 1 2 1-2 1-6v3h1l1-3h1l1-2v-4l1 2 1-2 1 1 1-1v-3l1 2 1 4 1 5 1-2 1-1 1-3 1 2 1-1v-1l1-1 1 5 1-2 1 1V9l1 5h1l1 1 1-5v1l1-1 1 1h1V9l1-3 1 2 1 3 1 2v2l1 5 1-1 1 3 1 3v-1l1-1h1l1-3 1-4h1l1 2 1-4 1-1v-2l1 1 1-5 1 1 1-1V5l1-3 1 3 1 3 1-4V3l1 4 1 5h1l1-4V5l1 5h2l1-1v2l1-1 1-3h1l1-2 1 2 1-3h1l1-3v1l1 1 1-1 1 1 1 1V2l1 1 1-3 1 3 1 4v1l1-5 1 1 1 2 1 3v2l1 3h2l1 2v6l1 4h1l1 4 1 13V33l1 3 1 1 1-3 1-1v1l1 6"/></svg>