<svg xmlns="http://www.w3.org/2000/svg" width="135" height="50"><path fill="none" stroke="#57bd0f" stroke-width="1" d="m0 33 1-10 1 2v-6l1 12 1-7 1 2 1 2v-4l1 4 1 7 1-1 1-5v-3l1-11 1 13 1 6 1-5v2l1-5 1 3h1l1-6v2l1 12 1-10 1 4 1-4v5l1 1 1-7 1 6 1 6v-8l1 1 1 7 1-6 1 9v-3l1-5 1 6 1 1 1-3V17l1 23 1-10 1 20 1-9v-5l1 4 1-18 1 20 1-18v8l1-3h1l1-5 1-2v-8l1 7 1 11 1-4 1 1v10l1-13 1 7 1-3 1-1v12l1-10 1 1 1-3 1-6 1-1 1 16 1-15 1 11V3l1 10 1 16 1 6 1-8v-8l1 11 1-11h1l1-3 1 15 1-7 1-8v4l1 5 1-3 1-11 1 6V8l1-8 1 21 1-8 1 12v-8l1 2 1 4 1 1 1 4v-8l1 10 1 10 1-4 1-7v-6l1 6 1 1h1l1-5v10l1-8 1 3 1-6 1 10v-2l1 16 1-26 1 10 1 2v-8l1-6 1 6 1-6 1 6v4l1 1 1 2 1-1 1 8V18l1 1 1 8 1-3 1-8v14l1-1 1-1 1 2 1 8v-4l1-14 1 11 1-3h1v1l1 5 1 2 1-5 1 2v2h1l1-3 1 7 1-8v-1l1 2 1-17 1 20 1-6v-1l1 2"/></svg>