<svg xmlns="http://www.w3.org/2000/svg" width="135" height="50"><path fill="none" stroke="#57bd0f" stroke-width="1" d="m0 36 1 1 1 2v2h2l1-1h3l1 1 1-1v5l1-1h1l1-2 1 2v2h1l1-2h1l1 1 1-1 1 1h1l1 1v2h2l1-1 1 2 1-1 1 1 1-1 1-1v1l1 1 1 1h1l1-5 1-1 1 1h2l1-2 1 1 1 1h1v-1l1-1 1-1 1-1 1 1v-2l1-1 1 1 1-8h1v-1l1 5 1-1 1-2h1v-1l1-3 1-7h1l1-1v1l1-5 1 2 1 1 1-6v-1l1-4 1 5 1-2 1 5v-1l1 2h1l1-1v-5l1 2 1-3 1-4 1-7v2l1 1 1 1 1 6 1 4v2l1-2 1 1 1-2 1 1v-1h1l1-2 1 2 1-3v2l1 2h1l1 1h1l1 1h1l1 5 1-1v3h1l1-3 1 2 1-1v-3h1l1 4 1-1h1v-2l1 1 1-2h1l1-4v1l1-1 1-2 1 1 1-1 1 1 1 2 1 1 1-1v1l1 1 1 1h1l1-2v1l1 2h1l1-1 1-2v-2l1 2 1-2 1 1 1-1 1-2 1 1h1l1 1v1h1l1 1h1l1-1v-1l1-6"/></svg>