<svg xmlns="http://www.w3.org/2000/svg" width="135" height="50"><path fill="none" stroke="#57bd0f" stroke-width="1" d="M0 44h1l1 2v1l1 1 1 2 1-1 1-2h1l1 1h1l1-1h1l1-2h2v2h1l1 1 1-1 1 1v-1l1 2 1-1 1-11 1-12v-2l1-15 1-8 1 19 1 2v-1l1 9 1-4 1-2 1-3v-4l1 10h1l1-1 1 3v10l1-2 1 1 1-2h1v-1h1l1 3 1-2h1v3l1-1 1-2 1 1 1 2v-1l1-2 1 1h1l1-1v-1l1 1 1 1 1 3 1-2v-1l1 1h1l1 1h2l1 2 1 1h1v-1h3l1-1v1l1-1 1-1h3l1 1h1l1-1h1l1 2h1l1-1 1-1 1 1 1-1h1l1 1 1-2 1 1v-2l1 1 1-1h1l1 1 1-1 1 1 1 2 1-1v-3l1-10 1-6h1l1 5v1h1l1 2 1 1h3l1-1h1v-1l1 3 1-2 1-1 1 2 1 1h1l1-2 1 4v-1h1l1 3h2v-1l1-2 1 1h2l1 1 1-6 1 1 1-1v1l1 1 1 3 1 1 1 10v-2l1-2h1l1 1 1-2v2l1 2"/></svg>