<svg xmlns="http://www.w3.org/2000/svg" width="135" height="50"><path fill="none" stroke="#ed5565" stroke-width="1" d="m0 29 1-5 1 4v1l1 1 1 6 1-4 1-19v13l1-5 1 7h1l1-3v3l1 3 1-8 1 3 1-1v2l1-2 1-6 1 5 1 5v1l1 3h1l1-2 1 1v4l1-2 1-6 1 3 1-1v5l1 7 1-1 1-7 1 6v-2l1 9 1-2 1-3 1-2v-7l1 7 1 3 1-4h1v-4l1-2 1 8 1-1 1-4v6l1-2 1-11 1 15 1-3v-3l1 3 1-4 1-1 1 3v-6l1 6h1l1 2 1-5v5l1-3 1-1 1 4 1-3v5l1-3 1 10 1-4 1 2v-4l1-3 1 3h1l1-6 1 1h1l1-1 1-5 1 5 1-2 1 2v-1h1l1-1 1 9 1-1v2l1-5 1-3 1 1 1-4v-7l1 4 1-2 1-1 1-13V0l1 13 1-11 1 10 1 2V6l1-3 1 3 1 3h1v4l1 6 1 14 1 2 1-3v-1h1l1 4 1 2h1v1l1-6h1l1-1 1-2v-1l1 7 1-5 1 1 1 2v-1l1 5 1-5 1-15 1 16v-2h1l1 1h1l1 7v-3l1-5 1 2h1l1 2v-1l1-2 1 1 1-4 1 4 1-8 1 6 1 6h1v-4h1l1 1 1 1 1-3v5h1"/></svg>