<svg xmlns="http://www.w3.org/2000/svg" width="135" height="50"><path fill="none" stroke="#ed5565" stroke-width="1" d="M0 11h1l1 2v2l1 1 1 8 1-2 1-2v-1l1-1 1 3h1l1-1v-1l1-1 1-5 1-1 1-1v2l1-1 1-2h1l1 2 1 3 1 3 1-2 1 1v1l1-2 1-4 1-4 1 4v3l1 4 1 3 1-7 1 1v1l1 2 1 3 1-1 1-4v3l1-2 1 3 1-3 1-2v1h1l1 2h1l1-6v2l1-2 1 1 1 1 1 3v-2h1l1-3h1l1-1 1 4 1 3 1 3 1-1 1-2 1-1h2v1l1-1 1 4 1-1 1-1v-7l1 2h2l1-4v1l1 1 1-2h1l1-7 1-2h1l1 1v6h1l1 1 1 2 1 4v1l1-8 1-3 1 2 1-3V4l1 2h2l1-2V0l1 2 1-2 1 3 1 4V5l1-2 1 4 1 1 1-5v3l1 2 1 8 1 2 1-2v-1l1 1h2l1-2v3l1-1 1-1h2l1 3 1-2 1-2 1 1 1 3 1-2h2v1h2l1 2 1 1 1-3h1l1 1h1v-1l1 1 1 1 1-2 1 2v6l1 1 1 1 1 1 1 17v-3h1l1-1h1l1 1v2l1 6"/></svg>