<svg xmlns="http://www.w3.org/2000/svg" width="135" height="50"><path fill="none" stroke="#ed5565" stroke-width="1" d="m0 5 1 4 1 4v2l1 10 1-4 1-8 1 4v2h2l1-1 1-1 1-1 1-8 1 8 1-3v5l1-3 1-2 1-4 1-2V5l1 4 1-5h2v7l1-6 1-5 1 2 1 4v3l1 7 1-4 1-7 1 7 1 2 1 1h2l1 9 1 7 1-1 1-2v3l1 1 1-3 1-4 1-4v5l1-1h2l1-1v-3l1-4h2l1 1v-4l1 4 1-5 1 3 1 1 1-3 1 7 1-2 1 6 1 2 1-2 1 3 1-3v-1l1-1 1 8 1-3 1 5 1 3 1-1 1-3v-2l1-3 1 3 1-3 1-3v2l1 3 1-1 1 3 1-5v6h1l1-2h1l1-1v-4l1 1 1 2h1l1-2v-3h1l1-3 1 4 1 1v-5l1 1 1 4 1 1h1v1l1 3 1-2 1 3 1-1v-3l1-1 1 7 1-2 1 2v-3l1-1 1-4 1 2 1-7V10l1 15 1-3 1 2 1-1h1l1-2 1 2h1l1 2h1l1-2 1-1v3l1 2h3v-1l1 2 1-1 1-2 1 1v4l1-2h1l1 2 1 6v-2l1-1 1 2 1 4 1 1v3l1 7"/></svg>