<svg xmlns="http://www.w3.org/2000/svg" width="135" height="50"><path fill="none" stroke="#ed5565" stroke-width="1" d="m0 25 1-5 1 2v-2l1 5 1 7 1-2 1-11v1l1-8 1 6 1 5 1-1v2h1l1-6 1 1 1 1v4l1-1 1-5 1 3h1v2l1 3 1 5 1-5 1 5v4h1l1-5 1-1 1 2v5l1 1 1 3 1-8 1 5v4l1 5 1 4 1-8 1-3h1l1 3 1-11 1-3v-3l1-3 1 7 1 2 1-8v-1l1 1 1 1 1 1 1 8v-4h1l1-1h1l1-1v-6l1 4 1 4 1 5 1-4v1l1-1 1-1 1-1h1v2l1-4 1 16 1-1 1-1v-1l1-7h2l1-4v1l1-1h2v-2l1-6h2l1 2v1l1 4 1 1 1 3 1 5v1l1-5h1l1-2 1-4v-5l1 3 1 1 1-3 1-11V0l1 12 1-10 1 8 1 2V9l1-4 1 8 1-1h1v1l1 6 1 18h1l1-3v-6l1 2 1 2 1 3 1-4v3l1-9 1-3 1 1h1l1 2 1-1 1-1 1 2v1l1 3 1-3 1-1 1 1v-2l1 2 1-1 1-1 1 7v-3l1-4 1 1h1l1 4v-1l1-2 1-1 1-2 1 2v3l1 3 1-1 1-1 1 9v-2l1-1 1 3h1l1 1v3l1 4"/></svg>