<svg xmlns="http://www.w3.org/2000/svg" width="135" height="50"><path fill="none" stroke="#ed5565" stroke-width="1" d="M0 10 1 0h1v6l1 2 1 2 1 2 1-2V9l1-8 1 7 1 10 1-1 1 1 1-5 1-2 1 8v1l1-2 1-5 1-1 1 2V8l1 4 1 2 1 3 1-3v5l1-2 1-2 1 5 1-8v10l1-2 1 3 1 2 1 1V15l1 7 1 5 1 6h1v-2l1 2 1 1 1-15 1 6v17l1-20 1-4 1 5 1 4v4l1 5 1-5 1 1 1 6v-7l1 11 1-7 1 1 1 2v-1l1 2h2l1-7v8l1 3 1 2h1l1-1v2l1-5 1 5 1-4 1-1v-3l1-18 1 2h1l1-1v-1l1 2h1l1-1v-2l1-2 1 4 1-1 1-4v-4l1 4 1 1 1-5 1 6v2l1-5h1l1-1 1 1v2l1-1 1 3 1-3 1-5V4l1 22 1-10 1 3h1v2l1-5 1 4 1-1h1v3l1 5 1 14 1-1h1v-1l1 3 1 1 1 5 1-8v-5l1 6 1-2 1 2 1-1v-3l1 5 1-3 1 3 1 2v2l1-4 1-3 1 8 1-5v2l1-1 1-2 1 3h1v-2l1-3 1 10 1-4 1-3v7h1l1 1 1-5 1 1v-6h1l1-18 1 7h1v12h1l1-2 1 3 1 1v1l1-11"/></svg>