<svg xmlns="http://www.w3.org/2000/svg" width="135" height="50"><path fill="none" stroke="#ed5565" stroke-width="1" d="m0 26 1-2 1-2v-3h1l1 1 1-3h1l1 1 1-3h1l1-3v-1l1 1 1-2 1-1 1-8V0l1 12 1 5 1 15 1 4v-4l1 1 1-1 1 3h1V25l1-1 1-5 1 5 1-8v6l1 4 1-2 1-2 1-1 1 5 1 10 1-10 1 8v5l1-1 1-17h1l1 2v9l1-7 1 2 1 2 1-2v3l1-2h2l1 2v-2l1-1 1-4 1 1 1 3v-7l1 7 1 2 1-9 1 3v-8l1-5 1 3 1-1 1 3v2l1-1 1 1 1 2 1-3 1 1 1-3 1 1 1-1v1l1 2 1 9 1-7v2l1 5 1-16 1-1 1 3v3l1 6 1-1 1 3 1-2v1l1-1 1-1 1 2h1v2l1-15h1l1-1 1 3v-1l1-4 1 1 1 1 1 6v-4l1-3 1 10 1 3h1v-1l1 2 1 4 1-3h1v3l1 8 1 5 1-1 1 1h1l1-3 1 1h1l1 2 1 4h1l1 3 1 1h3v-1l1 1 1 1h2v-5l1 8 1-4 1-3 1-18 1 2h3v2l1 1 1 1 1 6 1 8v-1l1 3 1-14 1-3h1l1-1"/></svg>