<svg xmlns="http://www.w3.org/2000/svg" width="135" height="50"><path fill="none" stroke="#ed5565" stroke-width="1" d="m0 34 1-12 1 11V22h1l1 3 1-2 1 11v-9l1-10L8 5l1 17 1-3v2l1-4h1l1 9 1-2v-4l1 5 1-1 1-4 1 4 1-5 1-2h1l1 4v2l1 1 1-8 1 6 1 4v-4h1l1-2 1-20 1 20V2l1 2 1 2 1 3 1-1v19l1-21 1 4 1 8 1 6v2l1-1 1 2 1-7h1v7l1-2 1-2 1 1h1v3l1 6 1-3 1-6 1 3v-1l1 8 1-13 1 10 1 3v2h1l1-5 1 3 1-2v8l1-8 1 10 1 2 1-12v4l1 7 1-16 1 2h1v-5l1 6 1-3 1 2V19l1-5 1 11h1l1 1v-7l1-3h1l1 17 1 2h1l1-3 1-1 1 4v-2l1-3 1-1 1-4 1 1v-3l1 12 1-9 1 8 1-2v-1h1l1-3h2l1-6 1 4 1 4 1-6v1l1 1 1-1 1 2 1 2v-1l1-6 1 3 1-1 1 6v-6l1 4 1 3 1-3h1v-4l1-1h1l1-1 1 12v2h1l1-1 1-3 1 5v-1l1-5 1 4 1 1h1v1l1-4 1 3h1l1-2v3l1 2 1-3 1 4 1 10v-5l1-5h1l1-2h1v3l1-3"/></svg>