<svg xmlns="http://www.w3.org/2000/svg" width="135" height="50"><path fill="none" stroke="#ed5565" stroke-width="1" d="m0 21 1 2 1-1v4l1 9 1-6 1-8 1-1v-6l1 7 1 3 1-1 1 2v1l1-7h1l1 1 1 4v-3l1-4 1 3 1 1 1 4v2l1 3 1-3 1 5 1 4v-1l1-6h1l1 1 1 4v6h1l1-11 1 9 1-1v9l1 4 1-9 1-5 1 4v-2l1 3 1-12 1-2 1-2v-4l1 7 1 3 1-10 1 2v-1l1 1 1 3 1 6 1-3 1-3 1 2 1-1 1-8v8l1 2 1 4 1-2h1v-2h1l1-1 1-1 1 3v-4l1 16 1-4 1 1 1-3v-6h1l1 2 1-4 1 1v-2l1 1 1-2 1-1v-6l1-1 1 1 1 2 1 2v4l1 1 1 3 1 4 1 1v-5l1-1 1 1 1-6 1-4v2h1l1-2 1-12 1-8v8l1-9 1 10 1 1 1-2V4l1 7h1l1-1 1 2v5l1 17 1 2 1-5 1-5v2l1 6 1 3 1-6 1 2v-8l1-3 1 1h1l1-1v2l1-1 1 1 1 1 1 1v2l1-3 1 1 1-2h1v2l1-2h1l1 6 1-3v-5l1 2 1 1 1 2 1-1 1-1 1-2 1 2 1 3v1h2l1 8 1-1v-2l1 2 1 1h1l1 4v-4l1 6"/></svg>