<svg xmlns="http://www.w3.org/2000/svg" width="135" height="50"><path fill="none" stroke="#ed5565" stroke-width="1" d="m0 23 1-3 1 1v-3h1l1 5 1-1 1-2v1l1-1 1 1h1l1-1v-2l1 4 1-5 1 5 1-4v5l1-1 1 1 1-4 1 2v3h1l1 5 1-1 1 2v3l1-1 1-2h4l1-2 1 8v1h1l1 1 1-2h1v1h1l1-2 1-2 1-2v2l1 1 1 1 1 4 1-3v1h1l1-3 1 1h1v-1l1-1 1-3 1 7 1-1v-1l1-1 1 2 1 2h1v-1h1l1-3 1 2 1-2v-6h1l1 8h1l1 1v-3l1-5 1 2 1-1 1-2h1l1 2h1V17l1-2 1-6 1-5 1 6v2l1-12 1 8 1 3 1 7v4l1-3 1 2 1-4 1-7V8l1-2 1 4 1-4 1 3V7l1 5 1-9 1 8 1 6v-2l1-3 1-1 1 2 1 4v-1l1 4 1 4 1 4 1-3v-1l1 3 1-2 1 1 1-1v2l1-2 1 1 1-1 1-1 1 3 1-2 1 1 1-1v2l1 2 1-1 1-1 1 1 1 1h1l1 1 1 1v4l1-2h2l1 2v-2h1l1 1 1-3 1 2v-2l1 3 1 2 1 1 1 13v-4l1 1h3v1l1-2"/></svg>