<svg xmlns="http://www.w3.org/2000/svg" width="135" height="50"><path fill="none" stroke="#57bd0f" stroke-width="1" d="m0 49 1 1 1-2v-1l1-1h1l1-1 1-2v4l1-1h1l1-3 1-2 1-2 1 1 1-3 1 2v2l1-1h2l1-1v2h1l1 3 1-2 1-3v2l1 2h1l1-2h1v1l1-1 1 3 1 3 1-2 1 2 1-1 1-5h1v-1l1 3 1-1 1 4 1-2v-4l1 2 1-3 1 2 1-3v-1l1-1 1 1 1 1 1-2h1l1 1 1-1 1-1v2l1-3h2l1 3h1l1-1h2v1l1-2h2l1 1v-1h1l1 1 1-1h2l1 3h1v-1l1-2 1 1h2v4l1-2h1l1 3h1v-1l1-7 1 3 1-4 1-1v-3l1-1 1 1h1l1-1v-4l1-1 1 1h1l1 3v-3h1l1-2h1l1-1v-1l1 1 1 5 1 2 1-9 1-3 1-1 1 2 1 1v-1l1-1h1l1-2h3l1-4h1V8l1-2 1-1 1-1 1-4v1h1l1-1h1l1 3v4l1-1 1-3h1l1 4V2h1l1 2 1 2 1-1v1h1l1 1h1l1 10v-2l1 3 1-1 1 2 1 1v3l1 12"/></svg>