<svg xmlns="http://www.w3.org/2000/svg" width="135" height="50"><path fill="none" stroke="#ed5565" stroke-width="1" d="m0 27 1-1 1-1v-2l1 5 1 8 1-4 1-10v1l1-7 1 6 1 5 1-2v2h1l1-5 1-1 1-1v3l1-2 1 1 1-1 1 3v1l1 3 1 5 1-5 1 5v4l1-2 1-5h1l1 2v2l1 3 1 5 1-10 1 7 1 7 1 4 1-6 1-5v2h1l1 1 1-10 1-4v-3l1-1 1 6 1 2 1-12v4l1-1 1 3h1l1 7v-4l1 1 1-1 1-1 1 1v-6l1 3 1 4 1 4 1-4v2l1-2 1-1 1 1 1-1v1l1-2 1 14 1-4 1 2v-3l1-7 1 3 1-1 1-2v-1l1-1 1 2 1-2v-1l1-6 1 1h2v2l1 4 1-1 1 4 1 5v2l1-7h1l1-1 1-3v-5l1 3h1l1-2 1-11V0l1 11 1-8 1 6 1 5V7h1l1 5 1 2 1-3v1l1 6 1 18 1 2 1-4v-6l1 7 1-1 1 5 1-7v3l1-9 1-2 1 2 1-2 1 2 1-1 1-1 1 2v1h1l1-2h1l1-1 1 3 1-1h1l1 6v-3l1-5 1 1 1 2 1 1h1l1-1 1-2 1 1v4l1 1 1-1h1l1 9v-1l1-5 1 6 1 1 1-1v4l1 3"/></svg>