<svg xmlns="http://www.w3.org/2000/svg" width="135" height="50"><path fill="none" stroke="#ed5565" stroke-width="1" d="m0 26 1-1h1v1l1 2 1 10 1-2 1-3 1-3 1 3 1-2h1v-4l1-1 1-9h1l1-2v8l1-4 1 1 1-3 1 1v3l1 4 1 4 1-3 1 2v2l1-1 1-2h2v1l1 3 1-1 1-6 1 5 1 2h1l1-2 1-2v1l1 1 1-1 1-3 1-2v-2l1 2 1 2 1 1 1-3v-5l1-15 1-3 1 5h1v3l1 1 1 2 1 1h1V8l1 3 1 4 1-2 1-2V7l1 1 1-2 1-2 1 3v2l1-3 1 9 1-1 1 1v-3h1l1 2 1-1 1-1v-2h1l1 4 1-1v-1l1-3 1 4 1-1 1-2v1l1-1h1l1 3 1 3v1l1 3 1 3 1-2 1-2v1l1 2 1-1 1-2 1-3v-3l1 1 1-2 1 5 1-1v-1l1-1 1 3 1 2h1l1 2 1 5 1 1 1-1v-1h1l1 3 1-3 1-1 1-2h1l1-2h1l1 2 1-1h2v1l1 2 1-1 1-2 1 1v-1l1 3 1 1 1-1 1 1 1-3 1-1 1 2 1 2 1 1h1l1-1 1 1v5h2l1-1 1 20v-4l1-4 1-1 1 1 1 3v2l1 1"/></svg>