<svg xmlns="http://www.w3.org/2000/svg" width="135" height="50"><path fill="none" stroke="#ed5565" stroke-width="1" d="m0 12 1-2 1 2v2h1l1 3 1-5 1-3V4l1 4 1-6 1 6 1-3v1l1 1 1-2h1l1 2v2l1-2 1 2 1-1 1-2v2l1-4 1-4 1 1 1 2v6l1-5 1 11 1-3 1 5v-3l1 2h1l1-1 1 1v-5l1 4h1l1-3h1V8h1l1 1 1 1h2l1 1 1 2 1-1v-2l1 2 1 2h1l1-1v1l1 1 1-1 1-1 1 1v1l1-1h1l1 3 1 2v3l1 1 1-4h1l1-1v1l1-1 1 4h1l1 3v-1l1 2 1 2 1-1 1 2 1 2 1-1 1-1v1h1l1 1h2v1l1 1 1-1 1 1 1 2v-1l1-5 1 5 1 2 1-3 1 1h2l1-3v-1l1-2 1-5 1-10 1 5v5l1 4 1 4h1l1-1 1-1 1-1h2v1l1 3 1-1 1 10 1-4v1l1-1h1l1-2 1 1h2l1 6h1v1l1 2h2l1-1v1l1 1 1-1h2v-1l1-2h1l1 3 1-2v-5l1-3 1-11 1 3 1 6 1 6 1 2 1-1 1 6v1l1 1 1-2h1l1-1 1 5"/></svg>