<svg xmlns="http://www.w3.org/2000/svg" width="135" height="50"><path fill="none" stroke="#57bd0f" stroke-width="1" d="m0 44 1-4h1v3l1 3h3v3h1l1 1 1-4h1l1 2 1-2h1l1-1h1l1 1h2l1 1 1-1h4l1 1 1-1v-1h1l1 1 1-10 1-1v-5l1 4 1-5 1-7 1 2v-4l1-2h1l1 9 1-1 1-5 1 1 1 1 1 3 1 1h2l1 4v3l1 1 1 1 1-8h1l1 2 1-6 1 2 1 3v-5l1-8 1 1 1 2h2l1 1h1l1-2v2l1 4 1 2h1l1-1v-1l1-5h1l1 1v-1h1l1 2 1-2 1 1 1 1 1-1h1l1-1v1l1-1 1 1h1l1-1 1 1h3l1 1 1 2 1-5 1-1v1h1l1 1h2l1 2 1-8 1 2 1-1V2l1-2 1 2 1 1h1V2h1l1 1h1l1 2 1-3h2l1 1V1l1 1 1-1h1l1 2 1 2 1 1h2v1l1 2 1-1h1l1 1V8l1 1h2l1 1v1l1 2 1 1 1-8h2l1 1h2l1 2"/></svg>