<svg xmlns="http://www.w3.org/2000/svg" width="135" height="50"><path fill="none" stroke="#ed5565" stroke-width="1" d="M0 14h1l1 2v2l1-1 1-5 1-3 1-2v5l1-1h1l1-1h1V9l1 2 1-4 1 2h1v1l1 2 1 3 1-1 1 6v1l1 1 1-1 1-4 1 4 1 1 1-4 1 3 1-1 1 1 1-2 1-1 1 2v-1l1 1 1 10 1-2 1 3v1l1-1 1 1 1-1h1v-1l1 1 1 1 1-2h1v4l1-2 1-2 1 1 1-2v-2h1l1 2 1 1h1l1-1 1 3 1 3 1-1v1h1l1-2h2v1h1l1 1 1-1 1-1v5l1-2h2l1-1h2l1-1 1-1h1l1 2h5l1-2 1-1h1l1-15v-5l1-12 1 13h1l1 1v3l1 3 1-5 1 4 1-2v-2l1-2 1 4 1-1h1v2l1 6 1 1h1l1-2 1 1 1 1 1-1h1l1-1 1-1h2v-1l1 2 1-3 1-1 1 1 1 2 1-1 1 1h3l1-1 1 3v-1h2l1-1 1 2h1l1 2 1 1h1v2h2l1 1 1 13 1-2 1 2 1 3 1 1v3h1"/></svg>