<svg xmlns="http://www.w3.org/2000/svg" width="135" height="50"><path fill="none" stroke="#57bd0f" stroke-width="1" d="m0 48 1 1h3l1 1h1l1-1h1l1-1h1v1l1-1h1l1-1 1 1h5l1-1 1 1h1v-2h2l1-2 1-1 1-4 1 1 1 2 1 1 1 1h1l1-1h1v-2l1-3 1 2h1l1-2v3l1 1 1 1h1l1-3v-1l1-1 1-5 1 2h1v-3l1 1h1l1-1 1 1v-4l1-3 1-2 1-4 1-1v2h1l1-3 1 2 1 1v2h1l1 5 1 2 1 1v-1l1 1h1l1-1 1-1 1 1 1 1 1 1v1l1 1h1l1-2 1-1v1h2l1-2 1-3 1-1 1-2 1-5 1-4v-1l1-4 1 4 1 4 1-10v5h1l1-2 1 1 1 4v2l1-1 1-4 1 2 1 2h1l1-1 1-4 1-2v3l1 1 1 4 1-2 1 3v2h1l1-4 1-1 1 2v1l1 1 1 1 1-2 1 1v-1h4v-1l1-1h1l1 2h1v-1h1l1-5 1 1 1-2v2h1l1 3 1-1h1v-1l1-3 1-1 1-2 1 2V6l1 6 1 3 1-3 1-2V8l1-8"/></svg>