<svg xmlns="http://www.w3.org/2000/svg" width="135" height="50"><path fill="none" stroke="#ed5565" stroke-width="1" d="m0 0 1 4 1 2v1h1l1-2 1 9 1-4V7l1 1h2l1 2V3l1-3 1 9 1-4 1 2v3h1l1 4h1l1 2 1 1 1-3h1l1 4v-1l1-1 1-2 1-1 1-4 1 3h1l1-1h1v-1l1-1 1 1 1-1 1 5v5l1-4 1 6 1-2 1-3v2l1 4 1 2 1 2 1-1v5h1l1 1 1-7 1 2v2l1-5 1 7 1-1 1-3v5h1l1 3 1 2 1 1v1l1-1 1-2 1-2 1 3v-3l1 1 1 3 1 1 1-2v7h1l1-1 1 2 1 3v-4l1 3 1-2 1 4v-4l1-8 1 3 1-1 1 6v-1h2l1 2 1-1v1h1l1-1h1l1 1V34l1-1 1 1 1-4 1-4v-9l1 4 1-4 1-2 1-4V9l1 3 1-4 1 1 1 3v-2h1l1 5 1 1 1-2V6l1-3 1 3 1 9 1 3v-1l1 1 1 1h1l1 5v1l1 1 1 7 1 4 1-6 1-2 1-2 1-2 1 3v-1l1-2 1-2 1-5 1-1v2l1-2 1 1 1 3 1 5v-4l1 2 1 2 1 1 1 5v-2l1 2 1 5 1-1 1 7v6l1-9 1 3h1l1-3v-4l1 14"/></svg>