<svg xmlns="http://www.w3.org/2000/svg" width="135" height="50"><path fill="none" stroke="#ed5565" stroke-width="1" d="m0 16 1-3 1 2v1l1 2 1 3h1l1-4v-3l1-8 1 5 1-2 1-3V5l1 1 1-6 1 1 1 1v5l1 1 1-3 1-3 1-1v4l1 2 1 4h1l1-1v4l1-1 1-3 1 1h1l1 2 1-1 1-3 1 2v-1l1 3 1 2 1-2h1v2h1l1-1 1-2 1-4V7l1-1h1l1 3 1-7v5h2l1 4 1 2 1-3 1-1 1 3 1-1V8l1 3 1 2 1-1 1-1 1 1 1 1 1-1h1v1h1l1 6 1-2h1v-2l1-4 1 2 1 4 1-4v-2h1l1 2 1-4 1-3 1 2h2v3l1 1 1-1 1 2 1 2v1l1-2h2l1-2v-1l1 1 1 1 1-1 1-5V3l1 4 1-4 1 4h1V6l1 1h2l1 1V7h1l1 9h2v-1l1 2 1-1 1 3 1-1v-2h1l1-5h2v1l1 2 1-3 1 4h1l1 2 1-2 1 2 1-2v1h2l1-1 1 1v1l1-2 1 1h1l1-1h3l1 2v5h3l1 24v-1l1 1 1-4 1 3 1 3v-1l1 3"/></svg>