<svg xmlns="http://www.w3.org/2000/svg" width="135" height="50"><path fill="none" stroke="#ed5565" stroke-width="1" d="m0 14 1 7 1-8v-1l1-1 1 4 1-5 1 9v-4l1 5h1l1-1 1-3v2l1-1 1-10 1 8 1 6v-6l1 1 1-8 1 10 1-1v5l1-4 1-1 1-1 1 10v-9l1-1 1-7 1 10 1 1v3l1-22 1 17 1-4 1 11V10l1 11 1-8 1 2 1 5V9l1 11 1-8 1 10 1-3v-4l1 3 1 5 1-13 1-4v24l1-9 1-3 1-3 1-1v-2h2l1 3 1 3V9l1 10 1-4 1 6 1-11v10l1-4 1-1 1 6 1-5v3l1-3 1 6 1-10 1 7v-9l1 14 1-1 1-6 1-7v7l1 2 1-7h1v-1l1-11 1 2h1l1 1v17l1-17 1-1 1-2 1 20 1-2 1 2h1l1 11V3l1 25 1 2 1-1 1 8V2l1 27 1-26 1 1 1 35V12l1-8 1 35 1-1h1V12l1 4 1-9 1-5 1 32v5l1-1h1l1 4 1-35v30l1-1 1-2 1 16 1-1 1 1h1l1-1 1-34v1h1l1 26 1 1h1V14l1 3 1 28h2l1-32 1 30h1l1-26v17l1-1 1 1 1-1 1 1v1l1-2 1-1 1-15 1 6v-6h1l1-7 1 6h1v1l1-3"/></svg>