<svg xmlns="http://www.w3.org/2000/svg" width="135" height="50"><path fill="none" stroke="#ed5565" stroke-width="1" d="m0 12 1 1 1-2v2l1 1 1 1 1 1 1 3v1l1-8 1-5 1-2 1 4V1h4l1-1 1 1 1-1h1l1 1 1 1 1-2 1 5v7l1 1h1l1-2h1V9l1-1 1 8 1-1 1 1h1l1 1 1 1 1-3v-1l1-2h1l1 2 1-1v3l1-3 1-2 1 2 1-4h1l1 2 1 4 1 1 1 1 1 4 1-2 1-2v-3l1-1 1-1 1 2 1-2v1l1 1h1l1 1 1 2v1l1 1 1 2 1-2h1v3l1-1 1 2 1-1 1 1v2l1-1 1 4 1 3v-1l1-2 1 4 1 1 1 10v-7l1 4 1 3 1-1 1-4v2l1 2 1-2 1-1 1-4v1l1 3h3v-5l1 1 1 1h2v-1l1 1 1-1h1l1 1h1l1 3 1-1 1 2v-4l1 3 1-2h1l1 2v-2h1l1 1h2l1-1 1 1h6v-1l1 1h1l1 1 1 3 1 3 1-2 1-1 1 1v3l1-1h2l1 2v-1h2l1 2 1 2v-7h2l1 1 1 1v1l1-1"/></svg>