<svg xmlns="http://www.w3.org/2000/svg" width="135" height="50"><path fill="none" stroke="#57bd0f" stroke-width="1" d="m0 33 1-12h1v1l1 23 1-21 1-6 1 2v10l1 1 1 9 1-11 1-6v5l1-1 1 6h1l1-3v7l1-4 1-1 1 3 1-9v4l1-8 1 20 1-10 1 15V34l1 1 1-1 1-6 1-11v19l1 3h1l1 4 1-3V22l1 14 1-6 1 3 1-4v2l1-9 1 12 1-1 1-3v1l1 9 1-7 1-8 1-22v44l1-20 1 6 1-2 1-7v5l1-3 1 2 1-2 1 8v-5l1 3 1 9 1-3 1-12v17l1-21 1 5 1 15 1-10v8l1-15 1 25 1-15 1-11V11l1 39 1-17 1 3 1-3v9l1-7 1 2 1-8v-4l1 6 1 7 1-1 1-4v-3h1l1 9 1 8 1-7V28h1l1 4 1-4 1 8V26l1 6 1-3 1 2 1 13V0l1 30 1-13 1 15h1V16l1-4 1 21 1-6h1v11l1-6 1-10 1 2 1 15V18l1 11 1-15 1 19 1-17v9h1l1-7h1l1 9v4l1 4 1-7 1-6 1 1v2l1 10 1-4 1 4 1-15v6l1 4 1-5 1 1 1 4V15l1 4 1 6 1 12 1-12v6l1-5 1 8 1-11 1 5 1-2 1 2 1-11 1 2v-2l1 11 1-2 1 3h1v2l1-1"/></svg>