<svg xmlns="http://www.w3.org/2000/svg" width="135" height="50"><path fill="none" stroke="#57bd0f" stroke-width="1" d="m0 23 1-11h1v1l1 10h1l1-5 1 1v1l1 6 1-10 1 8 1 3v-9l1-2 1-6 1 8 1 12v-2l1-8 1-17 1 26 1-19v20l1 7 1-12 1 10 1-17v10l1 6 1-10 1 7 1-14v14l1 3 1-1 1-3 1 1V9l1 32 1-16 1 5 1 11V16l1 31 1-9 1 11 1-6V27l1 16 1-16 1 12 1-5 1-9 1 5 1-2 1-13v5l1 8 1 1 1-2 1-5v5l1 16 1-9 1 1 1-9v6l1-9 1 17 1-3 1-9v5l1-5 1-4 1 9 1 4v-3l1-12 1 10 1 18 1-22v-2l1 9 1-1h1V23l1 3 1 4 1-3 1-4v6l1 5 1-16 1 14 1-4V13l1-13 1 47 1-15 1 7v9l1-16 1 11 1-9 1-9v16l1-21 1 11 1 8 1-2v-9l1-2 1 1 1 4 1-1v-1l1 18 1-24 1 2 1-8v-1l1-8 1 23 1-6 1 10v-4l1-5 1 1 1-11 1 8v-4l1 5 1 3 1-6 1 9v-8l1 3 1 1 1 2 1-17v21l1-6 1 1 1 1 1-4v1l1-13 1 15 1 11 1-10v-5l1 8 1-5 1 1 1 4v-6l1 2 1-4 1 2 1-2v-1l1 5 1 1 1-6 1-11v14l1-7"/></svg>