<svg xmlns="http://www.w3.org/2000/svg" width="135" height="50"><path fill="none" stroke="#57bd0f" stroke-width="1" d="m0 48 1-1 1 1 1 1 1 1 1-1 1-2h1l1 2 1 1 1-2 1-1 1-3h1l1-1v2h2l1-1 1 1 1 1 1 1 1-2 1 1h1l1-1 1 1h1v1l1 1h1l1-2 1 2v-2l1 1h1l1-2h3l1-2 1-1h2l1 1 1-3v1l1-3h1l1 2 1-2 1 1 1-1 1 2 1-2v-2l1 1 1 1h1l1-2v1l1-2 1-3 1 3 1-3 1 1h1l1-1 1 1v-3l1-1 1 3 1 1 1-7v-1l1-5 1-5 1-15v7l1-1h1l1 2 1 2v9l1-4 1 8h1l1 1 1 3 1-1 1-1 1-3 1 1h1l1-1h1v-1l1 2 1-1 1 2h2l1-1 1 2 1-2 1 2 1 1 1 1 1-1v-1l1-1 1 2h2v-3l1-1 1-1h1l1-1v-2l1-5 1 3 1-4 1 2v-2l1 1 1-2 1-3 1 9v1l1-1 1-3 1 2h1l1-1 1-1h1l1 2v-3l1 1h1l1-1 1 1v2l1 2 1 1 1 5 1 7v-4l1-4 1-1 1-1 1 2v2l1-1"/></svg>