<svg xmlns="http://www.w3.org/2000/svg" width="135" height="50"><path fill="none" stroke="#ed5565" stroke-width="1" d="m0 33 1-1 1 3v1l1 2 1 4 1-1 1-6v1l1-2 1-4 1-3 1 1v1l1 3 1-6 1 1 1-3v7l1 1 1 3 1-1 1 3 1 3 1 4h1l1 2v-1l1-2 1-2 1 2 1-1v3l1 5 1-4 1-3 1 3v-2l1 2 1 1 1-2 1-1v1h1l1-2h1l1-3v-3l1-2 1 2 1-2 1-1v4l1-2 1-2 1 2h1v1l1 1h1l1-1 1-2v-2l1 4 1 1 1 4 1-3v-1h1l1-3 1-1h1v1h1l1 3 1-1 1 2v-4l1 6h1l1-2 1-3v1l1-1 1-1h1v-1l1-1h1l1 2 1 1v-1l1 1h1l1 3 1 3v-2l1-1 1-1 1-1 1-4 1 1 1 1 1-2 1-2v-3l1-1 1-6 1 6 1 2v-2l1-4 1 2h1l1-1v-1l1 3 1 7h1l1-2v-1l1 2 1 1 1-1 1-2v1l1-6 1 1 1-26 1 7v9l1 5 1-3 1-4 1 2 1 10 1-1 1 2 1 1v-4l1-5 1-3 1 3 1-1v-1l1-5 1 1 1 1 1-4V6h1l1 4 1-2 1 1v7l1 2 1 2 1-3 1 11v4l1-4 1-20 1 17 1 5v-2l1 9"/></svg>