<svg xmlns="http://www.w3.org/2000/svg" width="135" height="50"><path fill="none" stroke="#ed5565" stroke-width="1" d="m0 13 1 1 1 4v3l1 1 1 5 1 4 1-5v-3l1-3 1 2 1 4 1-2v-3l1 2 1-8 1 3 1-2v9l1-1 1-1 1 4 1 1v3h1l1 3 1 7 1 3v4l1 1 1-6 1-1 1-2 1 8 1 2 1-7 1 4v-4l1 7h1l1-4 1 1v2l1-3 1 2 1-2 1-6v-2l1-1 1 1 1-1 1-6v1l1-3 1-2 1 1 1-1v-4h1l1-5h1l1-1v-5l1 10 1-1 1 2 1-5v3h1l1 1 1 2 1 1v-1l1-2 1 1 1-6 1 1v-5l1 6h1l1-1 1-8V7h1l1-1 1-1v3l1-2 1-3h2v4l1-2 1-2 1 1 1 8v-1l1-4 1-3 1-2 1-2 1 4h1l1-1 1-1 1-1 1 1 1 4 1 5V9l1-4 1 1 1 1 1-2v1l1 6 1 7 1 2 1 1v-1l1 2 1 1h1l1-1v1l1-7 1 3 1 1 1 1v-3l1 3 1-2 1 1 1 1 1 2 1-2 1-1 1-1v-1l1 5 1-2 1 4 1-1v-1h1l1-1 1 4 1 2v-2l1 1 1 2h1l1 2v5l1-1 1 2 1 2 1-4v-2l1-4 1-1 1 3 1 2v1l1 4"/></svg>