<svg xmlns="http://www.w3.org/2000/svg" width="135" height="50"><path fill="none" stroke="#57bd0f" stroke-width="1" d="m0 47 1-1h1l1 2 1 2 1-1 1-2v-2l1-1 1 1 1 1h1v-1l1 1 1-12 1-1 1 3v-1l1-9h1l1 1 1-4v2l1 4 1 1 1 3h1v-4l1 2 1-1 1-1 1 2 1 2 1-1 1-2 1 1v1l1 2 1-1 1-1 1 1 1-4 1-1 1-2h1v1h1l1 2 1-1 1-4v1l1-4 1 2 1-1 1 2v-1h1l1 1h2l1 1 1 1 1-8 1-5v5l1-12 1-2 1-4 1 4v1l1 1 1 11 1 1 1-4v1l1 2 1 1 1-1 1 1v1l1 3 1-3 1 1 1-2h1l1 1 1 1v-1l1 3h1l1-5 1 1v1l1-3 1-1 1 3 1-1v2l1 1 1 1 1-1h1v-1l1 2h1l1 2 1 1v1h1l1 1h1l1-2v4h1l1 1 1 2 1-2v1h6l1-1 1 3v-1l1 3 1-5h1l1 1 1 1h2l1-1v1h2l1 1 1 1v-1l1-1h4l1-1 1 1h2l1 2h1l1 5v-2l1-2h1l1-3h1v1l1 1"/></svg>