<svg xmlns="http://www.w3.org/2000/svg" width="135" height="50"><path fill="none" stroke="#ed5565" stroke-width="1" d="m0 21 1-3 1 4v9l1 2 1 6 1-5 1-6h1l1 2h1l1-3v-2l1 5 1-16 1 3 1-1v7l1-4 1-1 1 1 1 3 1 2 1 5 1-5 1 2v5l1-3 1-4 1 2 1 1v6l1 1 1-1 1-7 1 11V27l1 7 1 4 1-6 1-2v1l1-1 1-4 1-5 1-3v1l1-1 1 5 1-4 1-13v7l1-6 1-2 1 5 1 7v-5l1-1 1 4 1-3 1 4V9l1 9 1 7 1 3 1-2v-2l1-7h1l1 3 1 1v-1l1-2 1 13 1-3h1v1l1-9 1 7 1 2 1-5v3l1-1 1 3 1-2v5l1-3 1 2 1-3 1 4v-2l1 1 1-1 1 2 1 3v-1l1-9 1-2h1l1-7v-1l1 4h1l1-2 1-6V4l1 3 1-7 1 5 1 3V3l1-2 1 8 1-1 1-2v3l1-3 1 17h1l1-1v-3l1 3 1 3 1 3 1-1v-1l1-2 1-1 1-3h1v-2l1 2 1-8 1 2 1-1V6l1 6 1-6h1l1 1v2l1 4 1-3 1 3 1 7v-1l1-4h1l1 1 1 1v-3l1-1h3v10l1 1 1 8 1-1 1 19v-5l1-7h1l1 2 1 4v2l1 4"/></svg>