<svg xmlns="http://www.w3.org/2000/svg" width="135" height="50"><path fill="none" stroke="#ed5565" stroke-width="1" d="M0 24h1l1 1v-1l1-1 1 3 1-4 1-1v-1h1l1 1 1 2 1-2v-2h1l1-3 1 1 1 2v15l1 7 1 9 1-6h1v1l1-2 1-2 1-3 1-6v-1l1 1 1-1 1 4 1-4v3l1 2 1-3h2v-6l1-3h1l1 1 1-2v6l1 2h1l1-2 1 3v-2h1l1 3 1 2 1 2v1h4v-3l1 2 1 1 1-4 1-1v1l1 2 1 2 1 3 1-5 1-4 1-5h1l1-3v-4h1l1 2 1-1h1v-3l1 1 1-2 1-1 1-2v-4h1l1-1h1V7l1-1 1 1 1-2 1 1V5l1-4 1 2 1 2 1-1v4l1-2h1l1-2h1v1l1 1 1-2 1-4 1 5V4h1l1 2 1 7 1 3v-4l1-1 1 5 1-1 1-3v10l1-4 1-2 1-4 1 1v-2l1-1 1-3 1 1 1 3V8l1 1 1-1h2v1h1l1-4 1 2h1v6l1 3 1-2 1-1 1-4V4h1l1 1h1l1-1h1l1 2 1 19 1 7 1-4h1l1-6 1 6v-2l1 3 1 1 1 2 1-4v1l1 4h1l1-2 1-1v2l1 7"/></svg>