<svg xmlns="http://www.w3.org/2000/svg" width="135" height="50"><path fill="none" stroke="#57bd0f" stroke-width="1" d="m0 44 1 1h1l1 2 1 3 1-3 1-3h1l1 3 1-2 1-1v-2h1l1-3 1 1h1v4l1-1h3v1l1 1 1 3 1-2 1 1v1l1-1 1-3h1l1-1v3l1 4 1-1 1-4 1 1h2l1-1 1-1v1l1-1 1-1 1-1 1-2v-1l1-1 1 3 1-3 1-9v3l1-32 1 6 1-1 1-2V2l1 7h1l1-2 1 2v4l1-4 1 1 1-1 1-3h1l1-1 1 5 1 2v3l1 1 1 3h1l1-1V8h2l1 3 1-5h1l1 2 1-2v3l1-1 1 1 1 1h1V8l1 3 1 2 1 2 1 1v1l1-2h2l1-3v-1l1 2 1-6 1 2 1 1V6h1l1-5 1 3 1 3V5h2l1 2h1v2l1 1 1 3 1 1 1-2V9l1 1 1 2 1 2 1 1v1l1-1 1-1 1 1 1-2 1 1 1-3 1-1 1-2 1 3h3v-1l1 1h1l1 2 1 2v-1l1-3 1 1 1 1 1 1 1 2h1l1 1 1 3v3l1 2 1 1 1 1 1 9v-1l1-2 1-1h2l1 1"/></svg>