<svg xmlns="http://www.w3.org/2000/svg" width="135" height="50"><path fill="none" stroke="#ed5565" stroke-width="1" d="m0 11 1 4 1-2V9l1 7 1 4 1-9 1 4v-5l1 2 1-2 1 3h1v5l1-9 1 4 1-1 1 5v-6l1 2 1-7 1 7 1-4v5l1-3h2l1-4v7h1l1-4 1-7 1 9v3l1-13 1 14 1-1 1-1V9l1 5h1l1 3 1-11V5l1 8 1 2 1-5 1 5v-3l1-2 1 6 1-6 1-8v19l1-2 1 2 1-13 1 1V7l1 7 1-4 1-2 1 8v-5l1-2 1 10 1-3 1-6v9l1-7 1 4 1-4 1 3v4l1-6 1 11 1-14 1 15v25l1-31 1-2 1 3 1-10 1 5 1-2 1 1v-1h1l1-2 1 2 1-3v5l1 4 1-4 1 2 1-7v1l1-2 1 10 1-7 1 12v-7l1-3 1 1h1l1 6V2l1 15 1-9 1 15 1-2V5l1 11 1 31 1-31 1-8v14l1-10 1-4 1 4 1-1V2l1 15 1-17 1 8 1 3v4l1-10 1-3 1 8 1-3v2h1l1 3 1-5 1 2V8l1 2h1l1-1 1-2 1 5 1-1 1 1 1 5V7l1-5 1 7 1 4 1-5v4l1 2 1-1 1-1 1 2v-3l1 6 1-7 1-2 1-4v8l1 1 1-7 1 10 1-2v-1l1 3"/></svg>