<svg xmlns="http://www.w3.org/2000/svg" width="135" height="50"><path fill="none" stroke="#ed5565" stroke-width="1" d="m0 30 1-13 1 8v1l1 7 1 9 1-6 1-8 1-1 1 5 1-4 1-2v-6l1-1 1-3 1 4 1-2v9l1-4 1 2 1 1 1 7v2l1 2 1 1 1-3 1 4v-3l1-3 1-1 1 1 1 2v1l1 1 1-4 1-10 1 5v-3l1 2 1-2 1-3 1-1h1l1 2 1-1 1-2v-1l1-6 1-1 1-12 1 9v5l1 7h1l1 4 1 1v-5l1 2 1 3 1 1h1v-2l1 4 1 4 1-2 1-3v2l1 3 1-4 1-2 1-1v5l1-2 1 7 1-8 1 3V18l1 7 1 2h1l1-3v1l1-2 1 4h2l1 5 1 1 1-1v-1l1 2 1-4h1l1-1v-3h1l1-2 1-1 1-1v-3l1 4h1l1-2h1v-2h1l1-4 1 7 1 5v-2l1-4h1l1-1 1-3 1 4 1 4 1-2 1-2v-5l1 4 1 5h1l1-2v-4l1-10 1 1 1-3 1 3v1l1 5 1-1 1 2 1 2v-5l1 6 1-5 1-3 1 1v2l1 3 1-2 1 3h1v-1l1-3 1 1 1 6 1-2 1-1 1-1 1 2h1v7h1l1 1 1 3 1 20v-5l1-2 1-1h1l1-2v2l1 7"/></svg>