<svg xmlns="http://www.w3.org/2000/svg" width="135" height="50"><path fill="none" stroke="#ed5565" stroke-width="1" d="m0 12 1 2 1 5v6l1 4 1 5 1-1 1-3v6l1 1 1-2 1-3 1 1v4l1 1 1-10 1 8 1 2v4l1-4 1-4 1-1 1 1v2l1 4 1 3 1-5 1-2v3l1-4 1-5 1 5 1-4v1l1 5 1 5 1-6 1-2v1l1 5h1l1-4 1-2v7l1-4 1 1 1-3 1-1v2l1-2 1-2h1l1-12v3l1 1h1l1 3 1-1v-4l1 3 1-4 1-5 1-2v-2l1 9 1 6 1 2 1-5v1h1l1-6 1 4 1 3v5l1-2 1 9 1 3h1V30l1-6 1 5h1l1-7v3h1l1 1 1-2 1-5 1 3 1 2 1 1v1l1 1 1-1 1 2 1 4v2l1-5 1-5h1l1-4v1h1l1 2 1 2 1-4v-7l1-2 1-5 1 3 1-2V2l1-2 1 10 1 1 1-3v4l1-3 1 12 1-1 1-1v-4h1l1 6 1-1h1v-1l1-3 1-2 1 1 1-1v-1l1 1 1-1 1-4 1 2 1 2 1 1h1l1 4v-1l1 2 1-2 1 1 1 4v2l1-3 1 1 1 1 1 2 1 1h1l1-1 1 2v5l1 1 1 3 1 3 1 11v-8l1-2h1l1 4 1 2v-2l1 5"/></svg>