<svg xmlns="http://www.w3.org/2000/svg" width="135" height="50"><path fill="none" stroke="#ed5565" stroke-width="1" d="m0 17 1 22 1 1v-6l1 1 1-19 1-2 1-2v3l1 17 1-17 1-3 1 15V10l1 3 1 18 1-13 1-1h1l1 15 1-4 1 1 1 2 1-13 1-5 1 18v3l1-24 1 3 1 3 1-5v1l1 3h1l1-5 1 22v-2l1 3 1-17 1 14 1-16v-1l1 3 1-1 1-4 1-2 1 20 1-17h1l1 17V15l1-2 1 20 1-21 1 4v-1l1 5 1-4h1l1-7v4l1 19 1-19 1 1 1-5v1l1 21 1-4 1-11 1-7 1-1 1 3 1 20 1 2v-1l1-23 1 3 1-3 1 2 1 17h2V10h1l1 17 1-20 1 24V18l1 14 1-19 1 5 1-8v20l1-4 1-16 1 3 1 1 1-2 1-2 1-4 1-2v22l1-21 1 19 1-21 1 3 1-5 1-1 1 1 1 4V4l1-4 1 11 1 2 1 8v-5l1 19 1-22h2v-2l1 4 1 15 1-18 1-3 1 1 1 1 1 4 1 19v2l1-18 1-3 1 4 1 16 1-27 1 26 1 1 1-23v-2l1-2 1 25 1-22 1 30V11h1l1 25 1-30 1 2V5l1 6h1l1 26 1 2V9l1 24 1-3 1-7 1 25V24l1 26"/></svg>