<svg xmlns="http://www.w3.org/2000/svg" width="135" height="50"><path fill="none" stroke="#ed5565" stroke-width="1" d="m0 23 1 1 1-3v2l1 4 1 5 1-7 1-7v2l1-1 1 2h1l1-3v2l1 10 1-3h1l1 2v1l1 2 1 2 1-1h1v1l1 1 1 1 1-1h1v7l1-2 1 1 1 1 1-4v1l1 2 1 1 1-3 1 4v-1l1 6 1-14 1 16 1-17v2l1-5 1 15 1-4 1-2V25l1-2 1 15 1-3 1-3v1h2l1 1h1l1-4 1-1 1-11 1 14v-8l1 9 1-1 1 4 1-1v-1l1 4 1-2h1l1-1v-1h1l1 6 1-17 1 17V24l1 13 1 1 1-3 1-2 1-1 1-14 1-5v15l1-2 1 2 1 2h1v3l1 1 1-2 1 3 1-16v15l1-17 1 15 1-6h1V10l1 15 1-1 1-1 1-16V0l1 4h1l1 3 1 2v11l1-15 1 7 1 1 1 1v2l1-6 1 5 1 15 1-5v1l1 2 1 2 1 1 1-2v-1l1 3 1-2h1l1 1v-4l1-7 1 1 1 1 1 1v4l1 4h1l1-1 1-1v-1h1l1-1h1l1 2v-1l1-2 1-1 1 2 1 1h1l1-3 1-10h1v8h1l1 4 1 2 1 3v-3l1 10 1-11 1 13 1 1v-1l1 1"/></svg>