<svg xmlns="http://www.w3.org/2000/svg" width="135" height="50"><path fill="none" stroke="#ed5565" stroke-width="1" d="m0 24 1-2 1 2v1h1l1 2 1-2 1-2 1-2 1 1 1-1 1-1v-3l1 1 1-3 1 1 1-1v2l1-1 1-1h1l1 1v1l1 3 1 3 1-2 1 1v2h2l1-2 1 2 1 3 1-1 1-4 1 4 1 3 1-1 1-1 1-1v1l1-3 1 1 1-2 1-2 1-3 1-3 1-8 1-7v4l1-2 1 2 1 1 1 2V5l1 1 1-1 1 2 1-1v1l1 1 1 2 1 5h1v1l1-1 1 1 1 1 1-1 1 2 1 6h1l1 1v-4l1 2h1l1-2 1-2v1l1-1h2v-1l1-2 1 1h1l1 2v1l1 2 1-1 1 2 1 1 1-1 1-1h1l1-3v-2l1 2 1-1 1-1 1-2v-3l1 1 1-5 1 2 1 2v-1l1-1 1 4 1-1 1 1v2l1 2 1 2 1 1 1-2v1l1-1 1 2 1 2 1-1 1-1h2l1-1 1 2 1-1 1-1 1 1 1 1 1-1 1 1h1v-1h3l1 1 1-1h1l1 1 1 1h2l1-1 1 1v2l1 1h1l1 2 1 18 1-3h1l1 3 1 1 1 3"/></svg>