<svg xmlns="http://www.w3.org/2000/svg" width="135" height="50"><path fill="none" stroke="#57bd0f" stroke-width="1" d="m0 45 1 1 1 1v-1l1 1 1 3 1-1 1-3 1-1 1 2h1l1-2v-1l1-1 1-2 1 1 1-1v3l1-1 1 1 1-1 1 1 1 1 1 2 1-2 1 1v1l1-1 1-1h2v1l1 2h1l1-2 1 3v-2l1 2h1l1-1 1-1v2l1-1 1 1 1-2 1-1 1-1 1 1h1l1-3v1h1l1-2 1 2h1v-1h1l1-1 1 1h1v-2l1 2h1l1 1h2l1-2h2v2l1-1 1 3h2v-2l1-1 1 2 1-1 1-2h1l1 1 1-1 1-1 1 1h1l1 1v1h1l1 1h1l1 2v-1l1-2h2l1-1h2l1-2h1v-2h1l1-2 1 1 1 1v-1l1-1 1 2h1l1-2v1l1 2 1 2 1 1 1-1v-1l1 1h1l1 1 1-1v-1l1-1h1l1-1 1-1v-1l1-12 1-6 1-11h1v2l1-1 1-1 1 1 1-9v2l1 1 1-2 1 5 1 1v1l1-1 1 2 1-1 1 11v-1l1 3 1-2 1-6h1v3l1 2 1 5 1 3 1 5v1l1-3 1 1 1 2 1 1v1l1 6"/></svg>