<svg xmlns="http://www.w3.org/2000/svg" width="135" height="50"><path fill="none" stroke="#ed5565" stroke-width="1" d="m0 9 1-2 1 1V7h1l1 2 1-1 1-3 1-1h1l1-2 1 1V2h1l1-2 1 10 1-4v1h2l1 2 1-1 1 2 1 4 1-3h1v-1l1 2 1-1h1l1-3 1 2h1l1-2 1 2V9l1 2 1 3h1l1-1v-1h1l1 1 1-1h1l1 2 1-2 1-3 1-3V5l1-3 1 2 1-1 1 3h3l1-1 1-1 1 5 1 4 1 2v-1l1-1 1-1 1 1 1 2v-1h1l1 3 1-1 1 2v-6l1 4 1 2 1-1 1-2 1 1h2v-1l1-2 1 1 1-1 1 5h1l1 2 1-1 1 2v1l1 1 1 1 1-1 1 1v-1h1l1 2 1-2h1v-3l1 1 1-5 1-4 1 4v1l1-2h1l1 3h1v2l1-1 1 4 1 2h1v-1l1 1h1l1 5 1-1v1h3l1 1 1 1 1 1 1 2 1-3v-1l1 1h1l1-1h1v1l1-1 1 1 1 1 1-1v1l1-1 1-1 1 3 1 5 1-1h1l1 1h1v4l1-1 1 1 1-4 1 11v-4l1-8 1-4h1l1 1v4l1 4"/></svg>