<svg xmlns="http://www.w3.org/2000/svg" width="135" height="50"><path fill="none" stroke="#ed5565" stroke-width="1" d="m0 43 1-1h1v5l1-5 1 7 1-3 1-5 1-1 1 3 1 1 1-2v-9l1 3 1-8 1-2h1v8l1-3 1-2 1 1 1 4v5l1 4 1 2 1-5 1 1v3l1 3 1-3h2v1l1 4h1l1-6 1 4v-4l1 3 1 3 1-2 1-3v3l1 3 1-6 1-10 1-3 1-2 1-1 1 2 1-8v7l1-2 1 1 1 2 1 2v-2l1-4 1-3 1 2 1 3v-5l1 4 1 5 1 1 1-2 1-3 1-4 1 5h1v1l1 1 1 6 1-4 1 4V27l1 2 1 4 1-3 1-4v-1l1-1 1 2 1-1v-2l1-2 1 2 1 1 1 4v-6l1 5h1l1 1 1 7v-1l1-9 1-4 1-1 1-2v-1l1-2 1 2 1-8 1 3V5l1 2 1-7 1 2 1 6V7l1-3h1l1 5 1-1v1l1-3 1 6 1 3 1-4v-1l1 4 1-2 1 2 1 1v-1l1-4 1-1 1-6h1v1l1 5 1-3 1-1h1V4l1 3h2l1 1v1l1 2 1-2 1 5 1 1v7l1-8 1-5 1 2h1l1-1 1-1h1l1 4v7l1-2 1 3 1 3 1 18v-6l1-2 1 3 1-3 1 2v3l1 6"/></svg>