<svg xmlns="http://www.w3.org/2000/svg" width="135" height="50"><path fill="none" stroke="#ed5565" stroke-width="1" d="m0 37 1 2h1v2l1 5 1 3 1-3 1-5 1-1 1 3 1 1 1-3v-4l1-4 1-14 1 1 1 1v8l1-4 1-1 1-4 1 1v1l1 4 1 6 1-1 1 3v-2l1-3 1-3 1 3 1-4 1 7h1l1-7 1 3v4l1 6 1-1 1 1 1-3v2l1-3 1-1 1-3 1-5v-2l1 4 1 3 1-2 1-6v5l1-2 1-4h2v-2l1 4h1l1 2 1 1v-2l1 5 1 4 1 2 1-4v-2l1-2 1-3 1 1 1-1v3l1-1 1 6 1-1 1 2v-3l1-8 1 3 1-2 1-2 1-1 1 1 1-2v-4l1-3 1 2 1 1 1 2v-1l1 2 1 1 1 7 1 3v-2l1-7 1-4h1l1-6v1l1 2 1 1h1l1-4V3l1 1 1-4 1 3 1 5V6h1l1 3 1 1 1 1v3l1 7 1 4h1l1 1v-3h1l1 4 1-2h1v1l1-2h1l1-1 1-1v-3l1 2 1-4 1-2 1-7 1 10 1-3 1-3h1v1h2l1 1 1 2 1-10 1 2 1 4 1 2v-3l1-1 1-1h2v8l1 2 1 3h1l1 22v-8l1-4 1-5 1 3 1 2v4l1 14"/></svg>