<svg xmlns="http://www.w3.org/2000/svg" width="135" height="50"><path fill="none" stroke="#ed5565" stroke-width="1" d="m0 39 1-1 1 2v1l1 2 1 7 1-1 1-6v-1l1-1 1 3 1-1 1-2v-2l1-1 1-9 1 2 1-1v6l1 1 1-2 1-1 1 3v3l1 3 1 2 1-3 1 1v-1l1 1 1-2h1l1 3v2l1 4h1l1-15 1 9v1h1l1-1 1-5 1-1v3l1-1 1-2 1-1 1-3v1l1-2 1 3 1-1 1-5v3l1-1 1-1 1 2 1 1v-1h1l1-1 1 2 1-1v-5l1 6 1 3 1 3 1-5v3l1-3 1-3 1 1 1-2h1l1 5 1-3 1 6v-4l1 3 1 1 1 2 1-3v-1l1-1h2v2l1-4 1 3 1-1 1 2v1l1 1h1l1 2h1v1l1-4 1-2 1-1 1-5v-2l1 2 1-1h1l1-3v-2l1 1 1-7 1 4 1-1v-2l1-1 1 3 1 2 1-3v-1l1 2 1 7 1-1 1-3v-3l1 4 1-1 1 3 1-1 1-2h1l1-2 1-2 1 2 1-2 1-2 1-2v-3l1 3 1-2 1-3 1-4 1-8 1 5 1 7 1 4v-3l1-5 1 1 1 1 1-1 1 2h1l1-2 1 2v1l1 1 1 2h1l1 19v-6l1-1 1-4 1 2 1 2v9l1 6"/></svg>