<svg xmlns="http://www.w3.org/2000/svg" width="135" height="50"><path fill="none" stroke="#57bd0f" stroke-width="1" d="m0 48 1-1h2l1 1h5l1 1h3l1 1v-3l1 1 1 1 1-1 1 1h1l1-1h3l1-1 1 1h4l1 1h3l1 1h2l1-1h1l1 1h1l1-2h1l1-1 1-1h1l1-3v-2l1-5 1 1h2v3h2l1 1 1 2v-1l1 1h1l1-2 1 1 1 1 1-1h1l1-1v-2l1 1h6v1h2l1 1 1 1h4v-1h2l1-1 1 1v1h1l1 1 1-3 1-2 1 1h1l1-2h1v-4l1-1 1 3 1-6 1-1v-2l1 2 1 1 1 1h1v-1h1l1 2 1-1 1-1v-3l1-4 1-1 1-4 1-10V4l1-1h2l1 1V2l1-2 1 1 1 2 1 1V2l1 2 1 4 1 5h1V8l1 2 1 1h1l1-2 1 2 1-4 1-1 1 1v2h2l1 2 1-1v1l1 2 1 1 1 3 1 5v-4l1 3"/></svg>