<svg xmlns="http://www.w3.org/2000/svg" width="135" height="50"><path fill="none" stroke="#ed5565" stroke-width="1" d="m0 27 1 2 1-1 1 2 1 4 1-2 1-6v-1h1l1 2 1-1 1-1 1-2 1-5 1 2 1-1v5l1 2 1 1 1-1 1 1v1l1 3 1 3 1-3 1 1v1l1-1 1-3 1 2 1 1v1l1 3 1-2 1-5 1 2v-2l1 1 1 2 1-3 1 1v4l1-1h1l1-1 1-4v2h1l1 2 1 2 1-5v3l1-2 1 2 1 1h1v-3h1l1-2h1l1-1v-2l1 4 1 1 1 4 1-1 1-1 1-2h2v1l1-1 1 7 1 1 1 2v-4l1-4 1 2 1-2 1-3v-1h2l1-2v-7l1-4 1 5 1 2 1-3v1l1 4h1l1 4 1 2v1l1-6 1-2 1-2 1-1v-1l1-1 1-1 1-5 1-4V3l1 1 1-4 1 4 1 3 1-2 1 5 1 1 1-3v3l1 6 1 2h1l1-3v-1l1 2 1 1 1-1 1 1v1l1-1 1-1h1l1-1v-2l1 1 1-4 1 2 1 2v-1l1 5h1l1-1 1 1v-1h1l1 1 1 2 1 1 1-4 1 2 1 3 1 1v1l1 2 1-1 1 1 1 1v4l1 2h1l1 3 1 10v-4l1-2 1 2 1 2 1-2v3l1 4"/></svg>