<svg xmlns="http://www.w3.org/2000/svg" width="135" height="50"><path fill="none" stroke="#ed5565" stroke-width="1" d="m0 28 1-2 1 4v2l1 1 1-13 1 1 1-7v5l1-6 1 9 1 1 1-1V12h1l1-5 1-2 1-5v5l1 13 1 9 1-2 1-1v1l1 9h1l1-6 1 1v-2l1 1 1-12 1-5 1-4v2l1 10 1-7 1-4 1 12v2l1 2 1-3 1-7 1 4v8l1-2 1 6 1-4 1-2v2h1l1 4 1 4 1-6v5l1-4h1l1-2 1-3v-3l1-2h1l1 3 1 1v-1l1 2 1-2 1 4 1 8v-3l1 2h1l1 1 1-1 1-3 1 12 1 4h1v-5l1 3 1-8 1-1 1-6v1l1-4 1 10 1-2v-3l1-4h1l1 2 1 10v-2l1 9 1-2h1l1 1v-1l1-3 1 1 1-1 1-4v-2l1-1 1-1 1-1 1-10v-3l1 4 1-7 1 6 1 1v-2l1-5 1 5 1 8 1-4v-3l1 13 1 9h1l1-6v-5l1 4 1-2 1-4 1-5v-2l1-3 1 1h1l1-2 1 6 1-2 1 4 1 1v1h1l1-4 1-1 1-2v2h2l1 3 1 2v-3l1-5 1 2 1 2 1 1v-2h1l1 1 1-1h1v7l1-1h2l1 9 1-2 1-1h2v4l1 9"/></svg>