<svg xmlns="http://www.w3.org/2000/svg" width="135" height="50"><path fill="none" stroke="#ed5565" stroke-width="1" d="m0 5 1-3 1-2 1 4 1-3 1 10 1-2v1l1-3 1 5 1-1h1v-1l1 2h1l1 3 1-9v4l1 3h2l1-2v4l1 5 1 2 1-1 1-3v1l1-3 1 5 1-2h1v-1h1l1 1 1-1 1-2v3l1 2h1l1 2h1v-6l1-1 1 1 1 10 1 17v-3l1-2 1 1 1-2 1 3 1-1 1 1 1-1 1-5v-4l1-6 1 1 1-3 1-3v2l1-1 1 4 1-2 1 1v-2l1 3 1-2 1 10 1 5v-5h1l1 2 1-2 1 4 1 2 1 5 1 1 1-1v3l1-1 1 1 1-2h1l1-1 1-1 1 3v3l1-1 1 2 1-1 1-2v-3h1l1-3 1 7 1-3v2l1-1h1l1-11 1 1v2l1-4 1-10 1-5 1 8 1-6 1 2 1-2h1l1 3h1l1 1 1 1v3l1-4 1 3 1 2 1-2v-4l1-2 1 1 1 1 1-1v-3l1 10 1-1 1-2 1 2v1l1-1 1-6 1 3 1-3v2l1-1 1 5h2v3h1l1-2 1-8 1 1v-2l1 6 1-1 1-4 1 6v1l1-1h2l1 1 1 2 1-1 1-2 1-2 1 19"/></svg>