<svg xmlns="http://www.w3.org/2000/svg" width="135" height="50"><path fill="none" stroke="#ed5565" stroke-width="1" d="m0 34 1-5 1 1v-6l1 3 1 4 1-4 1-4v-4l1-2 1-2 1 6h1v-1l1 3h1l1 1 1-6v-6l1-8 1-4 1 1 1 5v10h1l1 8 1-9 1 8v3l1 4 1 7 1-2h1v2l1-1 1-11 1-12 1 11 1 5 1-4 1-8 1 7v-4l1 2 1 1 1-5 1-3 1-2 1 8 1 5 1-6h1l1 1 1 1 1 2v-6h1l1-2 1 4 1 5v-4l1 10 1-5 1 4h1v-3l1 5 1-1h1l1 3v3l1-2 1 6 1-3 1 6V33l1-4 1-2 1-3h1v-2l1 3 1 2 1 2v1l1-4 1 2 1-3 1 3v5l1-5 1-1 1 2 1 1v3l1 6 1-3 1 3 1-14v3h1l1-1 1-6 1-1v-3l1 2 1-5h1l1 2v1l1-3 1 4 1 3 1-1v-2l1 3 1 6 1-3 1 5v2l1-2 1-7 1 9 1 2v-2l1-3 1-1 1 1 1-4v-2l1 4 1-3 1-2 1 7v-3l1 2 1 2 1-2 1 1v2h1l1-3h1l1 2v-3l1-2 1 3 1 2 1-1v-1l1-2 1 1h2v4l1 2 1 3 1-3 1 15v3l1-7 1-1h1l1-1v3l1 4"/></svg>