<svg xmlns="http://www.w3.org/2000/svg" width="135" height="50"><path fill="none" stroke="#ed5565" stroke-width="1" d="m0 14 1-2 1 3v2l1 2 1 11 1-5 1-3v2l1-4 1 2 1 2 1-4v-2l1 2 1-8 1 3 1 2v5l1-2 1-3 1 1 1 1 1 5 1 2 1-3 1 2v1l1-4 1-4 1 3h1v4l1 5h1l1-9 1 8v1l1 2 1 1 1-2 1-1v1l1 1 1-1 1-2 1-4v1h1l1 4 1 1 1-8v3l1-3 1-5 1 4 1 3v-3l1 1 1-3 1 1 1-3v-3l1 6h1l1 4 1-1 1-3 1-6h2v2l1-9 1 8 1 5 1 1v-1l1-4 1 1h1l1-8v2h1l1 1h1v1l1-4 1 3 1 1 1 1v1l1 2h1l1 1 1 2v1l1-2 1-2 1-1 1-2v-2l1 2 1 1 1-3 1-8V0l1 6 1-4 1 4 1 4V6l1-2 1 3h1l1-1v2l1 5 1 10 1 4 1-4v-3l1 3h1l1 1 1-1v4l1-3h1l1-2 1-3v-2l1 3 1-3 1-3h1v-1l1 1h1l1 1 1 1 1 1 1 1 1 2 1 2v-2l1-4h1l1 3h1v-1l1 3 1 1 1-2 1-1v4h1l1 1 1 2 1 22v-3l1-4 1-3 1 4 1 2v2l1 4"/></svg>