<svg xmlns="http://www.w3.org/2000/svg" width="135" height="50"><path fill="none" stroke="#ed5565" stroke-width="1" d="m0 13 1-7 1 11v-1l1-4 1-6h1l1-1v12L7 5l1 1 1-6 1 3v7l1-8 1 8 1-3 1 6v2l1-2 1 1 1-4 1 3v8l1-5 1 5 1 4 1-4v-5l1-5 1 10 1-2 1-1 1-2 1 4 1-10 1 10v-2l1-5 1 2 1-3 1 7v-2l1 7 1-3 1 2 1 2v3l1 1 1-10 1 2 1 2 1-4 1-1 1 6 1-5 1 4h1l1-9 1 2v9l1-3 1 5 1 4 1-13v11l1-7 1 9 1-1h1v-9h1l1 3 1 1 1-6v2l1-6 1 10 1-1 1-2v-1l1-5 1 5 1 7V16l1 2 1 10 1-10 1 5v-4l1 9 1-8 1 10 1-8 1-3 1 12 1-9 1 2v3l1-3 1-3 1 5 1-7v3l1-2 1-4 1-1 1 9v-3l1 8h1l1-10 1 1v5l1-5 1 3 1-1 1 7v3l1-6 1 4 1 6 1-13v9l1-8 1 2 1-4 1 1v1l1 10 1-3 1 2 1-8v-2l1 5 1-2 1-1 1 4v7l1-7 1-2 1 9 1-10v5l1-8 1 9 1-10 1 15v-1l1-12 1 3 1 4 1-8v4l1-3 1 14 1 11 1-7v5l1 1 1-3 1 5 1-7v4l1 3"/></svg>