<svg xmlns="http://www.w3.org/2000/svg" width="135" height="50"><path fill="none" stroke="#ed5565" stroke-width="1" d="m0 26 1-3 1-1v2l1 5h3l1-1 1 4h1l1-3v-1l1-1 1-9h1l1 3v12l1 2 1 4 1-2 1 1v4l1 2 1 3 1-7 1 1v1l1 1 1-4h1l1 2v4l1 5 1-5 1-6 1 5 1-3h1l1-6 1-1v1h1l1-1 1-1 1-2v1h1l1 5 1-1 1-6v3l1 1 1 1 1 1 1 1 1 2 1-4 1 1 1-4v-4l1 3 1 2h1l1-5v1l1-2 1-10 1 1 1 3v3l1-2 1 8 1-4 1 1v1l1-5 1 5 1-2 1-5 1-3 1-2 1 2v2l1-13 1 6 1 2 1-3 1 7 1 3 1 1 1 9v-1l1-4 1-2 1-3 1-5v1h1l1 3 1-3 1-3v-5l1-1 1-4 1 10 1 1V8l1-4 1-4 1 11 1-3v2l1 1 1 10 1-3 1-5v1l1-10 1 8 1 7 1 3v2l1 1 1-3 1 1 1-3v-1l1 3 1-3 1-2 1-3v-1l1 1 1-3 1-2 1-1V4h1l1 1 1 4 1 2v-1l1-5 1 1 1 3 1 1V6l1 1 1-1h1l1 1v2l1 2 1 4 1 2 1 15v-6l1 4 1-2 1 1 1 6v3l1-3"/></svg>