<svg xmlns="http://www.w3.org/2000/svg" width="135" height="50"><path fill="none" stroke="#ed5565" stroke-width="1" d="m0 18 1-1 1 2 1 1 1 6 1-3 1-4h1l1 5 1-1 1-2v-2l1 2 1-6 1 2h1v5l1-2 1-1h1l1 1v-1l1 2 1 2 1-3 1 1v4h1l1-5h1l1 1v2l1 8 1-4 1-7 1 5v-4l1-3 1 3 1-5 1-2v-4l1-4 1 6 1-4 1-1h1l1 2 1 3 1-5v2l1 1 1-2 1 2 1 1V9h1l1-1 1-3h1V0l1 5 1 3 1 4 1-3v1l1-1 1-1 1 2 1 1v1l1-3 1 10h1l1 2v-6l1 3 1 2 1-1 1-4 1-1h1l1-1 1-1 1 2 1 2 1 1 1 3h1l1 3 1 2 1-2 1-2 1 1 1-3 1 2 1 1 1-1 1-4v-5l1 3 1-5 1 5 1-1v-3h1l1 4 1-1 1-1v1l1 6 1 5 1 1 1-2v-1l1 1 1 2h1l1-3v2l1-5 1-4 1 2 1-3v-2l1 2 1-1 1-3 1 3v1l1 3 1-1h1l1-1 1-1 1-1 1 1 1 3v-2l1-2 1 1 1 1 1 1v-1l1 1 1-1h1l1 2v2h1l1 2 1 1 1 21v-1l1-7h1l1 4h1v3l1 7"/></svg>