<svg xmlns="http://www.w3.org/2000/svg" width="135" height="50"><path fill="none" stroke="#ed5565" stroke-width="1" d="m0 44 1-2 1 3 1 1 1 1h1l1-3v-1l1-2 1 1 1 1h1l1 1 1-2h2v-1h1l1-1h1l1-1v1l1-7 1-1 1-1 1-1v4h1l1-3 1-1h1v2h2l1-2 1-15V4l1 3 1 3 1-1 1 2v5l1-2 1 1 1-3h1v-1h1l1 1 1 2 1-6v2l1 2h1l1 2 1-1h1l1 1 1-2 1 1V5l1-2 1 1 1-1 1-2h1l1 2 1-2 1 1v1l1-3 1 9h1l1 3v2l1 6 1 2 1 2 1-1 1 1 1 2 1 3v2l1-1 1 3 1 2 1 3 1 5 1 2 1 2h1l1-2 1-1 1-1 1-2v-4h2l1-1 1-12v-5l1 4 1-1 1 5 1 4v-2l1 1 1 1 1 1 1-1v3l1 1 1 6 1-1 1-2 1-1 1 2 1 3 1-3v1l1-3 1-1h2v-1l1 2h3v1l1-1 1 2h2v1l1-1h1l1 1 1 1v-1l1-2 1 1 1 1h2l1-1h2v1l1 1 1 1h1l1 2v1l1-1 1 1 1 1h1v3l1 1"/></svg>