<svg xmlns="http://www.w3.org/2000/svg" width="135" height="50"><path fill="none" stroke="#57bd0f" stroke-width="1" d="M0 48h2l1 1 1 1 1-1 1-1h1l1 1 1-1h2l1-1h2v1l1-1h4l1-5 1 3 1-1v1l1-8 1 5 1 2h1v-1l1-1 1-2 1 3 1 1v-1l1 1 1 1 1-1h1v1h1l1-2h1l1-1v-3l1-1 1 5 1 1 1-2v1l1 1h2l1-1 1-1 1-1 1 2h1v-1l1-1 1 1 1 1 1-2v-1h1l1-2 1 1h1v-1h1l1-3 1-1 1 3v-3l1-4 1 5 1-3h1v1l1-1 1-27 1-4V0h2l1 8 1-3 1 2 1 4 1 3 1-4v2l1-3 1 3 1 5 1 2v-1l1 2 1 1 1-1 1 3v-3l1 1 1 1h1l1 1v1l1-1h1l1 1 1 1v3l1 1 1 1h2l1 1h2l1 2v-1l1 1h2l1-3 1-1 1 1 1 2h2l1-2 1-1 1 2 1-1h3v1l1 1 1 1 1 1h2l1 1h2v-2l1 1h2l1 2v-2h1l1-2 1 1 1 1 1 1"/></svg>