<svg xmlns="http://www.w3.org/2000/svg" width="135" height="50"><path fill="none" stroke="#ed5565" stroke-width="1" d="m0 6 1 26 1-2V6l1 2 1 22 1-16 1-5v21l1 2h1l1 3 1-29v3h1l1 14 1 2 1 5V16l1 3 1 15 1 2 1-2v-2l1 3 1-2h1l1-1v2l1 4 1-2h1l1-1v2l1 2 1-12 1 10 1-1v-1l1 2 1-1h1l1 3v-1h1l1-1 1 1 1-1v2h1l1 2h2l1-3 1 1h1l1 7v-6l1 4h2l1-1 1 1 1-6 1 9 1-8v1l1-1h1l1 7h1l1-1 1-1 1 1h1v5l1-8 1 1 1-1 1-2V29l1-1 1 1 1-1v10l1-14h1l1-1 1 21v1l1-1 1-21 1 24h1v2l1-4 1 3 1-5 1 3V0l1 35 1 1 1-6h1V16l1 12 1-3 1 12 1 1v-2l1-1 1 1 1 1 1 2v-1l1 5 1-3 1 2 1-4v-3l1 2 1 3 1 3 1-2v3l1-2 1-1 1 1 1 1v-1h1l1-1 1-2h1v-1h1l1 2h1l1-2v2l1-1h1l1 1h1v5l1-2 1-1 1-7 1 7v-1l1 1h3l1-1 1 1h1l1-1v-6l1 4 1-1h1l1-1v1l1 1"/></svg>