<svg xmlns="http://www.w3.org/2000/svg" width="135" height="50"><path fill="none" stroke="#ed5565" stroke-width="1" d="m0 14 1 1 1 6v2l1 6 1 4 1-2 1-6 1 2 1-5 1 1 1-1v8l1 2 1-7 1-4 1 2v2l1 5 1-2 1 2h1v1l1 1 1 4 1-7 1 6 1-3 1-4 1 2 1 1v-2l1 6 1 3 1-4 1 4v2l1 6 1 4 1-6 1-5 1 4h1l1-1 1-4v2l1-14 1 2 1 4 1-4 1 1 1 3h1l1 3v-1l1-3 1 1h1l1-8V9l1 15 1-2 1 4 1 1v-5l1-6 1 1 1-13 1 7v3l1-5 1 16 1-13 1 9v-1l1-4 1 4h1l1-1h1l1-7 1-11v6l1-5 1 7 1-1 1-3v11l1-2 1-2 1 6h1v4l1 2 1-1 1-6 1-2v-2h1l1 4 1-5 1-4v1l1-1 1-3 1-3h1v7l1-7 1-1 1 3 1 4v5l1 1 1 11 1 1 1-3v-2h1l1 3 1-3 1-1v-2l1-1 1-1 1-5 1 6v-3l1 3 1 6 1-1 1-2 1 1 1-6 1-15 1 7v8l1-1 1 3 1-2 1 1v6l1-8 1 4 1-1 1 1v-1h1l1 3 1-9 1 6v5l1-2 1 4 1-3 1 9v2l1-16 1 11 1 4 1-3v-2l1 4"/></svg>