<svg xmlns="http://www.w3.org/2000/svg" width="135" height="50"><path fill="none" stroke="#ed5565" stroke-width="1" d="m0 7 1-7 1 4v2h1l1 8 1-2 1-3v4l1-2 1 1h1l1 1V9l1 3 1-9 1 8 1 2v3l1-2 1-3 1-2 1 4v-1l1 2 1-3 1 1 1-2V7h1l1-4 1 2h1v3l1 3 1-4 1-5 1 3V4l1 3 1 2h2v5l1 1 1-4 1 1 1 1v1l1-2 1 1h1l1-1v2l1 2 1 1 1 3 1 1h1l1 1 1 2h1v-1l1 3 1-1 1-1 1-2v-3l1-6 1 2 1 1 1-4v1h1l1 4 1 6h1v-3l1-3 1 1h2v-2l1-1 1 2h1v1h1l1 3h1l1 2v-1l1 2h1l1 3h1l1-1 1 4 1-1 1-2v-2l1 2h2l1-3v-2l1 1 1-1 1 4 1 2v-2l1 1 1-2h1l1-7v-1l1 2 1 5 1 2 1-1v-1l1 4 1 2 1 2 1 2v-2l1 3 1-1h4l1-2 1 1v2l1 2 1-1 1-2h1v1l1 1 1 1 1-2 1 2v1l1-2 1 1 1 1 1 1v-1l1 1h2l1-1v2l1-1 1 1 1 2 1 8v-1l1-1 1-1 1 3 1-1v-1h1"/></svg>