<svg xmlns="http://www.w3.org/2000/svg" width="135" height="50"><path fill="none" stroke="#57bd0f" stroke-width="1" d="m0 47 1 3L2 0v13l1 4 1-9 1-5 1 19v-1l1 2 1 6 1-19 1-3v5l1-1 1 15 1 5 1-4V14l1-6 1-1 1 2 1 3V5l1-1 1 1 1-4 1 15v-5l1-4 1-2 1 8 1-8 1-2 1 3 1 3 1 18v-2l1-19 1 8 1-3 1 2h1l1-1 1 5 1-4V9h2l1-8 1 5v4l1-1 1-3 1 7 1-9 1 2 1 1 1-1h1v4l1-4 1 2 1 1h1V7l1 7 1 3 1-13 1 8V8l1 7 1-4 1-11 1 3v4l1-5h1l1 11 1-1v-2h1l1-7h1v5l1-3 1-1 1 2h1v1l1-2h1l1 6h1v-1l1-8 1 8 1-2 1 6V1l1 6 1-1 1 3 1-1V3h1l1-1 1 7 1 2V4l1 2 1 15 1-10 1-1V7l1 1 1 1 1-3 1 14 1 8 1-7 1 5 1-20v13l1-8 1-2 1 1h1v1h1l1-1h1l1-4v1l1 1 1 11h1l1-9V7l1 1 1 7 1-1 1 3v-4l1-10 1 19h1l1-13v7l1-6 1 1 1 4 1 1V9l1 1 1-1 1-2 1 2V7l1-4 1 6h1l1 1v1l1-6"/></svg>