<svg xmlns="http://www.w3.org/2000/svg" width="135" height="50"><path fill="none" stroke="#ed5565" stroke-width="1" d="m0 14 1 8 1 2V14h2l1-1 1 18V12l1 24 1-5 1-18 1 12v1l1-12 1 23 1-13 1-6 1-4 1-6 1 11 1-9v9h1l1-1 1 4 1 7V18l1 3 1 2 1 2 1-4v-3l1-8 1 9 1-2 1 10v-4l1 6 1-9 1 5 1-3v-3l1 6 1-4 1 4 1-5v-6l1 3 1 3 1 1 1 11v-9l1 4 1-5 1-7 1-3v-1l1 3 1 1 1 3 1-7v5l1 12 1 1 1-1 1 2v-4h1l1-17 1 9 1-2v8l1 4 1-7 1-5 1 8v1l1 7 1-9h1l1-10v6l1-6h1l1 4v6l1-9 1-3 1-1 1 2v2l1 2 1 11 1-14 1 11v-9l1-11 1 16 1-5 1 13v-9l1-6h1l1 1 1 6v-1l1-8 1 17 1-10 1-3v-1l1-9 1 6 1 5 1 16V9l1 2 1-7 1-4 1 13v-3l1 40 1-16 1 7 1-36v29h1l1 1 1-2 1-19v-2l1 3 1 1 1-3 1 2v-1l1 2 1-1 1 15 1-20v23l1-18 1 1 1-1 1 1 1-4 1 4 1 15 1-15v12l1-11 1 1 1-4 1 4 1-3 1 1 1-1 1 1v-1h1l1 21 1-21 1-5v5l1 1"/></svg>