<svg xmlns="http://www.w3.org/2000/svg" width="135" height="50"><path fill="none" stroke="#ed5565" stroke-width="1" d="m0 10 1 2 1 11v1l1 3 1 5 1-1 1-4v-3l1-1 1 2 1-2 1 1v-4l1-4 1-7 1 3 1-1v6h1l1-2 1 3 1 2v2l1 1 1 3 1-6 1 2v-1l1 3 1-2 1 3h1v2l1 3 1 3 1-5 1 3v-1l1 3 1 2 1-7 1 3v-3l1-2 1-1h1l1-10 1-1 1 4h1l1-1v5l1-1 1-1 1-2 1 2v-2h1l1-1 1-1 1 1v-2l1 5h1l1 1 1 4v-5l1 1 1-2 1 1 1-3v2l1-3 1 8 1 1 1 2v-4l1-1 1 2 1 1 1-1h1l1 2 1-8v5l1-3 1 2 1-1 1-2v1l1 1h3v2l1-5 1-1 1 1 1-2v-3l1 3h2l1-1v-1l1 1 1-4 1 2 1 2v-5l1-7 1 1 1-2 1-2 1 6 1 13 1-4 1-2v-1l1 1h1l1 5 1-1v2l1-2 1-2h2v-1l1-1 1-1 1-1 1 2v1l1 3 1-1 1-3 1 1h1l1 1 1 1 1 2v1l1-4 1-2 1 2h2l1 3 1-1 1-1v4l1 3 1 2 1 3 1 14v-3l1-9 1-2 1 6 1 4v6l1 6"/></svg>