<svg xmlns="http://www.w3.org/2000/svg" width="135" height="50"><path fill="none" stroke="#ed5565" stroke-width="1" d="m0 26 1 1 1-5v3l1 7 1-8 1-1 1 26V26l1-6 1 19 1-3 1-1v2l1-3 1-11 1 8 1 4v-1l1-6 1-13 1 26 1-13v5l1-2 1 2h1l1 10V32l1 3 1-4 1 9h1v5l1-45 1 35 1-7 1 14V23l1 15 1-8h1l1 6V16l1 24 1-9 1 18 1-18v-1l1-12 1 16 1-8 1 3v21l1-13 1 2 1-12 1-6v2l1 10 1 8 1-9 1 3v-1l1 2 1-5h1l1 3v5l1-10 1 9 1-2 1-7v8l1-17 1 26 1-17 1 13v-1l1-10 1-1 1 16 1-10v-8l1 7 1-11 1 7v-5l1-9 1 12h1l1-3v6l1 4 1-6 1 6 1-3v-3l1-20 1 13 1 8 1 2 1-4 1 2 1 2 1 7 1-19 1 2 1 13 1-7v7l1 6 1-10 1 2 1-1v-3l1 12 1-15 1-3 1 9V23l1 11 1 8 1-11 1 3v-8l1-11 1 11 1-5 1 7v4l1-2 1 5 1-7 1 1v3l1 8 1-10h1l1-5v12l1-5 1-1 1-2 1 2v-1l1-5 1 9 1-1 1-5v4l1 2h1l1-4 1 3v-4l1 2 1-3 1 5 1-4v3l1-3h1l1-2 1 2v2l1 2"/></svg>