<svg xmlns="http://www.w3.org/2000/svg" width="135" height="50"><path fill="none" stroke="#57bd0f" stroke-width="1" d="m0 22 1 2 1 4v3l1 2 1 2 1 4 1-2v1l1 2 1 2 1 1 1-1v-1h1l1-2h1l1 2v5l1-1 1-3 1 1 1 2v1l1 2 1 2 1-3 1 1 1-2 1-2 1-1 1 1v1l1 3 1-2 1-3h1v-2l1 3h1l1-1 1 1v-2l1-1 1-2 1-2 1-1v-3l1-4 1 3 1 1 1-4 1-1 1 2 1 1 1 1v-1h1l1-1 1 1 1-1 1 2h1l1 1h1v1l1-3 1-6 1-1 1-2v-6l1-3 1 4 1 2 1 1v-3l1-1h1l1 1 1-1 1-1 1-3 1-5v1l1-5 1 1 1-2 1 1v7l1-2 1-1 1 3 1 2 1-2 1-1 1 1 1-1V8l1 2 1 1 1-1 1-2V2l1 2 1-4 1 2 1 3V3l1-2 1 3 1 1h1v1l1 2 1 4 1 1 1-3 1 1h1l1 2 1-2 1-1 1-2h1l1-1 1 1 1 1h2l1 2h3v-1l1-1h1l1 1 1 2h1l1 1 1 7h1v-1l1 1h2l1-1v1l1-2 1 1 1-2 1 5v1l1-2 1-4 1 1h1v1l1 3"/></svg>