<svg xmlns="http://www.w3.org/2000/svg" width="135" height="50"><path fill="none" stroke="#ed5565" stroke-width="1" d="M0 33h1l1 3v2l1 3 1 2 1-2 1-16v10l1-7 1 12 1-11 1-1v-5l1-3 1-1 1 3 1-3v9l1 1 1 2 1 1 1 1v10l1-11 1 8 1-5h1v7l1 1 1-3h1l1-2v-4l1 8 1-7 1-7 1 15v-9l1 5 1 1 1-5 1 4v3l1-3 1-3 1-11 1 2v-2l1-7 1 7 1 5 1-13v5l1 1 1-4 1 2 1 2v-3l1-7 1 6h1l1 1v1l1 6 1 7 1 4 1 3v-1l1-5 1-4h1l1 2v1l1-1 1 12 1-1h1V31l1 4 1-2 1-3h1v1l1 4 1 4 1 1v1h1l1-5 1-2h1v1l1-19 1-3 1 15 1 3V17l1-1 1 12 1-15 1-4v7l1-6 1 1 1-5 1-5V0l1 3h1l1 3 1 6v-1l1-2 1 1 1 3 1 3v2l1 8 1 12 1 5 1-4V29l1 2 1-1 1 1h1v4l1-1 1 2 1-5 1-1v-1l1-6h1l1-1 1-6v2l1 5 1 5 1 3 1-2v4l1-3 1-3 1 2 1 6 1-6 1-3 1 7 1-1v2l1-1h1l1-5 1-2v12h1l1-1 1 5h1v-2l1 2 1-2 1-6 1 8v8l1-6"/></svg>