<svg xmlns="http://www.w3.org/2000/svg" width="135" height="50"><path fill="none" stroke="#ed5565" stroke-width="1" d="m0 38 1-1h1v1l1 4 1 8 1-6 1-9v-1l1-1 1 6h2v-1l1-3 1-11 1 2 1-3v10l1-2 1-4 1-5 1 3v2l1 6 1 5 1-7 1 4v-1h1l1-4 1-1 1 2v1l1 7h1l1-9 1 4 1 5 1 2 1-2 1 1v3l1-2h1l1-5 1-3v4l1-3 1 4h1l1-7v1l1-2 1 4 1 2 1 1v-2l1-4 1-4 1-5 1-3V0l1 10 1 4 1 9 1-12v1l1-4 1-2 1 7h1l1-1 1 10 1-2 1 2v-8l1-3 1 5 1 2 1-6v-2l1 1 1 6 1 4v4l1-2 1 2 1-1 1 1 1 3h1l1-1 1 3 1-10h1l1-2 1-6v-1l1 2 1 2 1-4 1-9V0l1 2 1-2 1 7 1 6 1-3 1 3 1 2 1-1v-1l1 4 1 9 1 2 1-3v-3l1 2 1 2 1 3 1-5v-3l1-9 1-1 1 1 1-2 1 4 1-1h2v-2l1 4 1-2 1 1h1v-1l1 2 1 2 1 5 1 3v-1l1-7 1-3 1 3 1-3h2l1-2 1 1v7l1 1 1 4 1 3 1 14v-5l1-3 1-1 1 1 1 3v5l1 4"/></svg>