<svg xmlns="http://www.w3.org/2000/svg" width="135" height="50"><path fill="none" stroke="#ed5565" stroke-width="1" d="m0 21 1-1 1 1v1l1 3 1 3 1-8 1-9v3l1-5 1 7 1 2 1-2v2l1 5 1-6 1-4 1-3v9l1 2 1 1 1-7 1 5v-2l1 4h1l1-7 1 4v8l1-3 1-2 1-1 1 3v1l1 2 1 6 1-10 1 8v3l1 3 1 1h1l1-3h1l1-5 1-3 1-3v-4h1l1 7 1 1 1-10v5h1l1-3 1 1 1-3v-4l1 4h2l1-7v1l1 6 1 7 1 3 1-5v2l1 2 1-2 1 2h1v3l1-3 1 7 1-3h1v-5l1 7 1 2 1-1 1-4v-1l1-3 1-1 1 5 1-6 1 4h1l1 1v3l1-1h1l1 1 1 3v-5l1-1 1 1 1-1 1-3v-2l1-1h2l1-6v-6l1 6 1-5 1 1 1 5v-4l1-6 1 6h1l1 1v2l1 1 1 9 1-2 1-3v-2h1l1 1h1l1-4v-2l1-1 1-3 1-3 1-1V6l1 9 1-4 1 1 1 1 1 4 1-2 1-6 1 5v-1l1 1 1-1 1 1 1-1v-2l1-11 1 3 1 6 1 4v-2l1-3h2l1 3v5l1 1h1l1-1 1 24v-6l1-2 1 2h1l1 3v4l1 9"/></svg>