<svg xmlns="http://www.w3.org/2000/svg" width="135" height="50"><path fill="none" stroke="#57bd0f" stroke-width="1" d="m0 46 1 4 1-5v-3h1l1 5 1-5 1-11v1l1 1 1 3 1-2 1-6v-9h1l1-4 1 4 1-6v19l1 1 1 3 1-2 1 10v2l1-5 1 2 1-16 1 4V21l1 3 1-6 1 1h1v3l1 6 1 1 1 2 1 15v-2l1-1 1-3 1-9h1v2l1-7 1-4 1 16 1-9v-1l1 6 1 2 1-5 1-6v3l1-2 1-4 1-3 1 8v-1l1 2h1l1 2 1-4v-4l1 10 1-1 1-3 1-5v7l1-3 1-6 1-8 1 5v-1l1-1 1 2 1-3 1 3V7l1 15 1 3 1-1 1-1v2l1 1 1-1 1 4v12l1-9 1 5 1 3 1 2v-2l1-7 1-5 1-7 1 1v-3l1-9 1-3 1 7 1-3v2l1 1 1 1 1-1 1-3V5l1-5 1 2 1 18 1 1v-8l1 7 1 2 1 3 1-5 1-1 1 10 1 1 1-4v-1l1 3h1l1-3 1 1v-3l1-6h1l1 3 1-2v-1l1-1 1-3 1-1 1 1v-2l1 7 1-2 1-1 1 2v7l1-7 1-5 1 3 1 5v-3l1-3 1 4 1 3 1 6v-3l1-4h1l1 2 1 6v4l1 2 1-2 1 3 1 9V34l1-5 1-4 1 2 1-2v1l1 5"/></svg>