<svg xmlns="http://www.w3.org/2000/svg" width="135" height="50"><path fill="none" stroke="#ed5565" stroke-width="1" d="M0 34h2v2l1 3 1 5 1-2 1-5v-1l1-1 1 4h1l1-3v-3l1-4 1-7 1-1 1 1v9l1-1h1l1-1 1 3v-1l1 3 1 4 1-6 1 2v2l1-2 1-2 1 1h1v3l1 5 1-1 1-7 1 5v-2l1 5 1 2 1-3h1l1-1 1-2 1-2 1-3v-4h1l1 2 1-4 1-13v5l1-5 1-1 1 3 1-6v1l1-2 1 1 1-7 1-2v8l1 4 1 4 1 3 1-1v-2h2l1 1h1v1l1-1 1 5 1 1 1-1v-4l1-3 1 3 1 2 1-3h1l1 1 1-4v3l1-2 1 3h1l1 3v2l1 2 1 1 1 4 1 6v-1l1-6 1-2 1-2 1-6v-1l1 1 1-1 1-1 1-5V8l1-1 1-2 1 5 1 5v-2h1l1 3h1l1-1 1 1 1 8 1-1 1-2 1 1h1l1 4h1v1l1-2 1-1 1 1 1-2v-1l1 3 1-5 1-2 1-2 1 2 1-1 1-2h1v1h2l1 1 1 3v2l1-3h1l1 4 1 1v-3h1l1 4h2v3l1 1 1 3 1 2 1 11v-1l1-3 1 1 1 1 1 1v3l1 3"/></svg>