<svg xmlns="http://www.w3.org/2000/svg" width="135" height="50"><path fill="none" stroke="#57bd0f" stroke-width="1" d="m0 26 1-1h1v4l1-3 1 2h1l1-3v-1l1 1 1 2 1-5 1 3v-4h1l1-5 1 2 1-2 1-9h1l1 7 1-2v-2l1 1 1 3 1-2 1 3v6l1-5 1-1 1 3 1-2v1l1 5h1l1-1 1 5 1 4 1 1 1-5 1 4v4l1-5 1 1 1 2 1 4v-1l1-2h1l1 1 1-2v-3l1-4 1 2 1 11 1 5v4l1-1 1 4 1-1 1-1v-2l1 1 1 1h1l1-5v-4l1-1 1 2 1-3 1-6v3l1 2 1 6 1-7 1 3v-3l1-2 1-2 1-15 1-4 1 3 1-6 1 3v4l1-4 1 5 1-1h1v5h1l1-6 1-5 1 5v-1l1 1h1l1-3h1V9l1 1 1 1 1 2 1-2V9l1-2 1-7 1 5 1 1V3l1 3 1 3 1-2 1-2v6h1l1 6 1-4 1-4v5l1-2 1-1 1-1 1-1V8l1-3 1-1 1-3 1 1V1l1 2h1l1-1h1v2l1 5 1-2 1 1 1-7v1l1-1 1 3 1 1 1 2v1l1-1 1 4 1 2 1 1v-1h1l1-3 1-4 1-1v2l1-2 1 1 1 2 1 4V8l1 1 1 1 1 2 1 1v-1h1"/></svg>