<svg xmlns="http://www.w3.org/2000/svg" width="135" height="50"><path fill="none" stroke="#ed5565" stroke-width="1" d="M0 15h1l1 2v-2l1 3 1 5 1-3 1-6v-3h1l1 3 1-4h1V6l1-2 1-3 1 1 1-2v5h1l1 1 1 2 1 9v6l1 2 1 3 1-8 1 3v1l1 1h1l1 2 1-3v3l1 3 1-1 1-3 1 5v-2l1 3 1-1 1 1 1-1v-2l1-1 1 5 1-7 1 2v-4l1-4 1 2 1-6 1-5V9l1-6 1 3 1-2h1V2l1 2 1 2 1-2 1-3v1l1 6 1 4 1 6h1v-3l1-6 1-4 1 8 1 1v3h2l1-2h1V6l1-1 1 3 1 2 1-4V4l1-2 1 3 1-1v1h1l1 3 1 2 1 5 1 6 1 9 1 1 1 2v-2l1-2 1-3 1-4 1-5v-2l1-1 1 1 1-4 1-3V6l1 4 1-6 1 5 1 2V8l1-2 1 3 1-2h1v2l1 5 1 3 1 1 1-5v-1l1-2 1 5 1 1 1 2v-1h1l1-1 1-1 1-1v-1l1 6 1-4 1-3 1 1v-1l1 5 1-3 1-2 1-1 1-2 1-2 1 4h1v5l1-1 1 1h1l1 1v-1l1 2 1 1h2v4l1 2 1 3 1 2 1 16v-1l1-6h1l1 4 1 1v3l1 3"/></svg>