<svg xmlns="http://www.w3.org/2000/svg" width="135" height="50"><path fill="none" stroke="#57bd0f" stroke-width="1" d="M0 47h1l1 1v1l1-2 1 3h1l1-6v-4l1-1 1 3 1-3 1 2v-3l1-3 1-1h1l1-2v4l1-5 1 2 1 2 1 3v-2h2l1-8 1 3v1l1 1 1-2 1 1 1 2v2l1 2 1-1 1-5 1 3v-3l1 4 1-1 1-1h1v3l1-1 1 2h1l1 1v4h1l1 2 1 1 1-5v1l1-1h3v-4l1-2 1 1h2v-1l1 2h2l1-1 1 3 1-2h1l1-1v1l1-3 1 3 1-3 1 3v-5l1-3 1 1h1l1-2h1l1 3 1-3v1l1-3 1 2 1 2 1-2v1l1-1h2l1-3v3l1-3 1-4 1-4 1-17v9h1l1-1 1-1 1 1h1l1-1 1 4 1 4v-1l1-3 1 1 1 2 1 1v2l1 1 1 3 1-2 1 1v2h1l1 2 1 1 1-3v-1h1l1-2h1l1-2v-2l1 2 1-8 1 3 1-2V8l1 2h1l1-2 1 1v2l1 6 1-1 1 4 1 1v-2l1-2 1-1 1 2 1 1 1 1 1 1 1 1 1 2v4l1 1h2l1 4v-1l1-2 1-2h1l1 1v4l1-2"/></svg>