<svg xmlns="http://www.w3.org/2000/svg" width="135" height="50"><path fill="none" stroke="#ed5565" stroke-width="1" d="m0 34 1-1 1-1v-1l1-2 1 3h1l1-1 1-2 1 2 1-2h1v-1l1-23 1 2 1 1 1-6v1l1-3 1 4 1 3 1-4v2l1-3 1-1 1 5 1 2v3l1-5h1l1-2 1 2 1 1 1 1 1-8 1 11v2l1 1 1-2 1 3 1-1v3l1-3h1l1 1 1-3v1l1-11 1 3 1-1 1 2v5l1-1h1l1 1 1 3v-1l1-1h1l1 2 1-1 1 2h1l1 1h1l1-1 1-1 1 2 1-1v1h1l1 2 1 4 1-2v-3l1 2h1l1-2 1-1h1l1-1 1 3v1h1l1 3 1-1 1-1 1 1 1 5 1-1 1 3v3l1-1h1l1 1h1l1 1h1l1-1 1-1v-1h1l1-2 1-1 1 3v-1l1 1 1 2h2v3l1-2 1 1h1l1-1v-1l1-1 1 1 1-2 1 2h2l1-1h1l1-1 1-1h1l1 2v-1l1 3 1-1h2v2l1 10 1-3 1 3h2l1-1 1 1 1-1 1-1 1 1 1-1h1v-1l1 2h1l1 3 1 5v-4h1l1-4 1-1 1 1v-3l1 3"/></svg>