<svg xmlns="http://www.w3.org/2000/svg" width="135" height="50"><path fill="none" stroke="#57bd0f" stroke-width="1" d="m0 40 1-1h1l1 2 1 1 1 1h1v-2l1 1 1-4 1-6 1 1V9l1 6h1l1 6 1 3v2l1-1 1 1 1 3 1 1v1l1 4h1l1 2h1v1h1l1-1h2v1h1l1 3 1-2h1v-4l1 1 1 9 1-1h1l1 1 1-1 1 1 1-1v1l1-1 1 1 1 5 1-4h1l1 1h1l1 1v-1l1-7 1 2h1l1 2v1l1 1 1-1 1 1h1v1l1-1h2l1 1 1-3 1 3 1 1h1v1h1l1 1 1-4h1v-4h1l1 3 1 1v-1l1-1h1l1 2h1l1 1 1-5 1-4 1 2v-5h2l1-3 1-3 1 1 1 1 1-2 1-7 1 1 1-2h1l1 2v2l1-2 1-1 1 1h1l1 1 1-12 1-9 1 3v1l1 4 1 2 1-4 1 1V7l1-1 1-3 1 1h1v1l1-5h1l1 1 1 3v1l1 2h2l1-4v3h1l1 3h1l1-1v2l1 3 1 3h1l1 3v1h1l1-1 1 1h3l1-1 1 3v-1l1-11 1 6 1-5 1 2 1 1"/></svg>