<svg xmlns="http://www.w3.org/2000/svg" width="135" height="50"><path fill="none" stroke="#ed5565" stroke-width="1" d="m0 0 1 5 1-3V1h1l1 11h1l1-1v1l1 4 1-4 1-1 1 2V4l1 3 1 3 1 10 1 1 1 6 1 2 1-2 1 1v1h1l1 1 1 4h1l1 6 1-2 1 1h1v1h3l1 3v-1l1-1 1 2 1 2 1-3v-1l1 1 1 2 1-1 1 1 1-1 1 1h2v2l1-1 1-1h2v-1h1l1 1h1l1-12v6l1-5 1 4h1l1 1v1l1 1 1 1 1 1 1 1v-1h1l1 1h1l1-3v1h1l1-3 1 1h1v-1l1 2 1 1h1v1l1-1 1-1 1 2h1v-1l1 1h2l1 1 1-1h3v1h3l1-1 1 1 1-3 1 1 1 1v-1l1 1 1 1h1l1 1 1 1h2l1-2v1l1 1h3l1 1h2l1-1h1l1 1 1-1h1v1h4v1l1 1h2l1-1v1l1-1 1 1h1l1-1v-1l1-1 1 1h2v2h2l1 1 1 1v-1l1-1h1l1-1 1 1v1h1"/></svg>