<svg xmlns="http://www.w3.org/2000/svg" width="135" height="50"><path fill="none" stroke="#ed5565" stroke-width="1" d="m0 28 1-4 1 4 1 3 1 3 1-1 1-7v-1l1-5 1 4 1 3 1-1v4h1l1-1 1-7 1 3v2l1-2 1-1 1 1 1 3v2l1 2 1 1 1-2 1 1v4l1-1 1-5 1-1 1 1v3l1 7 1-2 1-5 1 6v1l1 3 1 2 1-3 1-2v1h1l1 2 1-3 1-2v-2l1-1 1 4 1 3 1-6v2h1l1 1 1 1 1 2v-2l1-1 1-1h1l1-2v-2l1 3 1 3 1 2 1-3v1l1-1h1l1 1 1-2v4l1-4 1 12 1-3 1 1V29l1 15 1 1h1l1-3v-1l1-1h1l1-1v-1l1-4 1 1h1l1 2v1l1 2 1-1 1 5 1-1v2l1-4 1-1 1-1 1-5v-6l1 3h1l1-3 1-14V0l1 12 1-12 1 10 1 2V9l1-5 1 5 1 1 1-2v3l1 10 1 14 1 1 1-2v-4l1 5 1-1 1 4 1-4v3l1-6 1-2h1l1-1 1 3 1-1h1l1 1v-1h1l1-1h1l1-1 1 3 1-1 1 1 1 2v-2l1-3 1 1 1 1 1 1v1l1-1 1 1 1-2h1v1l1 2h2l1 2v-2l1-1 1 1h1l1 1v2l1 2"/></svg>