<svg xmlns="http://www.w3.org/2000/svg" width="135" height="50"><path fill="none" stroke="#ed5565" stroke-width="1" d="M0 27 1 8h1V3l1 1 1-3h1l1-1v1l1 3h1l1 4 1-1v11l1-15 1-2 1 1 1 3 1 1h1l1 3 1 2V3l1 4 1-1 1 3 1 1 1 4 1-5h1l1 5v-4l1 4h1l1 5 1 2 1 5 1 1h1l1-4v8h1l1 11 1-14 1-4v-2l1 3 1-4 1 1 1 8V17l1 4h2l1-1h1l1-3 1 2 1 4V11l1 5 1-1 1 5 1-4v5h1l1-4 1-1h1v5l1 7 1-6 1-4 1 9v-5l1-4h1l1-1 1 5v-1l1 1 1-3 1 2v-4h1l1 4h1l1-4v3h1l1 4 1-3 1 1v6l1-2 1-3 1 3h1v-4h1l1 1 1 3 1-6v-4l1 4 1-5 1 1 1-2V9h2l1 9 1-4v1l1 4h1l1 1 1-2v4l1-2 1 1h2v4l1-3 1 3h1l1-5 1-1h1l1 1 1-1v-1l1 1 1 1h2v3l1-2 1 4 1-1 1-1v-3l1 3 1-4 1 5h1l1-1h1l1-7 1 3v5h2l1 6 1 2v3l1-5 1 1 1 3 1-4v1l1 19"/></svg>