<svg xmlns="http://www.w3.org/2000/svg" width="135" height="50"><path fill="none" stroke="#ed5565" stroke-width="1" d="m0 9 1-4 1 7v2l1 5 1 10 1-4 1-7v-3l1-6 1-1 1-1 1-2v6h1l1-11 1 2 1-1v11l1 7 1-1 1-8 1 9 1 5 1 3 1-2 1 1v4l1-4 1-10 1 3 1 2v2l1 7 1-4 1-7 1 5v1l1 4 1-2 1-1h1v6l1-6 1-1 1-2 1-6v2l1-3 1 5 1 5 1 2v3l1 2 1-2 1 5 1 4v-9l1-1 1-3 1 4 1-10v-1l1 5 1 2 1 2 1-1v-1l1-3 1-1 1 3 1-2v1l1-2 1 7 1-2 1-1V16l1 11 1-2 1-1 1-4v2l1 1 1 1 1 2v2l1-3 1 2h1l1 2v-1l1 2 1 1h1l1 5 1-4 1 2 1 1 1-1v-2l1 3 1-1 1-3 1-5v-9l1 4 1-4 1-7 1 5V9l1-3 1 8 1 2 1-3v2l1 3 1 12 1 2 1-4v-1l1 1 1 2 1 1 1-4v1l1-3 1-2 1 2 1-4v1l1 5h1l1 1h1l1 2 1-1h1l1 1v-1h1l1-1 1 2 1 3v-4l1-13h1l1 5 1 2v2l1-1h1l1-3 1 1v5l1 1h1l1 2 1 20v-4l1-6 1 2 1-1 1 4v1l1-1"/></svg>