<svg xmlns="http://www.w3.org/2000/svg" width="135" height="50"><path fill="none" stroke="#ed5565" stroke-width="1" d="m0 38 1-2 1 2v1l1 1 1 3 1-6 1 1v-1h1l1-5 1-1h1v-1l1-2 1-4 1 5 1-4v5l1 2h1l1 3 1 4 1-2 1 6 1-2 1 3v1h1l1-4 1-3 1 1v5l1 1 1 1 1-8 1 9v-7l1 4 1 3 1 1 1-6v5l1 3 1-2 1-3 1-1v-5l1-1 1 2 1 5 1-8v4l1-7 1 7 1-6 1-3v-2l1-1 1-1 1-10 1-4v-2l1-4 1 12 1-20 1 6v9l1-3 1-2 1 2 1 3v-1l1-12 1 19h1l1 2v-1l1-11 1 1 1-2 1 3v4l1-5 1 1 1 1v3l1-3 1 9 1 4 1-2v2l1 2 1-3 1 1h1v1l1-6 1 2 1-4 1-7v3l1-2h1l1-1 1-5V4l1 4 1-4 1 11 1 1v-5l1-3h1l1 5 1-5V1l1 9 1 5h4l1 2 1-3v2l1-5h1l1 3 1-3V6l1 2 1 1 1 3 1-2v3l1 1 1 2 1-1 1-1v3h2l1-1 1 1 1-1 1-3 1-3 1 2v2l1 4 1-1 1 3 1-4v7l1 3h2l1 14v1l1-2 1 4 1-6 1-1v4l1 5"/></svg>