<svg xmlns="http://www.w3.org/2000/svg" width="135" height="50"><path fill="none" stroke="#ed5565" stroke-width="1" d="m0 30 1-1 1 1v1l1 6 1 3 1-3 1-6v2l1-2 1 3h1l1-2 1 1 1-8 1-4 1 3v8l1-2 1-1 1 1 1 1v3l1 5 1 4 1-24 1 3v4l1-1 1-4 1-1 1-1v6l1 7 1-1 1-7 1 8 1 3 1-1 1-3 1-2 1 1 1 1 1-6 1-1v3l1-3 1 5 1 2 1-6v2h1l1-1 1 2 1 5v-2l1 2 1-1 1-2 1-2v-5l1 6h1l1 4h1l1-3 1-2 1 1 1-1v-1h1l1 9 1 2 1 4V32l1-4 1 1 1 1 1-2v-1l1-2 1 1h1l1-4h1l1-3 1 3v2l1-1 1-1 1 5 1 11 1-5h1l1-3 1-2v-2l1 4h1l1-5 1-12V4l1 7 1-11 1 7 1 4V4l1-1 1 3 1 5 1-1 1 4 1 15 1 4 1-3v-2l1 6 1 1 1 3 1-4v3l1-4h1l1-2h1v-1l1 2 1-3 1-2 1 1v-1l1 3 1-4h2v-1h2l1 2 1 3v-2l1-3 1 1 1 1 1 2 1 1 1 1 1 1 1 2 1 2h2l1 11 1-6 1 1 1 4h1v4l1-4"/></svg>