<svg xmlns="http://www.w3.org/2000/svg" width="135" height="50"><path fill="none" stroke="#ed5565" stroke-width="1" d="m0 33 1-1 1 3v2l1 9 1 4 1-6 1-4v1l1-3 1 3 1-2 1-2v-2l1-2 1-4h1l1-1v7l1-3 1 2 1 1h1v2l1 2 1 4 1-8 1-14v-9l1-5 1-7 1 10 1 8v1l1 10 1-5 1-2 1 3v-5l1 5 1-1 1 2 1 2v6l1-5 1 4 1-3 1-2v-5l1 2 1 1h1l1-4v7l1-2 1-1 1 3 1 3v-3l1-1h1l1 2h1v-3l1 2 1 2 1 3 1-3v1l1-2 1 1h2v1l1-3 1 1 1 1 1 1v-2l1-1 1 1 1-3 1-1v-2l1-2 1 1 1 2h1l1 1 1 1 1 1 1 1 1-1 1 4 1 2 1-3 1-1h1l1-2v1h1l1 3 1-1h1v-4l1-1 1-3 1 3 1 2v-4l1 1 1 2 1 2 1-1v-3l1-6 1 4 1 3 1-1v2h1l1 1 1 1 1 1v1l1-3 1 1h3l1-3 1-4 1 1v2l1 2 1-5 1 1 1 2 1 2 1-1 1 1h1l1-2 1 1h2v-1h1l1-15 1 2 1-3V2l1 13 1 4 1-5 1 30v-2l1-5 1-3 1 4 1-6v5l1 2"/></svg>