<svg xmlns="http://www.w3.org/2000/svg" width="135" height="50"><path fill="none" stroke="#57bd0f" stroke-width="1" d="m0 41 1-1 1 2v2l1 1 1 5h1l1-2 1-1 1 2 1-2h1v-2l1-2 1-8 1 2 1 1v5l1-3h1l1-2 1 2v2l1 1 1 3h1l1-1v1l1-2 1-2h1l1-1v1l1 2 1-1 1-4 1 3v-3l1-2h1l1-3h1v6l1-5 1-5 1-2 1-1v-3l1 2 1 2h1l1-4v5h1l1-1 1 3 1-2v-1l1 1 1 1 1 2 1 1v-2l1 6 1 2 1 3 1-1v-1l1-1 1-3h1l1 2 1-2 1 6h1l1 1V32l1 4 1 1h1l1-3v-2l1-2h1l1-1 1-3 1 2 1 1 1-1 1-1 1 1 1 3 1 3v-2l1-4 1-2 1-3 1-3v-3l1 1 1-1 1-1 1-3V9l1-5 1-4 1 4 1 3V1l1-1 1 3 1 6 1-1V7l1 4 1 7h1l1-2v-1l1 2 1 1 1 1 1 1v-1l1-7 1 1 1 2 1-1v-2l1-2 1-1 1-2 1-1 1 1 1-6 1 2 1 4V4l1 2 1 1 1 4 1 4v2l1-4h1l1 1h1v-2l1-1h1l1-1h1v4h2l1 1 1 15v-2l1-3h1l1 2h1v1l1 5"/></svg>