<svg xmlns="http://www.w3.org/2000/svg" width="135" height="50"><path fill="none" stroke="#ed5565" stroke-width="1" d="M0 0h1l1 1V0l1 29 1 2 1 8 1-1v1l1 5 1-2h1l1 1v-1l1-6 1 10 1 1 1 3v-3l1 1 1-1h1l1-1v1h1l1 1h1l1-1 1 1h1l1-1 1 1 1-5h3v1l1 3h1l1 1h2l1-2h3l1-4 1 2 1-1h1l1 4 1 1 1-1v-6l1 1h1l1-1 1-3v-5h1l1-1 1 3h1v3h2l1-2 1 5v-7h1l1-1h1l1-1v-5l1 1 1 1 1-2 1-1 1 1 1 1 1-1h1l1-1 1 13 1-14v4h2l1-1 1 3v-1l1 1 1-1 1-9h1v2h2l1 1 1-2v2l1-4 1-1 1 4h1v-1l1-1 1-1h2l1 1 1-2 1 1 1-2 1-1 1 1h2v-1l1-1h1l1-1 1-1v1h1l1-2h1l1-1h3l1-2v1l1 6 1 2 1 1 1-1v-3h1l1-2 1-1 1 2v-3l1 2 1-1 1-3 1 1 1-2 1-1 1 1h1V7h1l1 1 1-1 1 1v1l1 7"/></svg>