<svg xmlns="http://www.w3.org/2000/svg" width="135" height="50"><path fill="none" stroke="#57bd0f" stroke-width="1" d="m0 40 1-1 1 1v1l1 3 1 1 1-1 1-4v1l1-2 1 3 1-1 1-1v-2h1l1-5 1-1 1 1v4l1-2 1-3 1-2h1l1 5 1 3 1 1 1 1v1l1 1 1-4 1 1 1 3v1l1 3 1-1 1-4 1 4v1l1 4 1-2 1-2 1-1 1-1 1 2 1-7 1-4v-1l1-3 1 3 1 1 1-3v2l1-3 1-1h1l1 1v-1l1-2 1 1 1 1 1-5v-6l1 2 1 4 1 2 1-5v4l1 2 1 1h1l1 1v1l1-3 1-1 1-3 1 2v-5l1-4h1l1-1 1-2v3l1-5 1 1 1-5V3l1 4h2l1 4v2h1l1 1 1 2 1 2v3l1-2 1-4 1 2 1-3v-1l1-1 1-2 1-2 1-4V0l1 3 1 1 1 3 1 1V7l1-1 1 4 1 1h1v3l1 2 1 4h1l1-2v-2l1 2 1 2 1 2 1-4v1l1-2 1-1h1l1 1v-3l1 4 1-3 1-1 1 1 1 2 1 1 1-1 1 2 1 1 1 1 1 1 1 1v1l1-1h1l1 3h1v-1l1 1 1-1h1l1 1v3l1 2h2l1 6v-3l1-3h2l1 1v3l1 3"/></svg>