<svg xmlns="http://www.w3.org/2000/svg" width="135" height="50"><path fill="none" stroke="#ed5565" stroke-width="1" d="m0 22 1 2 1 1v3l1 2 1 8 1-5 1-3v-2l1 1 1 2 1-1 1-1v-4h1l1-6 1 2 1-1v5l1 1 1-4 1-2 1 5v-1l1 4 1 4 1-7 1 1v1l1-3 1-2h1l1 2v2l1 3 1 1 1-6 1 6v-6l1 5 1 2 1-6h1v2l1-2h1l1-2 1-3v-3h1l1 2 1 3 1-1v5l1-3 1-1 1-1 1 3v-2l1 1 1-1 1 2 1-1V11l1 4 1 1 1 5 1-2v-1l1-1 1-2 1 1 1-1v2l1-3 1 9 1-1 1 3v-5l1-1 1 2 1-1 1-4 1-1 1-3 1-1v1l1-3 1 1 1 1 1 1v2l1 3 1-1 1 2 1 5 1-5h1l1-2 1-2v-1h2l1-2 1-3V5l1 2 1-7 1 5 1 2V5l1-1 1 4 1 1 1-1v2l1 5 1 7h1l1-2v-1l1 5 1 2h1l1-1h1l1-1 1-1 1-1v-1l1 3 1-5 1-1h1v-1l1 4 1-4h1l1-2h3l1 4v-2l1-3 1 1 1 2 1 1v-2l1 2 1 1 1-1 1 1v4l1 2h1l1 1 1 18v-3l1-6 1 2 1 1h1v4l1 8"/></svg>