<svg xmlns="http://www.w3.org/2000/svg" width="135" height="50"><path fill="none" stroke="#ed5565" stroke-width="1" d="M0 4h1l1 3v2l1 1 1 9 1-3 1-6V8l1-1 1 5h1l1-2V7l1 2 1-9 1 2 1-2v6l1-5h2l1 3v3l1 2 1 3 1-1 1 1 1-2 1-2h1l1 2v1l1 5 1 2 1-8 1 4v-1l1 4 1 5 1-4 1-3v1h1l1 3 1-4 1-2v-1l1 1 1 4 1-2 1-3v2l1-2h1l1 2 1 1v-4l1-1 1-1h1l1-2V5l1 4 1 4 1 5 1-1 1-2h1l1 2 1-3v2l1-2 1 6 1-1 1 1V9l1 8 1-1 1 1 1-3v1l1-4 1 3h1v-1l1-1 1 1 1 1h1v2l1 2 1 2 1 1 1 2v-1l1-5 1 3 1 1 1-1v2l1 1 1-4h1l1-6v-2h1l1-8 1 5 1 7v-2l1-5 1 2 1 3 1-1v2l1 2 1 8h1l1-3 1 1 1 3 1-3 1 1 1-2 1-3 1 1 1 2v-2l1 2 1-1 1-3 1 1v-1l1 4 1-2 1-2 1 2v-2h1l1 2 1-1 1 2v-1h1l1-2 1 3 1 1h1l1-2h1l1 2v4l1 1 1-2 1 4 1 22v-5l1-6 1-3 1 2 1 2v-1l1 8"/></svg>