<svg xmlns="http://www.w3.org/2000/svg" width="135" height="50"><path fill="none" stroke="#57bd0f" stroke-width="1" d="M0 46h1l1-1v2l1 1 1 2 1-3 1-4 1-1 1 3 1-2 1-3v-1l1-4 1-5 1-30 1 13v9l1 2 1-5 1-2 1-2v9l1 1 1-1 1-1 1 3v-1l1-3 1-1 1-2 1 2v1l1 1h1l1-4 1 5V14l1 2 1 3h1l1-2v1l1-2 1 1h1l1-2v-3l1 2 1 3 1-1 1-4v3l1-1h1l1 1 1 1 1-1 1 1 1 2 1 2v-4l1 2 1 3 1 1 1-1v-1h1l1-2 1 4h1v2l1-1 1 5h1l1 3v-6l1-1 1 3h1l1-4v2h1l1 1h1v1l1-3 1 1h1l1 1 1 2 1-1 1 2 1 4 1-3 1-2 1 1 1-4v-2l1 2 1 1 1-2 1-2v-3l1 2 1-3 1 3 1 2v-2h1l1-1 1 1 1-2v-1l1 2 1 7h1l1-4v-2l1 1 1 2 1 2 1-2 1-1h1l1-1 1-1v-1l1 1 1-2 1-2h1v-2l1-5 1-6 1 3 1-3V1l1 3 1 2 1 3 1 2v2l1-2h1l1 1 1 1v1l1 1h1l1-1 1 1v1l1-1 1-6 1-6 1 21v-5l1 1 1-2 1 2 1 1v3l1 4"/></svg>