<svg xmlns="http://www.w3.org/2000/svg" width="135" height="50"><path fill="none" stroke="#ed5565" stroke-width="1" d="M0 15h1l1 14V18l1 3 1-7 1 2 1-7v14h1l1-4 1-3 1 1v-2l1 1 1 1h2v7l1-5 1-3 1 7 1-3v-3l1 5 1-5h1l1-1v2h1l1-5 1 4 1 15V20l1-5 1 13h1l1-5v-9l1 15 1-8 1-6h1v-1l1 4 1-2h1l1 5v-1l1-3h1l1 8 1-11v5l1 7 1-6 1-8 1 5v-7l1 2 1-1 1-3 1 7v-1l1-2 1 6 1-6 1 3v3l1 4 1-8 1 1 1 3v-3h1l1 35 1-30 1-5v1h1l1 4 1 2 1-13 1 9 1-9 1 1v4l1 1 1-12 1 6h1V7l1 2h1l1 1 1 4v1h1l1 15 1-15 1 8V2l1 9 1 4 1 5 1-14v7l1-13 1 21 1 6 1-14v12l1-21 1 21 1-3h1l1 3h1l1-16 1 6v4l1 5h1l1-6 1-6v6l1 3 1-5 1 2 1-10V7l1 14 1 2 1-2 1-7 1 1h1l1 3 1 2v5l1-8 1-5 1 8 1 1v-2l1-7 1 8h1l1 4V13h1l1 4 1-3 1 6v2l1-3 1-3 1-1 1-4v2l1-3 1-6 1 5h1v5l1 5"/></svg>