<svg xmlns="http://www.w3.org/2000/svg" width="135" height="50"><path fill="none" stroke="#57bd0f" stroke-width="1" d="m0 42 1-1 1-3v3h1l1 5 1-2 1-3h1l1 3 1-1h1l1 1 1-3 1-1 1 1v3l1-1h1l1-2 1 1v1l1 1 1 3 1-2 1 1h1l1-2h1l1 1 1 2 1 1 1-3 1 4v-2l1 2 1 1h1l1-2h1l1-1 1-1 1-3v-2h1l1 2 1-3 1-2v2l1-3 1-1h1l1-1v1l1 1h1l1-1 1 1v-3l1 3 1 3 1 2 1-2v1l1-2h3v1l1-1 1 3h1l1 1v-5l1 1 1 1 1-1 1-1v-1l1-1 1 1h1v1l1-2 1 1h1l1 2v1l1 1 1-1 1 1 1 2v-3l1-1h1l1-2 1-4v-3l1-1 1 4 1-1h1v-4l1-3 1-1 1 2 1 3v-3l1-2 1-1 1-1 1 2v-2l1-5 1 10h1l1-5v1h1l1-1 1 2 1-1h1l1-1h2v-5l1-6 1 1 1-6 1 1V4h2l1 1 1 4 1-1 1-1 1 2 1 2v2l1-6 1-7 1 7 1-2V4l1 4h1l1-1 1-2v6l1 4h1l1 2 1 8v1l1-3 1 2 1 2 1 1v1l1 5"/></svg>