<svg xmlns="http://www.w3.org/2000/svg" width="135" height="50"><path fill="none" stroke="#ed5565" stroke-width="1" d="m0 9 1 8 1-4v-3l1 5 1 4h1l1-3h1l1 5h1l1 1v-4h1l1-8 1 1 1 1V8l1-6h1l1-2 1 6v5l1 7 1 8 1-2 1 5v-9l1 3 1-3 1 3 1-2v3l1 4 1-1 1-5 1 5v4l1 4 1-1 1-10 1 4v4l1-5 1-2 1-6 1-1v-3l1 1 1 2 1-2 1-2v10l1 2 1 3 1 4h1v-6l1-5 1-4 1 5 1-3v-2l1 6 1 1 1 5h1v-3l1-4h1l1-1h1v-1l1 3 1 5 1 1 1-4v-9l1 8 1-1 1 3 1-2v1l1-3 1 1 1-2v-1l1-2 1 5 1 3 1 2 1 3 1-1 1 3 1-3v-2l1 5 1-5 1-6 1 1v-2l1 1 1 2 1-1 1-2v-3l1 2 1-4 1 5 1 5v-3l1-5 1-1 1 1 1-3v-2l1 6 1 7 1 2 1-5v-2l1-3 1 4 1-4 1 2v3l1-2 1-2 1-1 1 1v-1l1 3 1-3 1-2 1-2v-5h1l1-6 1-1 1 1v1l1 5 1 6 1 9 1-1v4l1-9 1 3 1-1 1 3v-2h1l1-2 1 2 1 2v3l1 2 1 1 1 7 1 13v-6l1-5 1-4 1 1 1-4v5l1 3"/></svg>