<svg xmlns="http://www.w3.org/2000/svg" width="135" height="50"><path fill="none" stroke="#57bd0f" stroke-width="1" d="m0 43 1-2h1v2l1 3 1 3 1-3 1-2v1l1 2 1 2 1-2h1v-6l1 1 1-6 1 3 1-4v8l1 1h1l1-2 1 3 1 2 1 3 1-4 1-1v3l1-4 1-1 1 2h1v1l1 4 1-1 1-3 1 1 1 1 1-1 1-3 1-2v-1l1-2 1 1 1-5h1v-2l1-3 1 3 1-3 1-6v4l1-1 1-1h4l1 1 1-3v-3l1 5 1 1 1 4 1-4 1-2 1-2h2v2l1-1 1 5 1-2 1 3v-3l1-2h1l1 1 1-2v-1l1 3 1-2 1 1v4l1-1 1 2 1-1 1 3v1l1 2h1l1 2 1 3v-2l1-5 1-3 1-3 1-5v-2l1 2h1l1-4 1 1v-1l1-3 1-3 1 6 1 3v-1l1-2 1 2 1 1h1l1 3 1 6 1-3 1-1v-2l1 2 1 2 1 3h1v-1l1-5h1l1-2 1-2v-2l1 4 1-3 1-1 1 1v-3l1 2 1-4 1-1 1 2V7l1 2 1-1 1 1 1 5v-1l1-6 1-5 1 4 1-6v3l1 2 1 4 1 1 1 1v4l1 1 1 2 1 1 1 14v-3l1-4 1-2 1 2h1v3l1 10"/></svg>