<svg xmlns="http://www.w3.org/2000/svg" width="135" height="50"><path fill="none" stroke="#ed5565" stroke-width="1" d="m0 22 1 3 1 3v1l1 12 1-5 1 2h1v-2l1-3 1-2 1-3 1-5v-6l1-9 1-1h1l1 20v-7h1l1 3 1-1h1v6l1 3 1-8 1 9 1-5v-1l1-2 1 2 1 3 1 6v4l1-1 1-7 1 6 1-4v5l1-3 1-2 1-2 1-1v-3l1-3 1-3 1-3 1-2 1 3h1l1-7 1 6v-2l1-1 1 1 1-1 1-2 1 1h1l1-6 1-5v6l1 4 1 4 1-2 1-3V8l1 1h1l1-3 1 3V6l1 27h1l1 3 1-6v-2l1 5 1 2 1-7 1-1h1l1 1 1 1v-8l1-2 1 3 1 4 1-1v3l1 2 1 2 1 2 1-2v-5l1-4 1 2 1-10 1-3v11h1l1-6 1-1 1-5V9l1-9 1 12 1 3 1-3V9l1 2 1 1 1-1h1v5l1 9 1 1 1-7 1-3v3l1 3 1-1 1 3h3l1-1h1v3l1-3 1-4 1-2 1-2v2l1-9 1 5 1 1 1-2v-1l1-7 1 9 1 4 1-4V3l1 8 1 1 1-1 1-2v11l1-2 1-2h1l1 5v-4l1-1 1 6 1 28h1v-8l1-1 1 3 1-7 1 9v-2l1 5"/></svg>