<svg xmlns="http://www.w3.org/2000/svg" width="135" height="50"><path fill="none" stroke="#ed5565" stroke-width="1" d="m0 17 1 4 1-11v2l1 5 1 7 1 1 1-3v-2L7 0l1 23 1-1 1 3v2l1-5 1-16 1 18 1 1v2l1-5 1-10 1 19 1-19v13l1 2 1-10 1 6 1 16V22l1 1 1 1 1-4 1 3v3l1-10 1 8 1 1h1v-6l1 10 1-4 1 3 1 4V19l1 15 1-4 1 6 1-6v-1l1-2 1-1 1 4 1-4v-1h2l1 9 1-13v-9l1 15 1-2 1-2 1-4v12l1-5 1-1h1l1 3v-4h1l1-1h1l1-1 1 12 1-2 1-7 1-1v5l1-18 1 14 1 8 1-11v1l1 1 1-5 1 2v-4l1 5 1-3h1l1 10v-9l1 6 1-4 1 2 1 1v2l1-21 1 22 1-7 1 26V5l1 23 1-10 1 6 1-6 1-9 1-3 1 44 1-31v-1l1 1 1-2 1 1 1 1v15l1-2 1-18 1 6 1 1v-6l1-7 1 14 1 2 1 1v-6l1 2 1-2 1-2 1 1v4l1 2 1-1 1 1 1-2 1 2 1-1 1 5 1 1v-8l1 2 1 2 1-3 1 2v-1l1-1h1l1 2 1-2v-2h1l1 4 1-2 1 2v-2l1 2 1-2 1-1 1 2v-1l1-1 1-3 1 5 1-5v4l1-4"/></svg>