<svg xmlns="http://www.w3.org/2000/svg" width="135" height="50"><path fill="none" stroke="#ed5565" stroke-width="1" d="m0 11 1 2h1v4l1 7 1 3 1 1 1-5 1 1 1 1 1-4 1 1v-7l1 4 1-7 1 3 1 1v4h1l1-2 1 2 1 1v4l1 6 1 3 1-8 1 5h1l1-4h1l1 1v2l1 6 1 2 1-8 1 4v-2l1 3 1 3 1-8 1-2v9l1-1 1-2 1-1 1-11v-4h1l1 1 1-1 1-7v6l1-5 1-1 1 6 1 1v-5l1 4 1-2 1-1 1-2v4l1 4 1 4 1 7 1-4v1l1-1 1-3h1l1 1v1h1l1 5 1 3 1 2v-4h2l1 2 1-7v-2l1-2 1 1h1l1-4h1l1-5 1 7v-1l1 3 1-2 1 11 1 4v-4l1-7 1 3 1 3 1-5v-1h1l1 3 1-3 1-5v-8l1-2 1-6 1 8 1 2v-5l1-1 1 3 1-1 1-11v20l1 7 1 14 1 3 1-1v-5l1 3 1 1 1-2 1 1 1-1 1-2 1-3 1 1v-2l1-2 1-2 1-2 1-4v-1l1 1 1-1h1l1-1v-2l1-2 1 4h2v1l1-4 1-2 1 5 1-2v-2h2l1-2h1v8l1 3h1l1 1 1 20v2l1-6 1 4 1-1 1 1v-1l1-1"/></svg>