<svg xmlns="http://www.w3.org/2000/svg" width="135" height="50"><path fill="none" stroke="#ed5565" stroke-width="1" d="m0 18 1-2 1 2v3l1 2 1 1 1-1 1-5v-2l1-1 1 3 1-1 1-3v-2h1l1-9 1 1 1 2v6l1-4 1-1 1 1 1 3v2l1 3 1-2 1-4 1 2v3l1-3 1-2h1l1 5v2l1 4 1-3 1-6 1 7v-3l1 3 1-3 1-6 1-3v4l1-2 1 6 1-4 1-1V9h1l1 3h1l1-8v6l1-2h1l1 1 1 3V9l1-1 1-2 1-2 1-1V0l1 5 1 4 1 4 1 1h1l1-3 1 2h1v1l1-3 1 5h1l1 1v-6l1-2 1 2 1-1 1-5v1l1-1 1 1 1-1v5l1-2 1 1h1l1 1 1 4 1 2 1 2 1 5v2l1-3 1-2 1-1 1-1v-4l1 1 1-2h1l1-5V4l1 1 1-4 1 7 1 2V6l1-3 1 4 1-3h1v1l1 6 1 11 1 1 1-1v-3h1l1 3 1 4 1-4v3h1l1 1 1-1 1-3v-1l1 1 1-3 1-2 1 2v-2l1 4 1-1 1-3h1v-1l1 2 1 1 1 2 1 2v-2l1-1 1 2 1 2 1 1 1 1 1-1h1l1 1v9l1 1 1-1 1 2 1 13v-1l1-6 1-1h1l1-1v1l1 8"/></svg>