<svg xmlns="http://www.w3.org/2000/svg" width="135" height="50"><path fill="none" stroke="#ed5565" stroke-width="1" d="m0 18 1 1 1 4v2l1 7 1 2 1-3 1-2v-3l1 1 1 5 1-3 1-2v-8l1-1 1-12 1 5 1-1v4l1-5 1-2 1-3 1-1v5l1 4 1 6 1-10 1 2v5l1-1 1-1 1-1 1-2v1l1 9h1l1-10 1 8v-1l1 7h1l1-2 1-4v3l1-4 1-2 1-7 1-4 1 2 1 3 1 7 1-6V9l1-3 1 4 1 1h1V5l1 1 1-2 1 2 1-2V3l1 6 1 5 1 4 1-5v-2l1 1 1 3 1 1 1-4v2l1-3 1 11 1-2 1 3V13l1-3 1 6 1 6 1-2v-1l1-2 1 2 1-3v5l1-5 1 2 1-2 1 4v2l1 5 1 3 1 3h1l1-5 1 1 1-5 1-9v5l1 7 1-1 1-2 1-8v-3l1-2 1-9 1 8 1 6V9l1-9 1 6 1-1 1-1v6h1l1 14 1-3 1-5v-5l1 6 1 2h1l1-1v3l1-1 1-2 1-3 1-3 1 3 1-2 1-3 1 2V8l1 6 1 2 1-2 1 1v-4l1 2 1-1 1 7 1 2v1l1-5 1 1 1-2 1 3v-5h1l1-2 1-2h1v7l1 2 1 5 1-2 1 20 1-22 1 25 1-1 1 3v3l1-3"/></svg>