<svg xmlns="http://www.w3.org/2000/svg" width="135" height="50"><path fill="none" stroke="#ed5565" stroke-width="1" d="m0 35 1 2 1 3 1 4 1 4 1-2 1-6 1 4 1 1h1l1-2v-2l1 1 1-5 1-2 1-1v6h1l1 2 1-2 1 1 1 3 1 4 1-2 1 1v3l1-1 1-3 1-1 1-4V31l1-1 1 7 1-5 1 3v-3l1 6 1-1h1l1-5v6l1 1 1 1 1-5 1-1v3l1-2 1 2 1-4 1-17v4l1 1 1 4 1 2h1l1 1h1l1 3 1-2v-2l1 4 1 4 1-1 1-8 1-7 1-5 1-4 1 2v2l1 3h1l1 4 1-4v-5l1 5 1 2 1 3 1 1 1 1 1 2 1-1v-1l1-5 1 2h1l1-3v1l1 2 1-8 1-3h1V2l1-1h1l1 3 1-4v8l1 7 1-2 1-1 1-5v2h1l1-1 1 4 1 3v-4l1-1 1 3 1 1h1v2l1 1 1 7 1 1 1-3v-2h1l1-1 1 2 1-2v-2l1-3 1-2 1 1h1l1 2 1-3 1-3 1 2v-1h3l1-1V6h1l1 2 1 3 1 4 1-3 1-1 1 1h1V9l1 1 1-2 1-1h1v5l1 6 1-3 1 1 1 13v6l1-5h1l1 4 1-1v5l1 2"/></svg>