<svg xmlns="http://www.w3.org/2000/svg" width="135" height="50"><path fill="none" stroke="#57bd0f" stroke-width="1" d="M0 22 1 6l1 12v-2h1l1 9L5 4l1 30v-3l1-13 1 11 1-4 1-9v3l1 1 1-9 1 11 1 6v-2l1-2 1-11 1 13 1-6v2l1-4 1 4 1-1 1 19v-8l1-4 1-6h1l1-13v18l1-6 1-5h1l1 34V24l1 5 1-7 1 1 1 7V20l1 10 1-11 1 16 1-7v-8l1 2 1 5 1-18 1-9v35l1-7 1-6 1-2 1-6v-4l1 4 1 2 1 5 1-2v-4l1 9h2l1 2 1-9 1 5 1 2 1-3v5l1-6 1 8 1-6 1 4V15l1 12 1-5 1 12 1-16v5l1-1 1-7 1 6 1-20 1 7h1l1 2v16l1-14 1-2 1 4 1 10v1l1-7 1 1 1 2 1 12V2l1 25 1-3 1 5 1 5V7l1 23 1-17 1 9 1 15V14l1 7 1 18 1-4 1-1V20l1 4 1-10 1-4 1 24v-6l1 3h1l1 1 1-16v13l1-8 1 5 1 2 1-8v-9l1 23 1 3 1-2 1-12v-5l1 5 1 7 1-2 1 4v-6l1-8 1 10 1 6 1 1v-5l1-17 1 21 1 5 1-17v7l1 2 1 3 1-3 1 3v-2h1l1-3 1-6 1-6v1l1 3 1-3h1l1 1v6l1-5"/></svg>