<svg xmlns="http://www.w3.org/2000/svg" width="135" height="50"><path fill="none" stroke="#57bd0f" stroke-width="1.3" d="m0 38 1-6 1 10v-1l1-16 1-4h1L6 4V2l1 11 1-9 1 1 1 15v11l1-7h2l1-7v1l1-16 1 7 1 2 1 3v15l1-5 1 1 1 9 1 11V23l1 13 1-25 1 12 1-2v18l1 4 1-3 1 1 1-1v-8l1-15 1-3 1 8 1 12v-4l1 4 1-11 1 16 1-8V12l1 17 1-7 1-3 1 6V13l1 16 1-1 1 13 1-20v14l1-19 1-9 1 21 1 12V16l1-4h1l1 4 1 7v27l1-19 1-1 1 14 1-27v1l1-1 1 19 1-11 1 20 1-30 1 29 1-31 1 1v5l1 10 1-8 1-13v5l1 8 1 8 1-1h1V13l1-13 1 4 1 12 1 6V12l1 11 1 14 1-15 1-6v9l1-11 1 7 1 18 1-3V18l1-2 1-10 1 7 1 21v6l1-23 1-13 1 22 1-2V9l1 5 1 7 1-2 1 1V9l1 8 1 17 1-23 1-5 1 9 1 3 1-16 1 1v14l1 19 1-22 1 1 1 11V6l1 18h1l1 2 1-2v2l1-9 1 1 1 4 1-11V2l1 15 1-10 1-3 1 5V6l1 5h1l1 27 1-12v7l1-4 1-3 1 5 1-22v21l1-8 1-7 1 12 1-15v3l1 14"/></svg>